<?xml version="1.0" encoding="UTF-8" standalone="no"?>
<!-- Created with Inkscape (http://www.inkscape.org/) -->

<svg
   xmlns:dc="http://purl.org/dc/elements/1.1/"
   xmlns:cc="http://creativecommons.org/ns#"
   xmlns:rdf="http://www.w3.org/1999/02/22-rdf-syntax-ns#"
   xmlns:svg="http://www.w3.org/2000/svg"
   xmlns="http://www.w3.org/2000/svg"
   xmlns:xlink="http://www.w3.org/1999/xlink"
   xmlns:sodipodi="http://sodipodi.sourceforge.net/DTD/sodipodi-0.dtd"
   xmlns:inkscape="http://www.inkscape.org/namespaces/inkscape"
   width="512"
   height="512"
   viewBox="0 0 135.46666 135.46667"
   version="1.1"
   id="svg4659"
   inkscape:version="0.92.2 2405546, 2018-03-11"
   sodipodi:docname="about.svg">
  <defs
     id="defs4653">
    <linearGradient
       inkscape:collect="always"
       xlink:href="#linearGradient4437-9"
       id="linearGradient3876"
       gradientUnits="userSpaceOnUse"
       x1="498.17999"
       y1="518.04999"
       x2="504.51999"
       y2="422.34" />
    <linearGradient
       id="linearGradient4437-9">
      <stop
         id="stop4439-27"
         style="stop-color:#ffff00"
         offset="0" />
      <stop
         id="stop4441-5"
         style="stop-color:#ffff00;stop-opacity:0"
         offset="1" />
    </linearGradient>
    <filter
       style="color-interpolation-filters:sRGB"
       id="filter4946-8">
      <feGaussianBlur
         id="feGaussianBlur4948-00"
         stdDeviation="6.8255148" />
    </filter>
    <filter
       style="color-interpolation-filters:sRGB"
       id="filter4363">
      <feGaussianBlur
         id="feGaussianBlur4365"
         stdDeviation="5.5483248" />
    </filter>
    <radialGradient
       inkscape:collect="always"
       xlink:href="#linearGradient4437-9"
       id="radialGradient3878"
       gradientUnits="userSpaceOnUse"
       gradientTransform="matrix(0.36498134,0.72329029,-0.73864526,0.3769419,208.8881,-407.0554)"
       cx="559.28998"
       cy="467.44"
       r="112.82" />
    <radialGradient
       inkscape:collect="always"
       xlink:href="#linearGradient4437-9"
       id="radialGradient3880"
       gradientUnits="userSpaceOnUse"
       gradientTransform="matrix(0.36498134,0.72329029,-0.73864526,0.3769419,208.8881,-407.0554)"
       cx="559.28998"
       cy="467.44"
       r="112.82" />
    <linearGradient
       inkscape:collect="always"
       xlink:href="#linearGradient4498"
       id="linearGradient3882"
       gradientUnits="userSpaceOnUse"
       x1="524.79999"
       y1="69.941002"
       x2="517.20001"
       y2="159.94"
       gradientTransform="matrix(0.4985303,0,0,0.56674999,-189.38413,130.03649)" />
    <linearGradient
       id="linearGradient4498">
      <stop
         id="stop4551"
         style="stop-color:#ffffff"
         offset="0" />
      <stop
         id="stop4553"
         style="stop-color:#ffffff;stop-opacity:0"
         offset="1" />
    </linearGradient>
    <filter
       style="color-interpolation-filters:sRGB"
       id="filter4558">
      <feGaussianBlur
         id="feGaussianBlur4556"
         stdDeviation="5.5483248" />
    </filter>
    <linearGradient
       inkscape:collect="always"
       xlink:href="#linearGradient4557"
       id="linearGradient3884"
       gradientUnits="userSpaceOnUse"
       gradientTransform="matrix(-1.1853,0,0,-1.1092,815.85,899.33)"
       x1="467.76001"
       y1="416.01001"
       x2="472.82999"
       y2="357.70001" />
    <linearGradient
       id="linearGradient4557">
      <stop
         id="stop4559"
         style="stop-color:#ffcc00"
         offset="0" />
      <stop
         id="stop4561"
         style="stop-color:#e9a71c;stop-opacity:0"
         offset="1" />
    </linearGradient>
    <radialGradient
       inkscape:collect="always"
       xlink:href="#linearGradient4498"
       id="radialGradient3886"
       gradientUnits="userSpaceOnUse"
       gradientTransform="matrix(2.6674,0.97165,-1.0502,2.883,-555.96,-1161.8)"
       cx="463.95999"
       cy="402.79001"
       r="25.4" />
    <linearGradient
       inkscape:collect="always"
       xlink:href="#linearGradient4498"
       id="linearGradient3888"
       gradientUnits="userSpaceOnUse"
       x1="447.07001"
       y1="363.17999"
       x2="468.94"
       y2="415.01999" />
    <radialGradient
       id="radialGradient5251"
       xlink:href="#linearGradient4498"
       gradientUnits="userSpaceOnUse"
       cy="402.79001"
       cx="463.95999"
       gradientTransform="matrix(2.6674,0.97165,-1.0502,2.883,-555.96,-1161.8)"
       r="25.4" />
    <linearGradient
       id="linearGradient5261"
       y2="374.17001"
       xlink:href="#linearGradient4498"
       gradientUnits="userSpaceOnUse"
       x2="457.62"
       gradientTransform="translate(-753.26,166.93)"
       y1="330.44"
       x1="463.64001" />
    <filter
       style="color-interpolation-filters:sRGB"
       id="filter4798">
      <feGaussianBlur
         id="feGaussianBlur4800"
         stdDeviation="0.27037152" />
    </filter>
    <linearGradient
       inkscape:collect="always"
       xlink:href="#linearGradient4498"
       id="linearGradient3892"
       gradientUnits="userSpaceOnUse"
       gradientTransform="translate(-0.31691,-1.5846)"
       x1="463.64001"
       y1="330.44"
       x2="457.62"
       y2="374.17001" />
    <filter
       style="color-interpolation-filters:sRGB"
       id="filter4617">
      <feGaussianBlur
         id="feGaussianBlur4615"
         stdDeviation="0.27037152" />
    </filter>
    <linearGradient
       inkscape:collect="always"
       xlink:href="#linearGradient4437-9"
       id="linearGradient4840"
       gradientUnits="userSpaceOnUse"
       x1="498.17999"
       y1="518.04999"
       x2="504.51999"
       y2="422.34" />
    <linearGradient
       inkscape:collect="always"
       xlink:href="#linearGradient4437-9"
       id="linearGradient4842"
       gradientUnits="userSpaceOnUse"
       x1="498.17999"
       y1="518.04999"
       x2="504.51999"
       y2="422.34" />
    <linearGradient
       inkscape:collect="always"
       xlink:href="#linearGradient4437-9"
       id="linearGradient4844"
       gradientUnits="userSpaceOnUse"
       x1="498.17999"
       y1="518.04999"
       x2="504.51999"
       y2="422.34" />
    <linearGradient
       inkscape:collect="always"
       xlink:href="#linearGradient4437-9"
       id="linearGradient4846"
       gradientUnits="userSpaceOnUse"
       x1="498.17999"
       y1="518.04999"
       x2="504.51999"
       y2="422.34" />
    <linearGradient
       inkscape:collect="always"
       xlink:href="#linearGradient4437-9"
       id="linearGradient4848"
       gradientUnits="userSpaceOnUse"
       x1="498.17999"
       y1="518.04999"
       x2="504.51999"
       y2="422.34" />
    <linearGradient
       inkscape:collect="always"
       xlink:href="#linearGradient4557"
       id="linearGradient4850"
       gradientUnits="userSpaceOnUse"
       gradientTransform="matrix(-1.1853,0,0,-1.1092,815.85,899.33)"
       x1="467.76001"
       y1="416.01001"
       x2="472.82999"
       y2="357.70001" />
    <linearGradient
       inkscape:collect="always"
       xlink:href="#linearGradient4498"
       id="linearGradient4852"
       gradientUnits="userSpaceOnUse"
       x1="447.07001"
       y1="363.17999"
       x2="468.94"
       y2="415.01999" />
  </defs>
  <sodipodi:namedview
     id="base"
     pagecolor="#ffffff"
     bordercolor="#666666"
     borderopacity="1.0"
     inkscape:pageopacity="0.0"
     inkscape:pageshadow="2"
     inkscape:zoom="0.35"
     inkscape:cx="43.467321"
     inkscape:cy="86.789699"
     inkscape:document-units="mm"
     inkscape:current-layer="layer1"
     showgrid="false"
     units="px"
     inkscape:window-width="1366"
     inkscape:window-height="699"
     inkscape:window-x="0"
     inkscape:window-y="45"
     inkscape:window-maximized="1" />
  <metadata
     id="metadata4656">
    <rdf:RDF>
      <cc:Work
         rdf:about="">
        <dc:format>image/svg+xml</dc:format>
        <dc:type
           rdf:resource="http://purl.org/dc/dcmitype/StillImage" />
        <dc:title />
      </cc:Work>
    </rdf:RDF>
  </metadata>
  <g
     inkscape:label="Calque 1"
     inkscape:groupmode="layer"
     id="layer1"
     transform="translate(0,-161.53332)">
    <g
       id="g5165"
       style="opacity:0.33000004;fill:url(#linearGradient3876);filter:url(#filter4946-8)"
       transform="matrix(0.43231123,0,0,0.34859092,-146.09917,60.966679)">
      <path
         id="path5167"
         style="fill:url(#linearGradient4840)"
         d="m 690.86,537.7 c 0,62.309 -50.511,112.82 -112.82,112.82 -62.309,0 -112.82,-50.511 -112.82,-112.82 0,-62.309 50.511,-112.82 112.82,-112.82 62.309,0 112.82,50.511 112.82,112.82 z"
         transform="translate(-78.594,-111.55)"
         inkscape:connector-curvature="0" />
      <path
         id="path5169"
         style="fill:url(#linearGradient4842)"
         d="m 690.86,537.7 c 0,62.309 -50.511,112.82 -112.82,112.82 -62.309,0 -112.82,-50.511 -112.82,-112.82 0,-62.309 50.511,-112.82 112.82,-112.82 62.309,0 112.82,50.511 112.82,112.82 z"
         transform="matrix(1,0,0,1.0056,-78.594,-114.57)"
         inkscape:connector-curvature="0" />
      <path
         id="path5171"
         style="fill:url(#linearGradient4844)"
         d="m 690.86,537.7 c 0,62.309 -50.511,112.82 -112.82,112.82 -62.309,0 -112.82,-50.511 -112.82,-112.82 0,-62.309 50.511,-112.82 112.82,-112.82 62.309,0 112.82,50.511 112.82,112.82 z"
         transform="matrix(1,0,0,1.0056,-78.594,-114.57)"
         inkscape:connector-curvature="0" />
      <path
         id="path5173"
         style="fill:url(#linearGradient4846)"
         d="m 585.65,109.24 c 0,19.603 -30.647,35.494 -68.453,35.494 -37.805,0 -68.453,-15.891 -68.453,-35.494 0,-19.603 30.647,-35.494 68.453,-35.494 37.805,0 68.453,15.891 68.453,35.494 z"
         transform="matrix(0.87963,0,0,1,45.776,245.92)"
         inkscape:connector-curvature="0" />
      <path
         id="path5175"
         style="opacity:0.22000002;fill:url(#linearGradient4848);filter:url(#filter4363)"
         d="m 494.47,315.89 c -44.645,0.7251 -86.723,31.117 -101.28,73.156 -13.418,36.456 -5.8694,80.074 19.594,109.28 24.455,29.367 64.79,44.667 102.72,37.96 33.187,-5.3866 63.539,-26.592 79.332,-56.172 16.366,-29.631 18.325,-67.009 4.3215,-97.944 -15.134,-34.671 -48.832,-60.707 -86.727,-65.296 -5.9478,-0.83309 -11.957,-1.1546 -17.961,-0.98481 z m 3.3438,2.5312 c 45.748,-0.91102 89.482,31.359 102.22,75.188 11.14,36.156 1.6679,78.096 -24.969,105.03 -24.665,25.855 -62.898,38.153 -98.057,30.666 -38.223,-7.6514 -71.073,-37.463 -81.255,-75.197 -9.7458,-33.907 -1.5074,-72.579 21.812,-98.849 19.939,-22.857 49.702,-37.115 80.251,-36.839 z"
         inkscape:connector-curvature="0" />
    </g>
    <path
       inkscape:connector-curvature="0"
       d="m 131.67407,232.18185 c 0,35.31363 -28.62711,63.94074 -63.940737,63.94074 -35.313627,0 -63.940735,-28.62711 -63.940735,-63.94074 0,-35.31362 28.627108,-63.94073 63.940735,-63.94073 35.313627,0 63.940737,28.62711 63.940737,63.94073 z"
       style="fill:#eaa81c;stroke-width:0.56674999"
       id="path5179" />
    <path
       inkscape:connector-curvature="0"
       d="m 131.67407,232.17681 c 0,35.51138 -28.62711,64.29881 -63.940737,64.29881 -35.313627,0 -63.940735,-28.78743 -63.940735,-64.29881 0,-35.51138 28.627108,-64.2988 63.940735,-64.2988 35.313627,0 63.940737,28.78742 63.940737,64.2988 z"
       style="fill:url(#radialGradient3878);stroke-width:0.5683347"
       id="path5181" />
    <path
       inkscape:connector-curvature="0"
       d="m 131.67407,232.17681 c 0,35.51138 -28.62711,64.29881 -63.940737,64.29881 -35.313627,0 -63.940735,-28.78743 -63.940735,-64.29881 0,-35.51138 28.627108,-64.2988 63.940735,-64.2988 35.313627,0 63.940737,28.78742 63.940737,64.2988 z"
       style="fill:url(#radialGradient3880);stroke-width:0.5683347;stroke:none"
       id="path5183" />
    <path
       inkscape:connector-curvature="0"
       d="m 102.58013,191.94826 c 0,11.11001 -15.278451,20.11623 -34.125887,20.11623 -18.846938,0 -34.125895,-9.00622 -34.125895,-20.11623 0,-11.11 15.278459,-20.11621 34.125895,-20.11621 18.846938,0 34.125887,9.00621 34.125887,20.11621 z"
       style="fill:url(#linearGradient3882);stroke-width:0.53154683"
       id="path5185" />
    <g
       id="g5189"
       transform="matrix(0.56674999,0,0,0.56674999,-97.976429,-36.775026)">
      <path
         id="path5191"
         style="fill:#e9a71c"
         d="m 494.38,402.7 c 0,22.053 -2.3795,34.443 -26.304,34.226 -22.026,-0.19938 -28.205,-12.173 -28.205,-34.226 0,-22.053 12.202,-39.931 27.254,-39.931 15.052,0 27.254,17.878 27.254,39.931 z"
         transform="translate(-205.36,48.17)"
         inkscape:connector-curvature="0" />
      <path
         id="path5193"
         style="fill:url(#linearGradient4850)"
         d="m 263.47,485.06 c 17.598,-3.0026 24.718,-15.6 24.95,-30.517 0.68007,-15.857 -5.6995,-35.697 -23.929,-40.416 -15.41,-0.96838 -25.256,14.16 -27.332,26.837 -4.2895,18.045 -0.67507,35.841 19.075,43.611 1.7817,0.40549 3.9006,-2.5875 7.2354,0.48527 z"
         inkscape:connector-curvature="0" />
      <path
         id="path5195"
         style="fill:#999999"
         d="m 268.5,483.24 c 16.963,-2.9779 18.43,-16.809 18.654,-29.027 0.65554,-15.727 -5.4938,-35.405 -23.065,-40.084 -14.854,-0.96044 -24.344,14.044 -26.346,26.617 -4.1347,17.897 3.3299,42.388 17.297,42.33 1.7174,0.40216 11.385,0.0378 13.46,0.16438 z"
         inkscape:connector-curvature="0" />
      <path
         id="path5197"
         style="fill:url(#radialGradient3886)"
         d="m 266.99,483.08 c 16.567,-0.20498 19.935,-14.073 20.159,-28.869 0.65554,-15.727 -5.4938,-35.405 -23.065,-40.084 -14.854,-0.96044 -24.344,14.044 -26.346,26.617 -4.1347,17.897 2.5376,42.072 17.772,42.172 1.7174,0.40216 9.8001,0.2755 11.48,0.16438 z"
         inkscape:connector-curvature="0" />
      <path
         id="path5199"
         style="fill:#000000"
         d="m 485.51,400.16 c 0,10.151 -6.5267,18.381 -14.578,18.381 -8.0511,0 -14.578,-8.2294 -14.578,-18.381 0,-10.151 6.5267,-18.381 14.578,-18.381 8.0511,0 14.578,8.2294 14.578,18.381 z"
         transform="matrix(1.1739,0,0,1,-291.06,50.706)"
         inkscape:connector-curvature="0" />
      <path
         id="path5201"
         style="fill:url(#linearGradient4852)"
         d="m 485.51,400.16 c 0,10.151 -6.5267,18.381 -14.578,18.381 -8.0511,0 -14.578,-8.2294 -14.578,-18.381 0,-10.151 6.5267,-18.381 14.578,-18.381 8.0511,0 14.578,8.2294 14.578,18.381 z"
         transform="matrix(0.47826,0,0,0.62963,39.076,194.31)"
         inkscape:connector-curvature="0" />
    </g>
    <g
       id="g5203"
       transform="matrix(0.56674999,0,0,0.56674999,-59.873827,-36.775026)">
      <path
         id="path5205"
         style="fill:#e9a71c"
         d="m 494.38,402.7 c 0,22.053 -2.3795,34.443 -26.304,34.226 -22.026,-0.19938 -28.205,-12.173 -28.205,-34.226 0,-22.053 12.202,-39.931 27.254,-39.931 15.052,0 27.254,17.878 27.254,39.931 z"
         transform="translate(-205.36,48.17)"
         inkscape:connector-curvature="0" />
      <path
         id="path5207"
         style="fill:url(#linearGradient3884)"
         d="m 263.47,485.06 c 17.598,-3.0026 24.718,-15.6 24.95,-30.517 0.68007,-15.857 -5.6995,-35.697 -23.929,-40.416 -15.41,-0.96838 -25.256,14.16 -27.332,26.837 -4.2895,18.045 -0.67507,35.841 19.075,43.611 1.7817,0.40549 3.9006,-2.5875 7.2354,0.48527 z"
         inkscape:connector-curvature="0" />
      <path
         id="path5209"
         style="fill:#999999"
         d="m 268.5,483.24 c 16.963,-2.9779 18.43,-16.809 18.654,-29.027 0.65554,-15.727 -5.4938,-35.405 -23.065,-40.084 -14.854,-0.96044 -24.344,14.044 -26.346,26.617 -4.1347,17.897 3.3299,42.388 17.297,42.33 1.7174,0.40216 11.385,0.0378 13.46,0.16438 z"
         inkscape:connector-curvature="0" />
      <path
         id="path5211"
         style="fill:url(#radialGradient5251)"
         d="m 266.99,483.08 c 16.567,-0.20498 19.935,-14.073 20.159,-28.869 0.65554,-15.727 -5.4938,-35.405 -23.065,-40.084 -14.854,-0.96044 -24.344,14.044 -26.346,26.617 -4.1347,17.897 2.5376,42.072 17.772,42.172 1.7174,0.40216 9.8001,0.2755 11.48,0.16438 z"
         inkscape:connector-curvature="0" />
      <path
         id="path5213"
         style="fill:#000000"
         d="m 485.51,400.16 c 0,10.151 -6.5267,18.381 -14.578,18.381 -8.0511,0 -14.578,-8.2294 -14.578,-18.381 0,-10.151 6.5267,-18.381 14.578,-18.381 8.0511,0 14.578,8.2294 14.578,18.381 z"
         transform="matrix(1.1739,0,0,1,-291.06,50.706)"
         inkscape:connector-curvature="0" />
      <path
         id="path5215"
         style="fill:url(#linearGradient3888)"
         d="m 485.51,400.16 c 0,10.151 -6.5267,18.381 -14.578,18.381 -8.0511,0 -14.578,-8.2294 -14.578,-18.381 0,-10.151 6.5267,-18.381 14.578,-18.381 8.0511,0 14.578,8.2294 14.578,18.381 z"
         transform="matrix(0.47826,0,0,0.62963,39.076,194.31)"
         inkscape:connector-curvature="0" />
    </g>
    <path
       id="path5217"
       style="fill:none;stroke:#000000;stroke-width:1.70021594"
       d="m 98.659311,261.23484 c 0,10.94765 -13.28299,19.82211 -29.668148,19.82211 -16.385157,0 -29.668153,-8.87446 -29.668153,-19.82211"
       inkscape:connector-curvature="0" />
    <path
       id="path5219"
       style="fill:none;stroke:#000000;stroke-width:1.63724709"
       d="m 98.693493,261.20897 c 0,10.14094 -13.297146,18.36147 -29.699757,18.36147 -16.402612,0 -29.699756,-8.22053 -29.699756,-18.36147"
       inkscape:connector-curvature="0" />
    <path
       id="path5221"
       style="fill:none;stroke:#000000;stroke-width:1.58285117"
       d="m 98.726349,261.1852 c 0,9.46956 -13.30942,17.14585 -29.727172,17.14585 -16.417753,0 -29.727172,-7.67629 -29.727172,-17.14585"
       inkscape:connector-curvature="0" />
    <path
       id="path5223"
       style="fill:#000000;stroke:#000000;stroke-width:0.29575282px"
       d="m 33.566246,197.84814 c 0.898071,-5.74741 9.544636,-9.63022 15.727878,-9.63022 6.183242,0 8.334625,1.78651 8.244513,2.95396 0,0 -0.221736,3.57659 -3.435242,1.54688 -2.187428,-1.38162 -7.988342,-2.03508 -13.740854,2.04587 -3.219876,2.28433 -2.404664,4.50083 -4.122256,4.50083 -1.717593,0 -2.494494,-0.51916 -2.674097,-1.41721 z"
       inkscape:connector-curvature="0" />
    <path
       id="path5225"
       style="fill:url(#linearGradient5261);filter:url(#filter4798)"
       d="m -286.66,518.09 c -9.6741,0.553 -21.032,4.29 -24.688,14.094 2.3987,1.5748 2.9776,-2.4698 4.2188,-3.5938 7.2654,-9.0591 21.313,-12.133 31.75,-6.8438 2.0932,0.32042 0.1104,-2.6834 -1.1875,-2.4688 -3.2327,-0.68353 -6.6947,-1.4631 -10.094,-1.1875 z"
       inkscape:connector-curvature="0"
       transform="matrix(0.56674999,0,0,0.56674999,211.40105,-104.84737)" />
    <path
       id="path5227"
       style="fill:#000000;stroke:#000000;stroke-width:0.29575282px"
       d="m 104.59703,198.20519 c -0.89808,-5.74742 -9.544645,-9.63022 -15.727887,-9.63022 -6.183242,0 -8.334625,1.78652 -8.244512,2.95396 0,0 0.221735,3.57659 3.435242,1.5469 2.187428,-1.38163 7.98834,-2.0351 13.740853,2.04584 3.219874,2.28435 2.404664,4.50085 4.122254,4.50085 1.71759,0 2.4945,-0.51916 2.6741,-1.41722 z"
       inkscape:connector-curvature="0" />
    <path
       id="path5229"
       style="fill:url(#linearGradient3892);filter:url(#filter4798)"
       d="m 466.28,349.57 c -9.6741,0.553 -21.032,4.29 -24.688,14.094 2.3987,1.5748 2.9776,-2.4698 4.2188,-3.5938 7.2654,-9.0591 21.313,-12.133 31.75,-6.8438 2.0932,0.32042 0.1104,-2.6834 -1.1875,-2.4688 -3.2327,-0.68353 -6.6947,-1.4631 -10.094,-1.1875 z"
       transform="matrix(-0.56674999,0,0,0.56674999,353.49095,-8.9816061)"
       inkscape:connector-curvature="0" />
  </g>
</svg>
