<?xml version="1.0" encoding="UTF-8" standalone="no"?>
<!-- Created with Inkscape (http://www.inkscape.org/) -->

<svg
   xmlns:dc="http://purl.org/dc/elements/1.1/"
   xmlns:cc="http://creativecommons.org/ns#"
   xmlns:rdf="http://www.w3.org/1999/02/22-rdf-syntax-ns#"
   xmlns:svg="http://www.w3.org/2000/svg"
   xmlns="http://www.w3.org/2000/svg"
   xmlns:sodipodi="http://sodipodi.sourceforge.net/DTD/sodipodi-0.dtd"
   xmlns:inkscape="http://www.inkscape.org/namespaces/inkscape"
   id="Layer_1"
   version="1.1"
   viewBox="0 0 512.00002 512.00003"
   inkscape:version="0.92.2 2405546, 2018-03-11"
   sodipodi:docname="add.svg"
   width="512"
   height="512">
  <sodipodi:namedview
     pagecolor="#ffffff"
     bordercolor="#666666"
     borderopacity="1"
     objecttolerance="10"
     gridtolerance="10"
     guidetolerance="10"
     inkscape:pageopacity="0"
     inkscape:pageshadow="2"
     inkscape:window-width="1920"
     inkscape:window-height="1032"
     id="namedview24"
     showgrid="false"
     inkscape:zoom="0.62086545"
     inkscape:cx="291.71884"
     inkscape:cy="427.31634"
     inkscape:window-x="0"
     inkscape:window-y="24"
     inkscape:window-maximized="1"
     inkscape:current-layer="Layer_1" />
  <defs
     id="defs39">
    <radialGradient
       id="radialGradient3016"
       gradientUnits="userSpaceOnUse"
       cy="36.195"
       cx="52.408001"
       gradientTransform="matrix(3.5939776,0,0,3.5939776,11.506697,9.5196872)"
       r="105.16">
      <stop
         id="stop8"
         style="stop-color:#d1f593"
         offset="0" />
      <stop
         id="stop10"
         style="stop-color:#81ce09"
         offset="1" />
    </radialGradient>
  </defs>
  <g
     id="g73"
     transform="translate(0,2)">
    <path
       inkscape:connector-curvature="0"
       d="M 289.6997,4.0409494 C 275.58,3.6243421 261.33156,5.2036697 251.56248,5.2036697 c -11.99816,0 -28.7097,-1.8327076 -43.94897,0.8139041 -7.62075,1.3233059 -15.02681,3.890369 -21.16151,8.7202162 -6.13469,4.830219 -10.73125,11.946067 -12.67346,21.394052 -4.67804,22.75025 -0.8139,48.268704 -0.8139,69.182788 v 65.69276 c -29.8888,-0.0223 -59.75824,-0.003 -89.646666,0 -13.965294,0 -31.919927,-1.55477 -47.438987,2.67426 -7.759529,2.11451 -15.16336,5.88615 -20.463876,12.32483 -5.300516,6.43868 -8.2551277,15.33414 -8.2551277,26.62611 0,27.75237 -2.6855675,57.54442 0.116272,86.2757 h -0.116272 c 0,0.21841 0.1134108,0.36463 0.116272,0.58136 0.1536391,11.63055 4.3562007,20.84153 11.1621147,26.85903 6.932789,6.12949 15.893362,9.13433 25.347301,10.69702 18.907878,3.12566 40.48871,0.58136 53.600474,0.58136 5.599285,0 25.290005,-1.0121 44.183365,-1.04644 9.4465,-0.0186 18.64446,0.16296 25.11476,0.8139 2.86636,0.28835 4.87226,0.79556 6.27869,1.16272 v 101.50458 c 0,16.3938 0.99361,31.64944 8.02258,43.71829 7.02897,12.06885 20.61308,19.64978 41.2775,19.64978 H 274.818 c 13.35696,0.007 32.70909,3.41367 47.55433,-6.51123 14.41215,-9.63923 17.99705,-27.95217 18.71961,-45.80932 0.72286,-17.85901 -1.51154,-36.38738 -1.51154,-47.78873 v -54.18466 c 0,-5.90141 -0.64684,-10.06935 -0.58136,-11.16212 0.20639,-0.0577 0.87563,-0.34863 3.02307,-0.34863 h 107.43535 c 11.61977,0 26.19042,2.0372 38.83672,-6.51123 9.23665,-6.2426 13.72196,-15.02904 15.58045,-23.83558 1.85846,-8.80691 1.51154,-17.80097 1.51154,-26.04493 0,-12.11015 2.60799,-32.91633 2.09289,-52.9047 -0.51509,-19.98763 -3.90339,-40.36221 -19.18469,-50.69461 -12.6251,-8.54832 -27.19798,-6.62732 -38.83672,-6.62732 H 390.39146 342.0223 c -2.14722,0 -2.8168,-0.29096 -3.02307,-0.34863 -0.0656,-1.0934 0.58136,-5.26256 0.58136,-11.16211 V 52.060738 C 339.59919,40.199131 338.73227,27.007372 328.32545,16.605397 318.48047,6.7630171 303.85438,4.4647377 289.72314,4.0480188 Z M 218.65656,22.877017 c 6.30548,-0.02232 13.07084,0.581361 19.06862,0.581361 18.54064,0.0074 37.04557,0 55.57988,0 8.76785,0 14.33142,1.821954 18.13844,4.534795 3.80703,2.712654 6.21655,6.445004 7.79041,11.511116 3.14716,10.131851 2.20917,25.038483 2.20917,39.298084 V 180.19158 c 0,3.36448 2.6324,5.85192 4.5348,6.86023 1.90221,1.00824 3.74228,1.46514 5.93006,1.86036 4.3748,0.79046 9.94097,1.05675 16.62708,1.16272 13.37221,0.21208 31.05189,-0.46364 49.29934,-1.04645 18.24745,-0.58281 37.09245,-1.10133 52.32055,-0.46509 7.61517,0.31812 14.34815,0.92229 19.5337,1.86035 5.18555,0.93807 8.77677,2.4611 9.76685,3.25562 7.45853,5.99033 10.5802,22.65165 10.46448,41.15844 -0.11571,18.50864 -2.79053,37.91398 -2.79053,50.11417 0,7.29779 0.17376,14.35597 -1.27899,19.8827 -1.45271,5.52674 -3.91046,9.45059 -10.23194,12.55738 -7.19212,3.53199 -20.61828,2.0929 -31.74207,2.0929 H 336.90614 c -3.17986,0 -4.94295,-0.97922 -9.06921,0 -2.0631,0.4896 -4.61293,2.65241 -5.46498,4.76696 -0.85196,2.11474 -0.93017,3.86656 -0.93017,6.04615 v 47.67343 c 0,28.59436 3.52819,58.94712 0.11627,85.92595 a 5.5479429,5.5479429 0 0 0 -0.11627,0.69764 c 0,7.91431 -2.90595,12.08708 -8.60413,15.58045 -5.69826,3.49329 -14.52266,5.56357 -24.30067,6.39514 -19.55639,1.66286 -42.38999,-1.39526 -55.11108,-1.39526 -8.19671,-0.004 -16.69368,0.74131 -23.71949,-0.34863 -7.02581,-1.09013 -12.18122,-3.39838 -15.92908,-9.88294 -4.14524,-7.17612 -2.55799,-21.352 -2.55799,-33.02125 V 330.30137 c 4.5e-4,-3.09593 -1.62435,-6.28725 -3.83679,-8.13904 -2.21263,-1.85195 -4.80231,-2.81174 -7.55749,-3.48835 -5.51037,-1.35326 -12.24931,-1.468 -20.23134,-1.27899 -15.96368,0.37798 -36.65675,2.61673 -57.20583,3.83679 -20.549083,1.22024 -40.927755,1.31821 -55.345486,-2.0929 -7.209238,-1.70553 -12.884057,-4.34429 -16.394541,-7.55749 -3.510299,-3.21335 -5.236892,-6.83085 -5.232056,-12.67347 v -86.2757 c 0,-8.18741 2.209801,-12.8982 5.697144,-16.27809 3.487528,-3.37988 8.703472,-5.56617 15.231821,-6.74377 13.055953,-2.35491 30.224029,-0.34863 43.253193,-0.34863 h 95.108655 c 2.26837,0 3.80926,-1.44754 4.41834,-2.20917 0.60889,-0.76163 0.7844,-1.25083 0.93017,-1.62781 0.29152,-0.75393 0.38528,-1.06877 0.46509,-1.51154 0.15966,-0.88552 0.14991,-1.83512 0.23255,-2.9068 0.16531,-2.14338 0.37731,-4.94667 0.46508,-8.37158 0.17555,-6.84982 0.23084,-15.94992 0.23255,-25.23085 0.003,-18.56222 -0.23255,-38.06653 -0.23255,-40.81241 0,-11.518927 -2.44669,-29.594111 -1.86035,-46.278123 0.29316,-8.341076 1.39973,-16.229342 3.60444,-22.324229 2.2047,-6.094886 5.23317,-10.211846 9.76685,-12.441293 3.95473,-1.944849 9.62806,-2.65342 15.92908,-2.674256 z"
       style="fill:#4d4d4d;stroke-width:3.72070479"
       id="path3795" />
    <path
       inkscape:connector-curvature="0"
       d="m 198.46802,483.23499 c 0,9.3624 102.98911,4.96676 113.57823,2.93626 17.56731,-3.36035 -32.64397,-11.22053 -36.9172,-11.41437 -6.86098,-0.30547 -76.66884,-3.24892 -76.65768,8.47799"
       style="fill:#67ba06;stroke-width:3.72070479"
       id="path5" />
    <path
       inkscape:connector-curvature="0"
       d="M 330.50467,464.63146 V 377.3921 333.88589 c 0,-8.446 4.86259,-5.32618 12.93466,-5.32618 35.6916,0 71.38916,0 107.08933,-0.007 10.99393,0 23.03711,1.434 32.66555,-5.06387 14.84673,-10.03065 13.082,-26.77494 13.082,-42.28209 0,-23.97176 10.64159,-79.99516 -13.09279,-96.02767 -20.7407,-14.0092 -66.36993,-5.07095 -89.49039,-5.07095 -10.54113,0 -63.17757,6.44761 -63.17757,-5.32991 0,-34.59177 0,-69.17907 -0.007,-103.766739 0,-28.564967 -0.0827,-56.670054 -37.19402,-56.670054 h -51.12621 c -12.62547,0 -29.94497,-2.76374 -41.99187,2.336081 -27.74902,11.737708 -18.13881,62.269716 -18.13881,85.706432 0,6.15293 0.97754,77.72553 -0.8949,77.72553 H 85.648363 c -25.258377,0 -69.368821,-6.97223 -69.361379,30.98714 0,29.14689 0.0036,58.29601 0.0036,87.44401 0,38.21536 49.117024,30.02385 73.885756,30.02385 7.446618,0 91.87909,-0.95957 91.87909,0.89848 0,36.06888 0.004,72.1333 0.004,108.19809 0,11.67334 -2.36841,27.40746 2.3289,38.53162 8.20862,19.42543 27.65898,18.13509 45.01681,18.13509 26.45533,-0.007 101.11759,13.40533 101.09899,-29.69681"
       style="fill:url(#radialGradient3016);stroke-width:3.72070479"
       id="path12" />
    <path
       inkscape:connector-curvature="0"
       d="m 37.570234,197.84204 c 9.365758,0 4.97421,102.98911 2.943449,113.57824 -3.37133,17.57289 -11.227598,-32.64174 -11.421819,-36.90939 -0.30547,-6.85354 -3.241478,-76.68001 8.47837,-76.66885"
       style="fill:#b2ed21;stroke-width:3.72070479"
       id="path14" />
    <path
       inkscape:connector-curvature="0"
       d="m 483.8498,197.84204 c 9.36241,0 4.97756,102.98911 2.95067,113.57824 -3.37115,17.57103 -11.23467,-32.64398 -11.42889,-36.91349 -0.30547,-6.85353 -3.23095,-76.67628 8.478,-76.66512"
       style="fill:#b2ed21;stroke-width:3.72070479"
       id="path16" />
    <path
       inkscape:connector-curvature="0"
       d="m 200.27256,313.16157 c 9.56705,0.0112 4.80157,148.25148 2.89315,161.91763 -1.27587,9.08894 -4.62186,8.16546 -6.54472,-0.18343 -4.3882,-19.0515 -4.5534,-39.50272 -4.99579,-58.93968 -0.18328,-7.89608 -2.83205,-102.8068 8.64692,-102.79564"
       style="fill:#67ba06;stroke-width:3.72070479"
       id="path18" />
    <path
       inkscape:connector-curvature="0"
       d="m 337.53308,198.79454 c 0,9.54212 128.92987,4.63265 140.75799,3.18426 5.60673,-0.69004 12.7981,-3.53289 3.5113,-6.37915 -16.13335,-4.9344 -34.54526,-4.88789 -51.22666,-5.39093 -7.51843,-0.22659 -93.03995,-3.04767 -93.03995,8.5859"
       style="fill:#b2ed21;stroke-width:3.72070479"
       id="path20" />
    <path
       inkscape:connector-curvature="0"
       d="m 37.570234,197.84204 c 0.01079,-8.08992 153.166536,-6.46546 153.173976,0.004 0,6.91827 -153.151652,20.05087 -153.173976,-0.004"
       style="fill:#b2ed21;stroke-width:3.72070479"
       id="path22" />
    <path
       inkscape:connector-curvature="0"
       d="m 198.46802,36.952444 c 0,9.365758 102.98911,4.966769 113.57823,2.939877 17.56173,-3.360168 -32.64546,-11.223878 -36.92055,-11.418098 -6.85726,-0.30547 -76.66884,-3.245199 -76.65768,8.47837"
       style="fill:#b2ed21;stroke-width:3.72070479"
       id="path24" />
    <path
       inkscape:connector-curvature="0"
       d="m 198.46802,36.952444 c -8.07914,0 -6.48333,152.031716 -0.004,152.031716 7.04403,0.004 19.97869,-152.031716 0.004,-152.031716"
       style="fill:#b2ed21;stroke-width:3.72070479"
       id="path26" />
    <path
       inkscape:connector-curvature="0"
       d="m 316.26181,33.494793 c -8.09365,0 -4.53554,87.146347 -4.49982,94.286377 0.0647,13.33017 -1.57776,29.33032 2.46906,42.28209 3.11955,9.99121 8.10072,-16.21222 8.29122,-17.68934 1.52742,-11.9896 11.9896,-118.902568 -6.26083,-118.880243"
       style="fill:#b2ed21;stroke-width:3.72070479"
       id="path28" />
    <path
       inkscape:connector-curvature="0"
       d="m 316.25809,317.86826 c -7.00088,-0.0186 -4.51396,83.04613 -4.51396,90.26058 0,20.6581 -0.95957,41.70538 1.17523,62.29204 1.17883,11.41066 5.26889,12.44948 7.80231,0.75831 2.52298,-11.60115 12.83755,-153.34884 -4.46373,-153.30792"
       style="fill:#67ba06;stroke-width:3.72070479"
       id="path30" />
    <path
       inkscape:connector-curvature="0"
       d="m 39.187624,310.56824 c -0.01079,-8.07207 87.153786,-4.53554 94.282656,-4.49238 13.33724,0.0647 29.33404,-1.57777 42.28209,2.46188 9.99828,3.11955 -16.21594,8.10816 -17.68227,8.29494 -11.98216,1.52385 -118.924892,11.9643 -118.883964,-6.26418"
       style="fill:#67ba06;stroke-width:3.72070479"
       id="path32" />
    <path
       inkscape:connector-curvature="0"
       d="m 324.18319,310.58312 c -0.007,-7.08385 79.85377,-4.53182 86.71475,-4.53182 20.65438,0 41.70166,-0.94521 62.29204,1.18601 11.40359,1.17883 12.4532,5.26517 0.76193,7.80604 -11.63353,2.52655 -149.76581,13.13223 -149.76581,-4.46001"
       style="fill:#67ba06;stroke-width:3.72070479"
       id="path34" />
    <path
       inkscape:connector-curvature="0"
       d="M 289.58243,9.6222299 C 276.00111,9.22151 261.89071,10.78495 251.56054,10.78495 c -25.02099,0 -65.44719,-6.9316729 -72.32306,26.510022 -4.38113,21.305128 -0.69763,46.471603 -0.69763,68.018208 V 176.587 c -31.74542,-0.0298 -63.47894,-0.004 -95.227718,0 -28.625986,0 -70.578049,-5.37977 -70.578049,36.04433 0,28.306 -2.8212618,58.1174 0,86.2757 0,42.84019 57.12026,33.13734 84.646034,33.13734 9.721833,0 81.156013,-3.88181 81.156013,3.60443 v 104.41042 c 0,32.23433 4.82092,57.78627 43.71828,57.78627 h 52.55496 c 14.04863,0.007 32.11005,2.64553 44.41777,-5.58106 23.96506,-15.99903 14.7712,-64.74026 14.7712,-88.92485 v -54.1809 c 0,-11.1956 -3.73187,-17.1078 8.02184,-17.1078 h 107.43535 c 12.10085,0 25.11141,1.57453 35.6957,-5.58106 16.0433,-10.84287 14.65027,-28.43511 14.65027,-45.22888 0,-25.75063 10.65461,-81.83691 -14.65027,-98.94843 -10.58429,-7.16645 -23.60899,-5.69714 -35.6957,-5.69714 h -59.06619 -48.36916 c -11.74999,0 -8.01812,-5.91592 -8.01812,-17.09292 V 52.0671 C 333.99834,40.432456 333.2542,29.456005 324.35055,20.557195 316.22081,12.427827 303.16858,10.028717 289.58429,9.627997 Z m -70.92408,7.6735811 c 6.65336,-0.02232 13.46932,0.581361 19.06861,0.581361 18.53767,0.0074 37.04408,0 55.57989,0 38.26001,0 33.71889,33.004884 33.71889,60.926541 V 180.19292 c 0,12.09006 136.46057,-6.43384 155.91985,9.18567 20.48546,16.45333 9.76685,72.92582 9.76685,95.57747 0,14.40471 0.74269,29.87428 -14.65027,37.43773 -9.68202,4.75469 -23.80098,2.67426 -34.18398,2.67426 H 336.90793 c -7.50429,0 -9.88294,-2.32228 -9.88294,5.23205 v 47.66967 c 0,28.13002 3.53289,58.68668 0,86.62173 0,38.40512 -70.07575,26.16102 -93.59805,26.16102 -15.65523,-0.007 -35.09331,3.10724 -44.41777,-13.02247 -5.6964,-9.86172 -3.37189,-24.93281 -3.37189,-35.81178 V 330.29713 c 0.004,-25.06081 -165.850415,26.02744 -165.802046,-31.39345 v -86.2757 c 0,-37.21449 44.934952,-28.95155 69.763215,-28.95155 h 95.108661 c 1.83293,0 0.93017,-71.04314 0.93017,-77.08928 0,-21.344572 -9.77429,-74.030868 14.65028,-86.041303 5.24619,-2.570263 11.72022,-3.225107 18.37284,-3.247431 z"
       style="fill:#507323;stroke-width:3.72070479"
       id="path3791" />
  </g>
  <metadata
     id="metadata21">
    <rdf:RDF>
      <cc:Work>
        <dc:format>image/svg+xml</dc:format>
        <dc:type
           rdf:resource="http://purl.org/dc/dcmitype/StillImage" />
        <cc:license
           rdf:resource="http://creativecommons.org/publicdomain/zero/1.0/" />
        <dc:publisher>
          <cc:Agent
             rdf:about="http://openclipart.org/">
            <dc:title>Openclipart</dc:title>
          </cc:Agent>
        </dc:publisher>
        <dc:title>Green plus with black border</dc:title>
        <dc:date>2012-07-06T09:23:01</dc:date>
        <dc:description>Plus symbol used for collect. Remix have black border.</dc:description>
        <dc:source>https://openclipart.org/detail/171070/green-plus-with-black-border-by-kuba-171070</dc:source>
        <dc:creator>
          <cc:Agent>
            <dc:title>kuba</dc:title>
          </cc:Agent>
        </dc:creator>
        <dc:subject>
          <rdf:Bag>
            <rdf:li>add</rdf:li>
            <rdf:li>cross</rdf:li>
            <rdf:li>green</rdf:li>
            <rdf:li>icon</rdf:li>
            <rdf:li>maths</rdf:li>
            <rdf:li>plus</rdf:li>
            <rdf:li>sign</rdf:li>
            <rdf:li>symbol</rdf:li>
          </rdf:Bag>
        </dc:subject>
      </cc:Work>
      <cc:License
         rdf:about="http://creativecommons.org/publicdomain/zero/1.0/">
        <cc:permits
           rdf:resource="http://creativecommons.org/ns#Reproduction" />
        <cc:permits
           rdf:resource="http://creativecommons.org/ns#Distribution" />
        <cc:permits
           rdf:resource="http://creativecommons.org/ns#DerivativeWorks" />
      </cc:License>
    </rdf:RDF>
  </metadata>
</svg>
