<?xml version="1.0" encoding="UTF-8" standalone="no"?>
<svg
   xmlns:dc="http://purl.org/dc/elements/1.1/"
   xmlns:cc="http://creativecommons.org/ns#"
   xmlns:rdf="http://www.w3.org/1999/02/22-rdf-syntax-ns#"
   xmlns:svg="http://www.w3.org/2000/svg"
   xmlns="http://www.w3.org/2000/svg"
   xmlns:sodipodi="http://sodipodi.sourceforge.net/DTD/sodipodi-0.dtd"
   xmlns:inkscape="http://www.inkscape.org/namespaces/inkscape"
   id="svg2"
   viewBox="0 0 512 512"
   version="1.0"
   sodipodi:docname="arrow_down.svg"
   width="512"
   height="512"
   inkscape:version="0.92.2 2405546, 2018-03-11">
  <sodipodi:namedview
     pagecolor="#ffffff"
     bordercolor="#666666"
     borderopacity="1"
     objecttolerance="10"
     gridtolerance="10"
     guidetolerance="10"
     inkscape:pageopacity="0"
     inkscape:pageshadow="2"
     inkscape:window-width="1920"
     inkscape:window-height="1032"
     id="namedview14"
     showgrid="false"
     inkscape:zoom="0.69532167"
     inkscape:cx="61.027222"
     inkscape:cy="121.68494"
     inkscape:window-x="0"
     inkscape:window-y="24"
     inkscape:window-maximized="1"
     inkscape:current-layer="svg2" />
  <defs
     id="defs4">
    <linearGradient
       id="linearGradient3374"
       y2="22"
       gradientUnits="userSpaceOnUse"
       x2="23"
       y1="9"
       x1="11">
      <stop
         id="stop3362"
         stop-color="#aeed72"
         offset="0" />
      <stop
         id="stop3364"
         stop-color="#71c91c"
         offset="1" />
    </linearGradient>
  </defs>
  <g
     id="layer1"
     transform="matrix(0,-18.227439,-18.227439,0,529.11106,528.12095)">
    <rect
       id="rect3465"
       ry="0"
       height="0"
       width="6"
       y="12.5"
       x="16"
       style="fill:#427bc3" />
    <g
       id="g3370"
       transform="matrix(-1,0,0,1,30,0)">
      <path
         id="path3354"
         d="m 12.5,2.5625 c -1.031,0.0971 -1.817,0.9647 -1.812,2 v 2.625 H 3.375 c -1.1045,10e-5 -1.9999,0.8955 -2,2 v 11.624 c 10e-5,1.105 0.8955,2 2,2 h 7.313 v 2.626 c 0,1.104 0.895,1.999 2,2 H 15 c 0.454,0 0.895,-0.154 1.25,-0.438 l 11.625,-9.281 c 0.474,-0.38 0.75,-0.955 0.75,-1.563 v -2.312 c 0,-0.608 -0.276,-1.183 -0.75,-1.563 L 16.25,2.9995 C 15.895,2.716 15.454,2.5617 15,2.562 h -2.312 c -0.063,-0.0029 -0.126,-0.0029 -0.188,0 z"
         inkscape:connector-curvature="0"
         style="fill:#4e9a06" />
      <path
         id="path3358"
         d="m 13.312,5.1875 v 4 c 0,0.3452 -0.279,0.625 -0.624,0.625 H 4 v 10.376 h 8.688 c 0.345,0 0.624,0.279 0.624,0.624 v 4 h 1.469 L 26,15.8445 v -1.688 L 14.781,5.188 h -1.469 z"
         inkscape:connector-curvature="0"
         style="fill:url(#linearGradient3374)" />
    </g>
  </g>
  <metadata
     id="metadata11">
    <rdf:RDF>
      <cc:Work>
        <dc:format>image/svg+xml</dc:format>
        <dc:type
           rdf:resource="http://purl.org/dc/dcmitype/StillImage" />
        <cc:license
           rdf:resource="http://creativecommons.org/publicdomain/zero/1.0/" />
        <dc:publisher>
          <cc:Agent
             rdf:about="http://openclipart.org/">
            <dc:title>Openclipart</dc:title>
          </cc:Agent>
        </dc:publisher>
        <dc:title></dc:title>
        <dc:date>2008-05-26T11:57:21</dc:date>
        <dc:description>arrow, arrow, clip art, clipart, icon, icon, image, media, png, public domain, svg, </dc:description>
        <dc:source>http://openclipart.org/detail/17018/icon_arrow_left_green-by-jean_victor_balin</dc:source>
        <dc:creator>
          <cc:Agent>
            <dc:title>jean_victor_balin</dc:title>
          </cc:Agent>
        </dc:creator>
        <dc:subject>
          <rdf:Bag>
            <rdf:li>arrow</rdf:li>
            <rdf:li>clip art</rdf:li>
            <rdf:li>clipart</rdf:li>
            <rdf:li>icon</rdf:li>
            <rdf:li>image</rdf:li>
            <rdf:li>media</rdf:li>
            <rdf:li>png</rdf:li>
            <rdf:li>public domain</rdf:li>
            <rdf:li>svg</rdf:li>
          </rdf:Bag>
        </dc:subject>
      </cc:Work>
      <cc:License
         rdf:about="http://creativecommons.org/publicdomain/zero/1.0/">
        <cc:permits
           rdf:resource="http://creativecommons.org/ns#Reproduction" />
        <cc:permits
           rdf:resource="http://creativecommons.org/ns#Distribution" />
        <cc:permits
           rdf:resource="http://creativecommons.org/ns#DerivativeWorks" />
      </cc:License>
    </rdf:RDF>
  </metadata>
</svg>
