<?xml version="1.0" encoding="UTF-8" standalone="no"?>
<svg
   xmlns:dc="http://purl.org/dc/elements/1.1/"
   xmlns:cc="http://creativecommons.org/ns#"
   xmlns:rdf="http://www.w3.org/1999/02/22-rdf-syntax-ns#"
   xmlns:svg="http://www.w3.org/2000/svg"
   xmlns="http://www.w3.org/2000/svg"
   xmlns:sodipodi="http://sodipodi.sourceforge.net/DTD/sodipodi-0.dtd"
   xmlns:inkscape="http://www.inkscape.org/namespaces/inkscape"
   id="svg2046"
   viewBox="0 0 512 512"
   version="1.0"
   sodipodi:docname="cancel.svg"
   width="512"
   height="512"
   inkscape:version="0.92.2 2405546, 2018-03-11">
  <sodipodi:namedview
     pagecolor="#ffffff"
     bordercolor="#666666"
     borderopacity="1"
     objecttolerance="10"
     gridtolerance="10"
     guidetolerance="10"
     inkscape:pageopacity="0"
     inkscape:pageshadow="2"
     inkscape:window-width="1920"
     inkscape:window-height="1032"
     id="namedview19"
     showgrid="false"
     inkscape:zoom="0.52276549"
     inkscape:cx="-280.76733"
     inkscape:cy="329.93406"
     inkscape:window-x="0"
     inkscape:window-y="24"
     inkscape:window-maximized="1"
     inkscape:current-layer="svg2046" />
  <defs
     id="defs2048">
    <linearGradient
       id="linearGradient2109"
       x1="264.57999"
       gradientUnits="userSpaceOnUse"
       y1="296.37"
       gradientTransform="matrix(0.31227,0,0,0.32049,127.55,434.38)"
       x2="380.67999"
       y2="553.73999">
      <stop
         id="stop5192"
         stop-color="#fff"
         offset="0" />
      <stop
         id="stop5194"
         stop-color="#f00"
         offset="1" />
    </linearGradient>
    <linearGradient
       id="linearGradient2107"
       x1="249.48"
       gradientUnits="userSpaceOnUse"
       y1="262.87"
       gradientTransform="matrix(-0.30163,0.080822,-0.082949,-0.30957,402.86,730.11)"
       x2="272.03"
       y2="427.54001">
      <stop
         id="stop5199"
         stop-color="#fff"
         offset="0" />
      <stop
         id="stop5201"
         stop-color="#f00"
         offset="1" />
    </linearGradient>
  </defs>
  <g
     id="layer1"
     transform="matrix(3.4902437,0,0,3.4902437,-1107.5168,-1522.9684)">
    <g
       id="g2100"
       transform="matrix(0.9,0,0,0.9,170.44,-31.113)">
      <path
         id="path2174"
         d="m 634.29,559.51 a 250,250 0 1 1 -500,0 250,250 0 1 1 500,0 z"
         transform="matrix(0.30686,0,0,0.30686,127.62,429)"
         inkscape:connector-curvature="0"
         style="fill:#ff0000;fill-rule:evenodd;stroke:#cb0000;stroke-width:20.12800026" />
      <path
         id="path2540"
         d="m 264.19,668.93 c 19.05,-5.1 34.17,-17.66 43.23,-33.82 14.71,-34.82 -40.17,46.7 -85.49,31.89 13.17,4.83 27.81,5.8 42.26,1.93 z"
         inkscape:connector-curvature="0"
         style="fill:url(#linearGradient2107);fill-rule:evenodd" />
      <path
         id="path2197"
         d="m 245.66,529.36 c -39.44,0 -71.44,32.85 -71.44,73.32 0,5.48 0.6,10.81 1.71,15.94 39.21,-75.47 81.45,-27.96 135.91,-43.55 -10.64,-26.8 -36.26,-45.71 -66.18,-45.71 z"
         inkscape:connector-curvature="0"
         style="fill:url(#linearGradient2109);fill-rule:evenodd" />
      <path
         id="text2705"
         d="m 267.42,640.04 -21.68,-21.68 -21.88,21.88 -17.87,-17.87 21.88,-21.89 -21.68,-21.68 17.4,-17.4 21.68,21.68 21.95,-21.95 17.88,17.88 -21.96,21.95 21.68,21.68 -17.4,17.4"
         inkscape:connector-curvature="0"
         style="opacity:0.73528999;fill:#ffffff" />
      <path
         id="text2713"
         d="m 267.3,637.01 -21.59,-21.59 -21.76,21.76 -14.9,-14.91 21.76,-21.75 -21.59,-21.59 14.51,-14.51 21.58,21.59 21.82,-21.81 14.9,14.9 -21.81,21.81 21.58,21.59 -14.5,14.51"
         inkscape:connector-curvature="0"
         style="fill:#ffffff" />
    </g>
  </g>
  <metadata
     id="metadata16">
    <rdf:RDF>
      <cc:Work>
        <dc:format>image/svg+xml</dc:format>
        <dc:type
           rdf:resource="http://purl.org/dc/dcmitype/StillImage" />
        <cc:license
           rdf:resource="http://creativecommons.org/publicdomain/zero/1.0/" />
        <dc:publisher>
          <cc:Agent
             rdf:about="http://openclipart.org/">
            <dc:title>Openclipart</dc:title>
          </cc:Agent>
        </dc:publisher>
        <dc:title>red round error warning icon</dc:title>
        <dc:date>2006-09-07T17:35:55</dc:date>
        <dc:description>a red round error or warning icon</dc:description>
        <dc:source>http://openclipart.org/detail/109/red-round-error-warning-icon-by-molumen</dc:source>
        <dc:creator>
          <cc:Agent>
            <dc:title>molumen</dc:title>
          </cc:Agent>
        </dc:creator>
        <dc:subject>
          <rdf:Bag>
            <rdf:li>button</rdf:li>
            <rdf:li>cancel</rdf:li>
            <rdf:li>clip art</rdf:li>
            <rdf:li>clipart</rdf:li>
            <rdf:li>delete</rdf:li>
            <rdf:li>error</rdf:li>
            <rdf:li>glossy</rdf:li>
            <rdf:li>icon</rdf:li>
            <rdf:li>negative</rdf:li>
            <rdf:li>red</rdf:li>
            <rdf:li>round</rdf:li>
            <rdf:li>stop</rdf:li>
            <rdf:li>warning</rdf:li>
          </rdf:Bag>
        </dc:subject>
      </cc:Work>
      <cc:License
         rdf:about="http://creativecommons.org/publicdomain/zero/1.0/">
        <cc:permits
           rdf:resource="http://creativecommons.org/ns#Reproduction" />
        <cc:permits
           rdf:resource="http://creativecommons.org/ns#Distribution" />
        <cc:permits
           rdf:resource="http://creativecommons.org/ns#DerivativeWorks" />
      </cc:License>
    </rdf:RDF>
  </metadata>
</svg>
