<?xml version="1.0" encoding="UTF-8" standalone="no"?>
<!-- Generator: Adobe Illustrator 19.0.0, SVG Export Plug-In . SVG Version: 6.00 Build 0)  -->

<svg
   xmlns:dc="http://purl.org/dc/elements/1.1/"
   xmlns:cc="http://creativecommons.org/ns#"
   xmlns:rdf="http://www.w3.org/1999/02/22-rdf-syntax-ns#"
   xmlns:svg="http://www.w3.org/2000/svg"
   xmlns="http://www.w3.org/2000/svg"
   xmlns:sodipodi="http://sodipodi.sourceforge.net/DTD/sodipodi-0.dtd"
   xmlns:inkscape="http://www.inkscape.org/namespaces/inkscape"
   version="1.1"
   id="Layer_1"
   x="0px"
   y="0px"
   viewBox="0 0 512 512"
   xml:space="preserve"
   sodipodi:docname="distance.svg"
   width="512"
   height="512"
   inkscape:version="0.92.2 2405546, 2018-03-11"><metadata
   id="metadata73"><rdf:RDF><cc:Work
       rdf:about=""><dc:format>image/svg+xml</dc:format><dc:type
         rdf:resource="http://purl.org/dc/dcmitype/StillImage" /><dc:title></dc:title></cc:Work></rdf:RDF></metadata><defs
   id="defs71">
	
	
	
	
	

		
		
		
		
		
		
		
		
	</defs><sodipodi:namedview
   pagecolor="#ffffff"
   bordercolor="#666666"
   borderopacity="1"
   objecttolerance="10"
   gridtolerance="10"
   guidetolerance="10"
   inkscape:pageopacity="0"
   inkscape:pageshadow="2"
   inkscape:window-width="1920"
   inkscape:window-height="1032"
   id="namedview69"
   showgrid="false"
   inkscape:zoom="0.6648494"
   inkscape:cx="-38.8206"
   inkscape:cy="526.02946"
   inkscape:window-x="0"
   inkscape:window-y="24"
   inkscape:window-maximized="1"
   inkscape:current-layer="Layer_1" />

<g
   id="g38"
   transform="translate(0,10)">
</g>
<g
   id="g40"
   transform="translate(0,10)">
</g>
<g
   id="g42"
   transform="translate(0,10)">
</g>
<g
   id="g44"
   transform="translate(0,10)">
</g>
<g
   id="g46"
   transform="translate(0,10)">
</g>
<g
   id="g48"
   transform="translate(0,10)">
</g>
<g
   id="g50"
   transform="translate(0,10)">
</g>
<g
   id="g52"
   transform="translate(0,10)">
</g>
<g
   id="g54"
   transform="translate(0,10)">
</g>
<g
   id="g56"
   transform="translate(0,10)">
</g>
<g
   id="g58"
   transform="translate(0,10)">
</g>
<g
   id="g60"
   transform="translate(0,10)">
</g>
<g
   id="g62"
   transform="translate(0,10)">
</g>
<g
   id="g64"
   transform="translate(0,10)">
</g>
<g
   id="g66"
   transform="translate(0,10)">
</g>
<g
   id="g929"
   transform="matrix(0.99663551,0,0,0.99663551,6,-0.4292742)"><g
     style="fill:#ccff00"
     transform="translate(0,10)"
     id="g6">
		<path
   style="fill:#ccff00"
   d="m 224.507,162.393 c 0,59.234 -107.254,199.276 -107.254,199.276 C 117.253,361.669 10,221.628 10,162.393 10,103.158 58.019,55.14 117.253,55.14 c 59.234,0 107.254,48.019 107.254,107.253 z"
   id="path2"
   inkscape:connector-curvature="0" />
		<circle
   style="fill:#f9f9f9"
   cx="117.253"
   cy="162.39301"
   r="60.290001"
   id="circle4" />
	</g><g
     style="fill:#ff2a2a"
     transform="translate(0,10)"
     id="g12">
		<path
   style="fill:#ff2a2a"
   d="m 492,162.393 c 0,59.234 -107.254,199.276 -107.254,199.276 0,0 -107.253,-140.041 -107.253,-199.276 0,-59.235 48.019,-107.253 107.253,-107.253 C 443.98,55.14 492,103.159 492,162.393 Z"
   id="path8"
   inkscape:connector-curvature="0" />
		<circle
   style="fill:#f9f9f9"
   cx="384.746"
   cy="162.39301"
   r="60.290001"
   id="circle10" />
	</g><circle
     style="fill:#ccff00"
     cx="117.15"
     cy="432.85999"
     r="24"
     id="circle14" /><circle
     style="fill:#ff2a2a"
     cx="384.14999"
     cy="432.85999"
     r="24"
     id="circle16" /><path
     inkscape:connector-curvature="0"
     id="path18"
     d="m 117.253,381.669 c 3.112,0 6.047,-1.449 7.939,-3.919 0.271,-0.354 27.396,-35.857 54.14,-78.162 36.611,-57.913 55.174,-100.707 55.174,-127.194 0,-64.654 -52.6,-117.253 -117.253,-117.253 C 52.6,55.141 0,107.74 0,172.393 c 0,26.487 18.563,69.282 55.174,127.194 26.744,42.305 53.869,77.808 54.14,78.162 1.893,2.471 4.827,3.92 7.939,3.92 z M 20,172.393 c 0,-53.625 43.628,-97.253 97.253,-97.253 53.625,0 97.253,43.628 97.253,97.253 0,42.092 -64.164,137.76 -97.254,182.618 C 84.16,310.158 20,214.504 20,172.393 Z" /><path
     inkscape:connector-curvature="0"
     id="path20"
     d="m 187.544,172.393 c 0,-38.758 -31.532,-70.291 -70.291,-70.291 -38.759,0 -70.291,31.532 -70.291,70.291 0,38.759 31.532,70.291 70.291,70.291 38.759,0 70.291,-31.532 70.291,-70.291 z m -120.581,0 c 0,-27.73 22.56,-50.291 50.291,-50.291 27.731,0 50.291,22.56 50.291,50.291 0,27.731 -22.56,50.291 -50.291,50.291 -27.731,0 -50.291,-22.56 -50.291,-50.291 z" /><path
     inkscape:connector-curvature="0"
     id="path24"
     d="m 384.746,55.14 c -64.654,0 -117.253,52.6 -117.253,117.253 0,26.487 18.563,69.282 55.174,127.194 26.744,42.305 53.869,77.808 54.14,78.162 1.892,2.471 4.827,3.919 7.939,3.919 3.112,0 6.047,-1.449 7.939,-3.919 0.271,-0.354 27.396,-35.857 54.141,-78.162 C 483.437,241.675 502,198.881 502,172.393 502,107.74 449.4,55.14 384.746,55.14 Z m 0,299.872 c -33.093,-44.854 -97.253,-140.508 -97.253,-182.619 0,-53.625 43.628,-97.253 97.253,-97.253 53.626,0 97.254,43.628 97.254,97.253 0,42.092 -64.164,137.761 -97.254,182.619 z" /><path
     inkscape:connector-curvature="0"
     id="path26"
     d="m 384.746,102.103 c -38.758,0 -70.29,31.532 -70.29,70.291 0,38.759 31.532,70.291 70.29,70.291 38.758,0 70.291,-31.532 70.291,-70.291 0,-38.759 -31.533,-70.291 -70.291,-70.291 z m 0,120.581 c -27.73,0 -50.29,-22.56 -50.29,-50.291 0,-27.731 22.56,-50.291 50.29,-50.291 27.73,0 50.291,22.56 50.291,50.291 0,27.731 -22.56,50.291 -50.291,50.291 z" /><path
     inkscape:connector-curvature="0"
     id="path28"
     d="m 384.15,398.86 c -18.748,0 -34,15.252 -34,34 0,18.748 15.252,34 34,34 18.748,0 34,-15.252 34,-34 0,-18.748 -15.253,-34 -34,-34 z m 0,48 c -7.72,0 -14,-6.28 -14,-14 0,-7.72 6.28,-14 14,-14 7.72,0 14,6.28 14,14 0,7.72 -6.28,14 -14,14 z" /><path
     inkscape:connector-curvature="0"
     id="path30"
     d="m 329.15,422.86 h -27 c -5.523,0 -10,4.477 -10,10 0,5.523 4.477,10 10,10 h 27 c 5.523,0 10,-4.477 10,-10 0,-5.523 -4.477,-10 -10,-10 z" /><path
     sodipodi:nodetypes="asssasssss"
     inkscape:connector-curvature="0"
     id="path32"
     d="m 117.15,398.86 c -16.02505,-0.29422 -34,15.252 -34,34 0,18.748 15.252,34 34,34 15.268,0 32.32456,-17.58147 32.497,-33.0246 0.22807,-20.42479 -16.58556,-34.68327 -32.497,-34.9754 z m 0,48 c -7.72,0 -14,-6.28 -14,-14 0,-7.72 6.28,-14 14,-14 7.72,0 14,6.28 14,14 0,7.72 -6.28,14 -14,14 z" /><path
     d="m 199.15,422.86 h -27 c -5.523,0 -10,4.477 -10,10 0,5.523 4.477,10 10,10 h 27 c 5.523,0 10,-4.477 10,-10 0,-5.523 -4.477,-10 -10,-10 z"
     id="path908"
     inkscape:connector-curvature="0" /><path
     inkscape:connector-curvature="0"
     id="path910"
     d="m 265.15,422.86 h -27 c -5.523,0 -10,4.477 -10,10 0,5.523 4.477,10 10,10 h 27 c 5.523,0 10,-4.477 10,-10 0,-5.523 -4.477,-10 -10,-10 z" /></g></svg>