<?xml version="1.0" encoding="UTF-8" standalone="no"?>
<!-- Generator: Adobe Illustrator 16.0.0, SVG Export Plug-In . SVG Version: 6.00 Build 0)  -->

<svg
   xmlns:dc="http://purl.org/dc/elements/1.1/"
   xmlns:cc="http://creativecommons.org/ns#"
   xmlns:rdf="http://www.w3.org/1999/02/22-rdf-syntax-ns#"
   xmlns:svg="http://www.w3.org/2000/svg"
   xmlns="http://www.w3.org/2000/svg"
   xmlns:sodipodi="http://sodipodi.sourceforge.net/DTD/sodipodi-0.dtd"
   xmlns:inkscape="http://www.inkscape.org/namespaces/inkscape"
   version="1.1"
   id="onion"
   x="0px"
   y="0px"
   width="512"
   height="512"
   viewBox="0 0 512 512"
   enable-background="new 0 0 259 316"
   xml:space="preserve"
   inkscape:version="0.92.2 2405546, 2018-03-11"
   sodipodi:docname="drink.svg"><metadata
     id="metadata30"><rdf:RDF><cc:Work
         rdf:about=""><dc:format>image/svg+xml</dc:format><dc:type
           rdf:resource="http://purl.org/dc/dcmitype/StillImage" /><dc:title></dc:title></cc:Work></rdf:RDF></metadata><defs
     id="defs25" /><sodipodi:namedview
     pagecolor="#ffffff"
     bordercolor="#666666"
     borderopacity="1"
     objecttolerance="10"
     gridtolerance="10"
     guidetolerance="10"
     inkscape:pageopacity="0"
     inkscape:pageshadow="2"
     inkscape:window-width="1920"
     inkscape:window-height="1032"
     id="namedview23"
     showgrid="false"
     inkscape:zoom="0.79325745"
     inkscape:cx="-40.15961"
     inkscape:cy="393.62509"
     inkscape:window-x="0"
     inkscape:window-y="24"
     inkscape:window-maximized="1"
     inkscape:current-layer="onion"
     showguides="true"
     inkscape:guide-bbox="true" /><path
     style="fill:#333333;fill-opacity:1;stroke-width:2.01703215;stroke:#808080"
     d="M 78.465284,5.2403407 64.535156,19.824431 V 500.33504 l 4.447713,4.44377 6.070795,6.0708 H 221.16636 367.27907 l 6.06685,-6.0708 c 5.58698,-5.58698 6.07078,-7.92337 6.07078,-29.41636 v -23.3495 l 30.29094,-0.89428 c 25.98156,-0.76782 32.04072,-1.75397 42.59012,-6.92568 15.67222,-7.68313 30.79377,-22.79488 38.52057,-38.49693 l 6.0511,-12.29918 V 278.41817 163.43947 l -6.0511,-12.29917 c -7.7268,-15.70205 -22.84835,-30.81777 -38.52057,-38.50089 -10.5494,-5.17171 -16.60856,-6.15394 -42.59012,-6.92173 l -30.29094,-0.8982 v -9.119991 c 0,-3.1762 0.0742,-5.261428 0.66579,-6.772024 V 64.423672 c -0.16701,-0.234177 -0.44363,-21.232893 -0.717,-45.032601 L 364.89171,5.2403407 Z"
     id="path3479"
     inkscape:connector-curvature="0" /><path
     inkscape:connector-curvature="0"
     style="fill:#d5e5ff;fill-opacity:1;stroke-width:2.01703215"
     d="M 359.63505,471.28682 V 451.50536 H 221.1648 82.694627 v 19.78146 19.78145 H 221.1648 359.63505 Z"
     id="path3477" /><path
     style="fill:#ffcc00;fill-opacity:1;stroke-width:2.01703215"
     d="m 300.79316,283.09875 c 0,-104.64739 -0.82656,-150.62762 -2.79341,-155.39263 -6.25714,-15.15868 -27.71894,-15.15868 -33.97606,0 -1.96687,4.76501 -2.79345,50.74524 -2.79345,155.39263 V 431.7239 h 19.78146 19.78146 z"
     id="path3469"
     inkscape:connector-curvature="0" /><path
     style="fill:#ffcc00;fill-opacity:1;stroke-width:2.01703215"
     d="m 359.635,283.09875 c 0,-104.64739 -0.82657,-150.62762 -2.79344,-155.39263 -6.25712,-15.15868 -27.71895,-15.15868 -33.97606,0 -1.96685,4.76501 -2.79345,50.74524 -2.79345,155.39263 V 431.7239 h 19.7815 19.78145 z"
     id="path3467"
     inkscape:connector-curvature="0" /><path
     inkscape:connector-curvature="0"
     style="fill:#cccccc;fill-opacity:1;stroke-width:2.01703215"
     d="m 443.70623,425.77547 c 12.01911,-6.25911 21.76077,-15.7884 28.04411,-27.4328 5.23952,-9.70991 5.33713,-11.90213 5.33713,-119.92507 0,-108.02298 -0.0978,-110.21519 -5.33713,-119.9251 -6.28334,-11.64437 -16.025,-21.17367 -28.04411,-27.4328 -6.41428,-3.34033 -15.85476,-4.76252 -36.47205,-5.49454 l -27.81768,-0.98762 v 9.93884 9.93885 l 27.027,0.83689 c 29.20346,0.90437 34.70782,3.05271 45.76432,17.86166 4.96777,6.65381 5.09815,9.60158 5.09815,115.26382 0,105.66221 -0.1303,108.60998 -5.09815,115.26379 -11.0565,14.80895 -16.56086,16.95729 -45.76432,17.86166 l -27.027,0.83693 v 9.9388 9.93883 l 27.81768,-0.9876 c 20.61729,-0.73204 30.05777,-2.15423 36.47205,-5.49454 z"
     id="path3465" /><path
     inkscape:connector-curvature="0"
     style="fill:#ffffff;fill-opacity:1;stroke-width:2.01703215"
     d="m 432.24197,385.64208 6.5189,-6.5189 V 278.4176 177.71199 l -6.5189,-6.5189 c -6.11512,-6.11514 -7.95286,-6.51887 -29.67216,-6.51887 H 379.4165 V 278.4176 392.16099 h 23.15331 c 21.7193,0 23.55704,-0.40377 29.67216,-6.51891 z"
     id="path3463" /><path
     id="path3481"
     d="m 241.95133,283.09875 c 0,-104.64739 -0.82658,-150.62762 -2.79345,-155.39263 -6.25712,-15.15868 -27.71896,-15.15868 -33.97608,0 -1.96685,4.76501 -2.79345,50.74524 -2.79345,155.39263 V 431.7239 h 19.78152 19.78146 z"
     style="fill:#ffcc00;fill-opacity:1;stroke-width:2.01703215"
     inkscape:connector-curvature="0" /><path
     inkscape:connector-curvature="0"
     style="fill:#ffcc00;fill-opacity:1;stroke-width:2.01703215"
     d="m 183.10945,283.09875 c 0,-104.64739 -0.82659,-150.62762 -2.79344,-155.39263 -6.25713,-15.15868 -27.71894,-15.15868 -33.97607,0 -1.96686,4.76501 -2.79344,50.74524 -2.79344,155.39263 V 431.7239 h 19.7815 19.78145 z"
     id="path3483" /><path
     id="path3485"
     d="m 124.26759,283.09875 c 0,-104.64739 -0.82658,-150.62762 -2.79345,-155.39263 -6.25712,-15.15868 -27.718936,-15.15868 -33.976056,0 -1.966861,4.76501 -2.793448,50.74524 -2.793448,155.39263 V 431.7239 h 19.781494 19.78146 z"
     style="fill:#ffcc00;fill-opacity:1;stroke-width:2.01703215"
     inkscape:connector-curvature="0" /><path
     id="path3511"
     d="M 359.63505,471.28683 V 451.50536 H 221.1648 82.694627 v 19.78147 19.78144 H 221.1648 359.63505 Z"
     style="fill:#ffcc00;fill-opacity:1;stroke-width:2.48438525"
     inkscape:connector-curvature="0" /><path
     inkscape:connector-curvature="0"
     id="path4313"
     d="m 359.635,286.8398 c 0,-102.01327 -0.24432,-146.83614 -0.82571,-151.4812 -1.84952,-14.77712 -8.19338,-14.77712 -10.04292,0 -0.58137,4.64506 -0.82571,49.46793 -0.82571,151.4812 v 144.8841 h 5.84717 5.84717 z"
     style="fill:#ffeeaa;fill-opacity:1;stroke-width:2.01703215" /><path
     style="fill:#ffeeaa;fill-opacity:1;stroke-width:2.01703215"
     d="m 300.02303,286.8398 c 0,-102.01327 -0.24432,-146.83614 -0.82571,-151.4812 -1.84952,-14.77712 -8.19338,-14.77712 -10.04292,0 -0.58137,4.64506 -0.82571,49.46793 -0.82571,151.4812 v 144.8841 h 5.84717 5.84717 z"
     id="path4315"
     inkscape:connector-curvature="0" /><path
     inkscape:connector-curvature="0"
     id="path4317"
     d="m 241.95133,283.09875 c 0,-102.01327 -0.24432,-146.83614 -0.82571,-151.4812 -1.84952,-14.77712 -8.19339,-14.77712 -10.04293,0 -0.58137,4.64506 -0.82571,49.46793 -0.82571,151.4812 v 144.8841 h 5.84717 5.84718 z"
     style="fill:#ffeeaa;fill-opacity:1;stroke-width:2.01703215" /><path
     style="fill:#ffeeaa;fill-opacity:1;stroke-width:2.01703215"
     d="m 182.13618,286.8398 c 0,-102.01327 -0.24433,-146.83614 -0.82571,-151.4812 -1.84952,-14.77712 -8.19339,-14.77712 -10.04293,0 -0.58137,4.64506 -0.82571,49.46793 -0.82571,151.4812 v 144.8841 h 5.84717 5.84718 z"
     id="path4319"
     inkscape:connector-curvature="0" /><path
     inkscape:connector-curvature="0"
     id="path4321"
     d="m 122.5242,286.8398 c 0,-102.01327 -0.24432,-146.83614 -0.82571,-151.4812 -1.84952,-14.77712 -8.19339,-14.77712 -10.04292,0 -0.58137,4.64506 -0.82572,49.46793 -0.82572,151.4812 v 144.8841 h 5.84718 5.84717 z"
     style="fill:#ffeeaa;fill-opacity:1;stroke-width:2.01703215" /><path
     id="path4174"
     d="M 359.63505,63.453742 V 23.894559 H 221.1648 82.694627 V 63.453742 103.01292 H 221.1648 359.63505 Z"
     style="fill:#ffd42a;fill-opacity:1;stroke-width:2.01703215"
     inkscape:connector-curvature="0" /><path
     style="fill:#333333;fill-opacity:1;stroke-width:2.01703215;stroke:#333333"
     d="m 80.733295,114.86505 h 54.699975 c -0.56495,-6.74782 -1.22602,-11.29333 -2.04809,-12.39192 -9.32087,-12.456225 -41.288793,-12.456225 -50.609658,0 -0.822076,1.09859 -1.477272,5.6441 -2.042227,12.39192 z"
     id="path4200"
     inkscape:connector-curvature="0" /><path
     inkscape:connector-curvature="0"
     id="path4213"
     d="m 137.21019,114.86505 h 54.69998 c -0.56495,-6.74782 -1.22602,-11.29333 -2.0481,-12.39192 -9.32086,-12.456225 -41.28879,-12.456225 -50.60965,0 -0.82208,1.09859 -1.47727,5.6441 -2.04223,12.39192 z"
     style="fill:#333333;fill-opacity:1;stroke-width:2.01703215;stroke:#333333" /><path
     style="fill:#333333;fill-opacity:1;stroke-width:2.01703215;stroke:#333333"
     d="m 193.68709,114.86505 h 54.69998 c -0.56495,-6.74782 -1.22603,-11.29333 -2.04809,-12.39192 -9.32087,-12.456225 -41.28879,-12.456225 -50.60966,0 -0.82208,1.09859 -1.47727,5.6441 -2.04223,12.39192 z"
     id="path4215"
     inkscape:connector-curvature="0" /><path
     inkscape:connector-curvature="0"
     id="path4217"
     d="m 250.164,114.86505 h 54.69997 c -0.56495,-6.74782 -1.22603,-11.29333 -2.04809,-12.39192 -9.32087,-12.456225 -41.28879,-12.456225 -50.60966,0 -0.82208,1.09859 -1.47727,5.6441 -2.04222,12.39192 z"
     style="fill:#333333;fill-opacity:1;stroke-width:2.01703215;stroke:#333333" /><path
     style="fill:#333333;fill-opacity:1;stroke-width:2.01703215;stroke:#333333"
     d="m 306.6409,114.86505 h 54.69997 c -0.56495,-6.74782 -1.22603,-11.29333 -2.04809,-12.39192 -9.32087,-12.456225 -41.28879,-12.456225 -50.60966,0 -0.82208,1.09859 -1.47727,5.6441 -2.04222,12.39192 z"
     id="path4219"
     inkscape:connector-curvature="0" /><path
     inkscape:connector-curvature="0"
     style="fill:#cccccc;fill-opacity:1;stroke-width:2.48438525"
     d="M 359.63505,43.676029 V 23.894559 H 221.1648 82.694631 v 19.78147 19.78144 H 221.1648 359.63505 Z"
     id="path839" /></svg>