<?xml version="1.0" encoding="UTF-8" standalone="no"?>
<svg
   xmlns:dc="http://purl.org/dc/elements/1.1/"
   xmlns:cc="http://creativecommons.org/ns#"
   xmlns:rdf="http://www.w3.org/1999/02/22-rdf-syntax-ns#"
   xmlns:svg="http://www.w3.org/2000/svg"
   xmlns="http://www.w3.org/2000/svg"
   xmlns:sodipodi="http://sodipodi.sourceforge.net/DTD/sodipodi-0.dtd"
   xmlns:inkscape="http://www.inkscape.org/namespaces/inkscape"
   id="svg2845"
   viewBox="0 0 512 512"
   version="1.1"
   sodipodi:docname="export.svg"
   width="512"
   height="512"
   inkscape:version="0.92.2 2405546, 2018-03-11">
  <defs
     id="defs1787" />
  <sodipodi:namedview
     pagecolor="#ffffff"
     bordercolor="#666666"
     borderopacity="1"
     objecttolerance="10"
     gridtolerance="10"
     guidetolerance="10"
     inkscape:pageopacity="0"
     inkscape:pageshadow="2"
     inkscape:window-width="1920"
     inkscape:window-height="1032"
     id="namedview1785"
     showgrid="false"
     inkscape:zoom="0.61458335"
     inkscape:cx="-120.90995"
     inkscape:cy="299.77335"
     inkscape:window-x="0"
     inkscape:window-y="24"
     inkscape:window-maximized="1"
     inkscape:current-layer="svg2845" />
  <path
     style="fill:#f9f9f9;fill-opacity:0.66666667;stroke-width:13.5880127"
     inkscape:connector-curvature="0"
     d="m 90.109908,439.81508 c 0,37.63879 30.301272,67.94006 67.940062,67.94006 h 219.52794 c 37.6388,0 67.94007,-30.30127 67.94007,-67.94006 V 136.20451 c 0,-37.638792 -30.30127,-67.940061 -67.94007,-67.940061 h -27.59997 c -60.74966,0.426742 -87.34719,-0.100835 -155.4163,0 h -36.51778 c -37.6388,0 -67.940066,30.301269 -67.940066,67.940061 v 303.61057 z"
     id="path816"
     sodipodi:nodetypes="csssssccsscc" />
  <path
     id="path2823"
     d="m 149.80624,183.50288 c 0.54412,-6.46075 10.08735,-18.53737 29.75749,-40.96401 86.03866,-98.093531 92.13164,-97.055982 99.31781,-97.000332 l 3.4787,0.772906 c 6.56537,3.676064 9.12894,7.968228 37.87239,53.330515 8.0172,12.653401 24.89128,38.717031 37.48532,57.967951 31.29837,47.84102 30.9855,50.24013 -5.79617,47.53434 -21.76256,-1.60134 -23.37763,-1.51897 -27.82462,2.31871 -4.04261,3.48884 -5.01956,6.85228 -7.34323,22.41428 -6.35142,42.52096 0.4081,88.99549 18.93683,130.23157 7.73276,17.21417 10.56222,22.54165 23.18717,40.96402 6.0497,8.82968 7.45824,12.1089 6.95616,18.93558 -0.4452,6.17806 -1.79685,8.40006 -4.63744,9.66133 -14.73097,6.542 -45.3195,-15.13412 -82.31511,-58.35503 -37.26149,-43.52883 -60.39302,-92.79695 -70.72028,-151.48958 -4.41855,-25.10769 -4.56695,-25.38594 -32.46205,-27.43877 -17.68657,-1.30133 -26.43339,-2.42768 -25.89297,-8.88843 z"
     inkscape:connector-curvature="0"
     style="fill:#88aa00;fill-opacity:1;stroke-width:13.5880127" />
  <path
     id="path2825"
     d="m 90.109908,439.81508 c 0,37.63879 30.301272,67.94006 67.940062,67.94006 h 219.52794 c 37.6388,0 67.94007,-30.30127 67.94007,-67.94006 V 136.20451 c 0,-37.638792 -30.30127,-67.940061 -67.94007,-67.940061 h -27.59997 c 6.3937,9.917347 11.74181,18.63596 18.68352,29.298474 27.02791,8.961567 46.70879,34.008077 46.70879,64.119117 v 228.87649 c 0,37.6388 -30.30127,67.94006 -67.94006,67.94006 H 188.19226 c -37.63879,0 -67.94006,-30.30126 -67.94006,-67.94006 V 161.68204 c 0,-30.7225 20.5179,-56.08588 48.40729,-64.543063 1.06639,-1.223193 1.84892,-2.116062 2.97238,-3.397004 9.71217,-11.072871 14.89246,-16.480901 22.92977,-25.477524 h -36.51778 c -37.6388,0 -67.940066,30.301269 -67.940066,67.940061 v 303.61057 z"
     inkscape:connector-curvature="0"
     style="fill:#333333;fill-opacity:1;stroke-width:13.5880127;stroke:#333333" />
  <metadata
     id="metadata1782">
    <rdf:RDF>
      <cc:Work>
        <dc:format>image/svg+xml</dc:format>
        <dc:type
           rdf:resource="http://purl.org/dc/dcmitype/StillImage" />
        <cc:license
           rdf:resource="http://creativecommons.org/publicdomain/zero/1.0/" />
        <dc:publisher>
          <cc:Agent
             rdf:about="http://openclipart.org/">
            <dc:title>Openclipart</dc:title>
          </cc:Agent>
        </dc:publisher>
        <dc:title>export icon</dc:title>
        <dc:date>2013-07-15T19:09:27</dc:date>
        <dc:description>An export icon</dc:description>
        <dc:source>https://openclipart.org/detail/180890/export-icon-by-dibargatin-180890</dc:source>
        <dc:creator>
          <cc:Agent>
            <dc:title>dibargatin</dc:title>
          </cc:Agent>
        </dc:creator>
        <dc:subject>
          <rdf:Bag>
            <rdf:li>android</rdf:li>
            <rdf:li>export</rdf:li>
            <rdf:li>icon</rdf:li>
          </rdf:Bag>
        </dc:subject>
      </cc:Work>
      <cc:License
         rdf:about="http://creativecommons.org/publicdomain/zero/1.0/">
        <cc:permits
           rdf:resource="http://creativecommons.org/ns#Reproduction" />
        <cc:permits
           rdf:resource="http://creativecommons.org/ns#Distribution" />
        <cc:permits
           rdf:resource="http://creativecommons.org/ns#DerivativeWorks" />
      </cc:License>
    </rdf:RDF>
  </metadata>
</svg>
