<?xml version="1.0" encoding="UTF-8" standalone="no"?>
<svg
   xmlns:dc="http://purl.org/dc/elements/1.1/"
   xmlns:cc="http://creativecommons.org/ns#"
   xmlns:rdf="http://www.w3.org/1999/02/22-rdf-syntax-ns#"
   xmlns:svg="http://www.w3.org/2000/svg"
   xmlns="http://www.w3.org/2000/svg"
   xmlns:sodipodi="http://sodipodi.sourceforge.net/DTD/sodipodi-0.dtd"
   xmlns:inkscape="http://www.inkscape.org/namespaces/inkscape"
   height="512"
   width="512"
   version="1.1"
   viewBox="0 0 384.00326 383.99999"
   id="svg3847"
   sodipodi:docname="first_aid.svg"
   inkscape:version="0.92.3 (2405546, 2018-03-11)">
  <metadata
     id="metadata3851">
    <rdf:RDF>
      <cc:Work
         rdf:about="">
        <dc:format>image/svg+xml</dc:format>
        <dc:type
           rdf:resource="http://purl.org/dc/dcmitype/StillImage" />
        <dc:title></dc:title>
      </cc:Work>
    </rdf:RDF>
  </metadata>
  <sodipodi:namedview
     pagecolor="#ffffff"
     bordercolor="#666666"
     borderopacity="1"
     objecttolerance="10"
     gridtolerance="10"
     guidetolerance="10"
     inkscape:pageopacity="0"
     inkscape:pageshadow="2"
     inkscape:window-width="1920"
     inkscape:window-height="1025"
     id="namedview3849"
     showgrid="false"
     units="px"
     inkscape:zoom="0.9938096"
     inkscape:cx="41.566189"
     inkscape:cy="321.041"
     inkscape:window-x="0"
     inkscape:window-y="27"
     inkscape:window-maximized="1"
     inkscape:current-layer="layer2"
     showguides="true"
     inkscape:guide-bbox="true" />
  <defs
     id="defs3835">
    <filter
       id="b"
       style="color-interpolation-filters:sRGB"
       height="1.1665"
       width="1.1267999"
       y="-0.083264999"
       x="-0.063419998">
      <feGaussianBlur
         stdDeviation="61.200602"
         id="feGaussianBlur3822" />
    </filter>
    <clipPath
       id="c"
       clipPathUnits="userSpaceOnUse">
      <path
         d="m 544.11,364.31 c -11.403,0.0689 -22.794,1.0906 -33.859,2.6781 -4.55,2.3 -6.35,8.0191 -3.5,12.339 17.1,90.69 24.71,182.71 33.73,274.26 7.93,97.83 19.07,195.65 29.5,293.41 -4.76,-2.79 1.54,3.2694 0,6.0594 5.13,65.54 7.3609,131.27 11.011,196.9 3.9,38.62 -0.06,77.34 -3.2703,115.9 -4.39,72.19 -10.42,146.2 -14.82,219.07 -11.58,18.61 -6.8903,41.49 -7.8703,62.13 0.37,19.55 -3.4094,42.351 -1.9594,60.061 -8.86,111.2 -16.71,223.17 -30.18,334.17 -3.95,46.7 -13.481,97.809 -15.841,146.44 4.19,-1.64 7.4006,2.9109 9.1906,-1.6391 78.27,-24.43 155.66,-54.31 237.6,-64.25 67.07,-9.35 137.26,-11.011 203.17,-13.691 27.82,0.28 55.48,-2.3006 83.12,-4.9906 57.02,-7.26 108.48,-34.499 164.32,-46.159 52.32,-13.79 130.57,-24.471 176.76,21.259 5.79,5.04 3.0312,9.03 9.0312,10.55 12.15,17.03 22.979,35.271 33.309,53.631 18.95,32.14 34.69,77.479 77.17,83.039 46.45,4.81 90.78,-14.42 131.83,-33.92 54.24,-28.95 111.24,-54.399 168.69,-75.319 35.42,-10.54 71.359,-20.63 108.39,-23.72 59.92,-4.22 126.88,0.52 173.22,43.2 16.36,10.64 24.25,33.87 37.13,49.35 10.28,15.03 37.48,30.599 53.4,30.109 15.5,4.14 35.31,4.2503 52.35,6.0203 97.42,3.34 195.42,-4.76 292.87,3.25 30.11,0.99 57.991,22.24 78.791,38.27 6.55,8.25 16.679,11.69 24.389,18.77 43.16,17.8 82.141,-12.211 122.74,-23.991 2,-1.59 6.7491,2.6503 4.6391,-1.5797 35.66,-9.7 74.64,-10.201 109.42,2.5391 20.87,4.18 39.51,15.681 59.18,22.691 31.68,15.89 64.531,31.049 98.531,41.609 34.49,6.15 69.84,8.4503 104.85,6.3203 6.73,0.72 16.199,-3.8997 13.959,-12.13 -2.11,-30.3 -14.07,-58.771 -23.77,-87.291 -14.12,-37.85 -28.889,-78.75 -46.409,-113.2 -4.54,-12.19 -9.4903,-24.4 -15.87,-35.73 -19.63,-62.15 -40.409,-124.19 -59.309,-186.74 -28.73,-89.44 -56.711,-179.23 -86.711,-268.2 -28.97,-90.52 -56.739,-181.3 -89.259,-270.62 -33.29,-94.42 -72.4,-188.22 -116.57,-277.2 -16.31,-29.51 -30.701,-60.291 -50.391,-87.791 -4.83,-7.55 -13.579,-12.67 -22.459,-13.65 -21.06,-0.82 -42.131,-3.5697 -62.341,-9.5797 0.43,-1.73 -3.0888,0.36064 -4.2188,-0.90936 -99.98,-30.44 -181.23,-99.871 -275.8,-142.01 -34.52,-16.01 -69.241,-33.569 -107.09,-39.989 -76.89,-9.66 -154.79,-1.6312 -232.02,-7.0812 -58.35,0.4 -116.8,-13.07 -170.12,-35.3 -101.24,-44.75 -199.73,-97.379 -304.53,-133.99 -30.899,-10.506 -64.815,-16.681 -97.141,-16.702 -7.4597,-0.005 -14.835,0.3175 -22.069,0.99063 -35.58,2.79 -72.34,6.5203 -104.88,22.22 -12.52,4.51 -24.691,10.67 -38.161,11.73 -29.69,6.79 -59.469,-8.3988 -80.789,-28.119 -20.54,-16.3 -41.041,-35.421 -68.061,-39.881 -6.72,-0.87188 -13.422,-1.245 -20.109,-1.2625 -28.98,-0.076 -57.702,6.536 -86.57,8.2828 -48.33,7.69 -97.92,11.15 -146.42,3 -69.38,-11.41 -128.16,-51.91 -187.78,-86.26 -21.86,-13.17 -47,-17.63 -72.09,-17.48 z"
         id="path3825"
         inkscape:connector-curvature="0"
         style="fill:#feda02" />
    </clipPath>
    <linearGradient
       id="a"
       y2="2297"
       gradientUnits="userSpaceOnUse"
       x2="520.78003"
       gradientTransform="matrix(0.08241203,0,0,0.08241203,98.349356,-4.8712247)"
       y1="2297"
       x1="399.22">
      <stop
         stop-color="#282828"
         offset="0"
         id="stop3828" />
      <stop
         stop-color="#878787"
         offset=".5"
         id="stop3830" />
      <stop
         stop-color="#282828"
         offset="1"
         id="stop3832" />
    </linearGradient>
  </defs>
  <g
     inkscape:groupmode="layer"
     id="layer2"
     inkscape:label="Dessin"
     style="display:inline">
    <rect
       style="fill:#f9f9f9;stroke:#666666;stroke-width:11.95303059;stroke-miterlimit:4;stroke-dasharray:none"
       id="rect4618"
       width="372.05023"
       height="372.05023"
       x="5.9765153"
       y="5.9748731"
       ry="44.902615" />
    <g
       id="g4628"
       transform="translate(-0.81863672,-4.8414357)">
      <rect
         ry="0"
         y="164.41304"
         x="45.303452"
         height="64.856804"
         width="295.03363"
         id="rect4620"
         style="fill:#ff0000;stroke:#ff0000;stroke-width:11.29561424;stroke-miterlimit:4;stroke-dasharray:none" />
      <rect
         transform="rotate(-90)"
         style="fill:#ff0000;stroke:#ff0000;stroke-width:11.29561424;stroke-miterlimit:4;stroke-dasharray:none"
         id="rect4624"
         width="295.03363"
         height="64.856804"
         x="-344.35825"
         y="160.39186"
         ry="0" />
    </g>
  </g>
</svg>
