<?xml version="1.0" encoding="UTF-8" standalone="no"?>
<svg
   xmlns:dc="http://purl.org/dc/elements/1.1/"
   xmlns:cc="http://creativecommons.org/ns#"
   xmlns:rdf="http://www.w3.org/1999/02/22-rdf-syntax-ns#"
   xmlns:svg="http://www.w3.org/2000/svg"
   xmlns="http://www.w3.org/2000/svg"
   xmlns:sodipodi="http://sodipodi.sourceforge.net/DTD/sodipodi-0.dtd"
   xmlns:inkscape="http://www.inkscape.org/namespaces/inkscape"
   height="512"
   width="512"
   version="1.1"
   viewBox="0 0 384.00326 383.99999"
   id="svg3847"
   sodipodi:docname="flag.svg"
   inkscape:version="0.92.2 2405546, 2018-03-11">
  <metadata
     id="metadata3851">
    <rdf:RDF>
      <cc:Work
         rdf:about="">
        <dc:format>image/svg+xml</dc:format>
        <dc:type
           rdf:resource="http://purl.org/dc/dcmitype/StillImage" />
        <dc:title></dc:title>
      </cc:Work>
    </rdf:RDF>
  </metadata>
  <sodipodi:namedview
     pagecolor="#ffffff"
     bordercolor="#666666"
     borderopacity="1"
     objecttolerance="10"
     gridtolerance="10"
     guidetolerance="10"
     inkscape:pageopacity="0"
     inkscape:pageshadow="2"
     inkscape:window-width="1920"
     inkscape:window-height="1032"
     id="namedview3849"
     showgrid="false"
     units="px"
     inkscape:zoom="0.49690481"
     inkscape:cx="105.02948"
     inkscape:cy="412.76382"
     inkscape:window-x="0"
     inkscape:window-y="24"
     inkscape:window-maximized="1"
     inkscape:current-layer="svg3847" />
  <defs
     id="defs3835">
    <filter
       id="b"
       style="color-interpolation-filters:sRGB"
       height="1.1665"
       width="1.1267999"
       y="-0.083264999"
       x="-0.063419998">
      <feGaussianBlur
         stdDeviation="61.200602"
         id="feGaussianBlur3822" />
    </filter>
    <clipPath
       id="c"
       clipPathUnits="userSpaceOnUse">
      <path
         d="m 544.11,364.31 c -11.403,0.0689 -22.794,1.0906 -33.859,2.6781 -4.55,2.3 -6.35,8.0191 -3.5,12.339 17.1,90.69 24.71,182.71 33.73,274.26 7.93,97.83 19.07,195.65 29.5,293.41 -4.76,-2.79 1.54,3.2694 0,6.0594 5.13,65.54 7.3609,131.27 11.011,196.9 3.9,38.62 -0.06,77.34 -3.2703,115.9 -4.39,72.19 -10.42,146.2 -14.82,219.07 -11.58,18.61 -6.8903,41.49 -7.8703,62.13 0.37,19.55 -3.4094,42.351 -1.9594,60.061 -8.86,111.2 -16.71,223.17 -30.18,334.17 -3.95,46.7 -13.481,97.809 -15.841,146.44 4.19,-1.64 7.4006,2.9109 9.1906,-1.6391 78.27,-24.43 155.66,-54.31 237.6,-64.25 67.07,-9.35 137.26,-11.011 203.17,-13.691 27.82,0.28 55.48,-2.3006 83.12,-4.9906 57.02,-7.26 108.48,-34.499 164.32,-46.159 52.32,-13.79 130.57,-24.471 176.76,21.259 5.79,5.04 3.0312,9.03 9.0312,10.55 12.15,17.03 22.979,35.271 33.309,53.631 18.95,32.14 34.69,77.479 77.17,83.039 46.45,4.81 90.78,-14.42 131.83,-33.92 54.24,-28.95 111.24,-54.399 168.69,-75.319 35.42,-10.54 71.359,-20.63 108.39,-23.72 59.92,-4.22 126.88,0.52 173.22,43.2 16.36,10.64 24.25,33.87 37.13,49.35 10.28,15.03 37.48,30.599 53.4,30.109 15.5,4.14 35.31,4.2503 52.35,6.0203 97.42,3.34 195.42,-4.76 292.87,3.25 30.11,0.99 57.991,22.24 78.791,38.27 6.55,8.25 16.679,11.69 24.389,18.77 43.16,17.8 82.141,-12.211 122.74,-23.991 2,-1.59 6.7491,2.6503 4.6391,-1.5797 35.66,-9.7 74.64,-10.201 109.42,2.5391 20.87,4.18 39.51,15.681 59.18,22.691 31.68,15.89 64.531,31.049 98.531,41.609 34.49,6.15 69.84,8.4503 104.85,6.3203 6.73,0.72 16.199,-3.8997 13.959,-12.13 -2.11,-30.3 -14.07,-58.771 -23.77,-87.291 -14.12,-37.85 -28.889,-78.75 -46.409,-113.2 -4.54,-12.19 -9.4903,-24.4 -15.87,-35.73 -19.63,-62.15 -40.409,-124.19 -59.309,-186.74 -28.73,-89.44 -56.711,-179.23 -86.711,-268.2 -28.97,-90.52 -56.739,-181.3 -89.259,-270.62 -33.29,-94.42 -72.4,-188.22 -116.57,-277.2 -16.31,-29.51 -30.701,-60.291 -50.391,-87.791 -4.83,-7.55 -13.579,-12.67 -22.459,-13.65 -21.06,-0.82 -42.131,-3.5697 -62.341,-9.5797 0.43,-1.73 -3.0888,0.36064 -4.2188,-0.90936 -99.98,-30.44 -181.23,-99.871 -275.8,-142.01 -34.52,-16.01 -69.241,-33.569 -107.09,-39.989 -76.89,-9.66 -154.79,-1.6312 -232.02,-7.0812 -58.35,0.4 -116.8,-13.07 -170.12,-35.3 -101.24,-44.75 -199.73,-97.379 -304.53,-133.99 -30.899,-10.506 -64.815,-16.681 -97.141,-16.702 -7.4597,-0.005 -14.835,0.3175 -22.069,0.99063 -35.58,2.79 -72.34,6.5203 -104.88,22.22 -12.52,4.51 -24.691,10.67 -38.161,11.73 -29.69,6.79 -59.469,-8.3988 -80.789,-28.119 -20.54,-16.3 -41.041,-35.421 -68.061,-39.881 -6.72,-0.87188 -13.422,-1.245 -20.109,-1.2625 -28.98,-0.076 -57.702,6.536 -86.57,8.2828 -48.33,7.69 -97.92,11.15 -146.42,3 -69.38,-11.41 -128.16,-51.91 -187.78,-86.26 -21.86,-13.17 -47,-17.63 -72.09,-17.48 z"
         id="path3825"
         inkscape:connector-curvature="0"
         style="fill:#feda02" />
    </clipPath>
    <linearGradient
       id="a"
       y2="2297"
       gradientUnits="userSpaceOnUse"
       x2="520.78003"
       gradientTransform="matrix(0.08241203,0,0,0.08241203,98.349356,-4.8712247)"
       y1="2297"
       x1="399.22">
      <stop
         stop-color="#282828"
         offset="0"
         id="stop3828" />
      <stop
         stop-color="#878787"
         offset=".5"
         id="stop3830" />
      <stop
         stop-color="#282828"
         offset="1"
         id="stop3832" />
    </linearGradient>
  </defs>
  <g
     id="g4670"
     transform="matrix(1.0425794,0,0,1.0425794,-28.489586,-6.7669427)">
    <path
       style="fill:#ffcc00;stroke-width:0.06592962"
       inkscape:connector-curvature="0"
       id="path3837"
       d="m 143.32983,24.667421 c -0.93969,0.0057 -1.87847,0.08988 -2.7904,0.220712 -0.37498,0.189548 -0.52332,0.660879 -0.28845,1.016899 1.40925,7.473782 2.03637,15.057666 2.77973,22.602651 0.65353,8.062534 1.57163,16.123748 2.43115,24.180348 -0.39228,-0.22993 0.12692,0.269434 0,0.499364 0.42278,5.401284 0.60663,10.818391 0.90746,16.226598 0.3214,3.182752 -0.005,6.373746 -0.26952,9.551883 -0.36178,5.949354 -0.85873,12.048634 -1.22134,18.054164 -0.95433,1.53366 -0.56785,3.41925 -0.64861,5.12023 0.0305,1.61119 -0.28097,3.49025 -0.16148,4.94973 -0.73017,9.16422 -1.37707,18.39173 -2.48719,27.53946 -0.32553,3.84864 -1.11098,8.06056 -1.30547,12.06842 0.3453,-0.13516 0.6099,0.2399 0.7574,-0.13508 6.45042,-2.01335 12.82858,-4.47583 19.58109,-5.29494 5.52741,-0.77058 11.31155,-0.90739 16.74349,-1.12825 2.2927,0.0231 4.57222,-0.1896 6.85009,-0.41129 4.69913,-0.59831 8.94005,-2.84315 13.54194,-3.80407 4.3118,-1.1365 10.76037,-2.01666 14.56715,1.75201 0.47717,0.41536 0.24981,0.74422 0.74428,0.86948 1.00134,1.40351 1.89376,2.90677 2.74511,4.41986 1.56174,2.64872 2.85891,6.38522 6.35977,6.84349 3.82801,0.3964 7.48103,-1.18838 10.86454,-2.79541 4.47003,-2.38586 9.16752,-4.48309 13.90192,-6.20715 2.91904,-0.86862 5.88086,-1.70019 8.93281,-1.95481 4.93813,-0.34778 10.45643,0.0429 14.27574,3.5602 1.34826,0.87686 1.99846,2.79133 3.05992,4.06707 0.8472,1.23868 3.08881,2.52174 4.40081,2.48139 1.27738,0.34119 2.91,0.35028 4.3143,0.49615 8.02891,0.27525 16.10529,-0.39228 24.13617,0.26784 2.48146,0.0816 4.77911,1.83284 6.49328,3.15394 0.5398,0.67986 1.37457,0.96343 2.00993,1.5469 3.5569,1.46694 6.76965,-1.00628 10.11558,-1.97709 0.16482,-0.13104 0.5562,0.21842 0.38231,-0.13019 2.93882,-0.79939 6.15124,-0.84067 9.01786,0.20925 1.71997,0.34448 3.25606,1.29229 4.87714,1.86996 2.61081,1.3095 5.31815,2.55886 8.11989,3.42913 2.84236,0.50684 5.75566,0.69642 8.64074,0.52087 0.55463,0.0593 1.33501,-0.32138 1.1504,-0.99962 -0.17389,-2.49709 -1.15957,-4.84339 -1.95896,-7.19358 -1.16366,-3.11926 -2.38085,-6.48998 -3.82471,-9.32904 -0.37415,-1.00464 -0.78212,-2.01086 -1.30791,-2.94455 -1.61778,-5.12194 -3.33024,-10.23492 -4.88783,-15.38929 -2.36766,-7.37094 -4.67368,-14.77088 -7.14611,-22.10291 -2.38744,-7.45994 -4.67599,-14.94163 -7.35577,-22.302671 -2.74346,-7.781014 -5.96663,-15.511921 -9.6066,-22.844614 -1.34417,-2.432012 -2.53012,-4.968654 -4.15278,-7.235116 -0.39805,-0.622211 -1.11909,-1.044194 -1.8509,-1.124891 -1.7356,-0.06758 -3.47206,-0.294185 -5.13764,-0.789508 0.0354,-0.142572 -0.25454,0.02972 -0.34767,-0.07494 -8.23988,-2.508622 -14.9357,-8.230654 -22.72924,-11.703167 -2.84486,-1.319383 -5.70627,-2.766472 -8.82534,-3.295558 -6.33662,-0.7961 -12.75672,-0.134437 -19.12156,-0.583582 -4.80878,0.03297 -9.62573,-1.077158 -14.01994,-2.909145 -8.34339,-3.687971 -16.45999,-8.024953 -25.09677,-11.042552 -2.54646,-0.865788 -5.34155,-1.374698 -8.00583,-1.376412 -0.61477,-3.96e-4 -1.2226,0.02616 -1.81873,0.08164 -2.93222,0.22993 -5.96169,0.537353 -8.64338,1.831195 -1.0318,0.371679 -2.03485,0.879304 -3.14491,0.96666 -2.44678,0.559578 -4.90094,-0.692129 -6.65823,-2.317294 -1.69274,-1.343316 -3.38225,-2.919166 -5.60903,-3.286723 -0.55381,-0.07185 -1.1061,-0.1026 -1.65727,-0.104044 -2.3883,-0.0063 -4.75537,0.538639 -7.13424,0.682636 -3.9871,0.643637 -8.07374,0.928816 -12.07106,0.257151 -5.7128,-0.946749 -10.55665,-4.284106 -15.47038,-7.115124 -1.80186,-1.085861 -3.87403,-1.453089 -5.94092,-1.440562 z" />
    <path
       style="opacity:0.325;fill:#aa8800;filter:url(#b)"
       inkscape:connector-curvature="0"
       id="path3839"
       transform="matrix(0.08196041,0,0,0.08104489,99.382135,-3.2042639)"
       d="m 937.25,466.28 c -8.2824,1.0925 -16.424,3.938 -24.762,4.0918 -9.8761,3.4726 -20.389,0.21134 -30.477,2.3301 -17.299,1.6482 -34.734,0.48028 -52.027,1.3301 -3.4504,1.061 -8.881,-0.13296 -8.8984,4.7226 -1.9226,9.0928 18.321,42.085 19.639,51.014 3.6495,11.417 11.13,20.815 16.326,31.416 4.6222,5.9971 13.814,9.0367 15.25,17.455 0.60647,5.842 6.6892,7.932 9.2402,12.76 7.8729,11.289 14.465,23.794 25.543,32.381 4.0677,3.9469 5.915,9.3573 10.07,13.232 5.7198,7.2647 13.049,13.099 17.768,21.22 3.8964,4.8673 7.6207,9.8228 10.972,15.077 3.6578,3.9495 6.7611,8.5624 11.354,11.623 4.7399,5.1364 5.4701,13.164 11.826,16.85 8.3278,9.41 15.434,19.96 22.977,29.891 4.558,11.225 13.851,19.534 19.558,30.154 5.5372,8.8335 9.7192,18.431 16.742,26.275 4.7886,6.4261 5.8238,14.705 11.317,20.742 4.2511,7.4542 8.93,14.569 13.372,21.927 5.7778,9.8372 10.444,20.231 16.126,30.067 6.3204,7.9539 8.4232,18.719 16.238,25.422 5.4785,6.1349 5.6805,14.754 8.498,21.963 5.5918,7.9216 6.8064,17.704 11.594,26.029 2.5378,5.5742 2.8468,11.666 5.4448,17.198 1.1413,5.8787 3.3348,11.366 6.9126,16.257 2.9557,7.437 0.5871,15.467 4.4956,22.593 2.7827,12.479 2.6854,25.41 5.0611,37.938 0.88,16.292 -1.279,32.967 3.4023,48.846 1.2456,15.92 0.4335,31.924 1.1766,47.873 0.693,53.041 -1.2488,106.17 3.1437,159.04 -0.058,7.7141 -1.6471,15.428 0.4785,22.963 0,6.355 0.7353,12.529 2.545,18.619 2.9574,19.453 0.9726,39.403 4.8632,58.514 -0.6829,3.7306 -0.9866,7.5765 2.0215,10.352 3.8338,7.4667 3.0504,16.112 2.1075,24.048 1.0903,9.3092 5.453,18.424 3.121,27.8 8.9518,11.185 4.875,26.344 5.295,39.227 7.4263,6.9565 6.9887,18.022 4.748,27.129 1.7305,5.4735 3.3778,10.906 6.9961,15.441 3.9154,7.3373 1.3206,16.199 5.7803,23.361 3.834,8.3552 3.8356,17.683 5.751,26.454 4.4531,4.5603 5.4694,10.922 7.4667,16.693 9.2201,8.3967 9.147,21.741 13.123,32.629 5.2785,9.074 8.361,19.052 11.876,28.846 3.5743,8.2052 7.1501,16.476 9.4594,25.06 3.768,4.7274 4.3175,10.867 6.8399,16.084 7.5529,7.8204 8.4235,19.454 13.673,28.666 4.4196,12.712 10.245,24.838 15.161,37.34 7.4926,21.458 16.779,42.116 25.117,63.234 1.2471,3.5674 0.7275,7.4002 3.6094,10.205 3.1898,4.9015 2.7506,11.42 7.5332,15.217 5.8809,7.4692 3.9042,18.112 9.7657,25.328 6.8471,10.417 6.9892,24.104 15.791,33.393 2.6117,2.9443 0.2546,32.065 3.3476,33.691 7.6275,0.4405 15.354,4.2882 19.324,10.99 29.736,9.4932 55.826,30.133 71.113,57.443 19.505,29.251 34.014,61.52 52.396,91.367 8.7101,10.334 18.549,22.341 33.225,22.887 40.032,3.2422 78.034,-13.275 113.06,-30.241 19.814,-10.004 40.096,-19.134 59.605,-29.69 4.9949,-1.8256 1.4799,-8.2198 5.0234,-11.586 2.6434,-4.8073 7.2479,-8.4046 12.418,-10.146 -0.2095,-13.916 1.9611,-27.988 -1.8379,-41.459 -3.7491,-8.6176 -3.7873,-18.346 -7.9121,-26.848 -0.6033,-6.9795 -2.9531,-34.789 -5.0414,-41.165 -2.4369,-5.0213 -3.7785,-11.228 -9.3649,-13.731 -5.9467,-4.4292 -8.2831,-11.937 -10.076,-18.576 -5.4203,-5.7556 -6.0595,-14.526 -12.061,-19.775 -2.1218,-5.3253 -5.8035,-9.5778 -9.1445,-13.982 -2.0392,-5.1856 -5.1824,-9.6195 -8.5899,-13.947 -2.9709,-5.0044 -2.6724,-12.199 -8.5761,-14.992 -7.4432,-6.9008 -11.033,-16.836 -15.801,-25.506 -1.253,-4.1173 -5.2276,-5.8983 -6.8399,-9.8867 -5.9385,-9.7122 -16.631,-16.722 -18.57,-28.625 -4.6655,-9.3223 -13.833,-15.858 -16.693,-26.092 -2.333,-3.5338 -7.3327,-4.3262 -9.6075,-8.1914 -3.8723,-4.1834 -4.9026,-10.07 -6.0136,-15.248 -6.7097,-8.4952 -11.916,-18.01 -16.127,-27.912 -4.5635,-3.6369 -6.411,-9.767 -10.966,-13.519 -6.4505,-10.219 -12.933,-20.482 -19.41,-30.629 -2.7318,-5.7948 -3.8809,-13.029 -10.002,-16.295 -6.694,-6.7055 -8.579,-16.568 -14.833,-23.635 -6.691,-10.803 -12.256,-22.573 -21.468,-31.521 -4.7675,-7.4507 -3.7492,-17.039 -9.2714,-24.111 -4.7146,-5.3482 -10.015,-10.778 -10.705,-18.307 -0.5585,-5.6743 -2.2972,-10.982 -5.1778,-15.836 -2.6806,-7.253 0.8294,-15.522 -4.289,-22.106 -4.9086,-6.5886 -5.295,-15.142 -8.7246,-22.348 -3.1856,-12.86 -7.5332,-26.266 -6.1016,-39.945 -8.1474,-14.568 -8.57,-31.762 -7.8047,-48.023 -5.5392,-10.094 -9.6982,-21.115 -9.2031,-32.816 -0.982,-8.4651 -1.8854,-17.156 -6.625,-24.432 -3.1212,-8.0357 -0.037,-17.073 -3.1348,-25.193 -1.8098,-11.774 -1.56,-23.931 -5.5497,-35.269 -4.605,-25.862 -10.808,-51.61 -14.282,-77.754 -1.2426,-6.5814 -6.1994,-11.78 -6.9805,-18.596 -1.3293,-5.1434 0.2193,-10.896 -4,-14.863 -3.5818,-4.9399 -4.7477,-11.133 -5.6133,-16.877 -3.6082,-6.502 -1.9503,-14.608 -6.5058,-20.73 -3.5742,-7.942 -5.8319,-16.664 -10.471,-23.984 -6.1757,-5.8616 -6.2775,-14.795 -6.5332,-22.465 -6.6108,-15.25 -11.6,-31.371 -19.104,-46.329 -3.0947,-7.2957 -6.1237,-14.771 -5.5617,-22.876 -3.8552,-9.1267 -8.7686,-18.06 -12.318,-27.437 -4.92,-9.9022 -8.2578,-20.414 -12.274,-30.676 -8.5915,-12.947 -11.595,-28.541 -19.354,-41.951 -5.2958,-10.941 -12.072,-21.326 -14.408,-33.422 -1.9781,-4.8971 -7.9894,-6.6949 -9.6465,-11.988 -2.2542,-5.0219 -3.0551,-10.616 -7.0059,-14.719 -5.9954,-9.2822 -9.843,-20.014 -17.441,-28.174 -3.728,-7.7597 -8.0001,-15.108 -11.885,-22.742 -6.8435,-7.3164 -8.1577,-18.233 -15.438,-25.355 -4.9683,-8.6827 -9.7261,-17.468 -15.068,-25.906 -8.7119,-15.481 -19.288,-30.392 -27.395,-46.451 -3.9746,-4.6006 -5.091,-10.59 -7.6796,-15.834 -6.8106,-10.072 -13.401,-20.779 -19.734,-31.371 -8.9237,-9.5544 -12.983,-22.581 -22.352,-31.787 -3.3212,-4.6692 -4.3302,-10.573 -8.6914,-14.51 -2.8475,-5.1275 -7.1123,-8.844 -11.686,-12.295 -7.6433,-7.8624 -9.5217,-19.63 -17.863,-26.947 -6.0089,-8.328 -14.528,-14.775 -19.27,-24.102 -7.3146,-2.8188 -10.538,-10.508 -16.449,-15.184 -4.2539,-3.7096 -6.3411,-9.7271 -10.947,-12.855 -9.6534,-2.3004 -26.39,-38.873 -35.492,-41.982 -5.33,-2.9538 -10.613,-6.0173 -15.959,-8.872 -2.5265,0.18646 -5.0347,-0.12648 -7.5879,-0.0762 z m 381.08,32.697 c -8.18,0.70153 -16.005,1.1246 -23.984,2.7196 -15.894,0.0613 -31.321,5.0066 -46.305,9.8738 -16.534,6.6607 -32.796,14.344 -50.384,17.947 -11.174,2.1629 -22.487,5.0587 -33.926,4.307 -0.3234,8.7837 16.77,37.608 16.119,46.367 2.4244,17.773 12.502,33.191 22.605,47.553 4.1361,4.4523 6.1153,11.003 12.328,13.129 4.2301,2.8431 7.4916,7.011 9.6816,11.529 9.2598,4.9979 15.738,13.709 23.893,20.107 2.9515,4.3842 6.9959,7.5078 12.064,8.8574 6.2182,3.194 10.369,9.3467 17.277,11.189 14.468,7.1872 26.181,18.633 40.715,25.747 12.77,6.3911 23.571,15.68 34.589,24.587 12.207,7.1328 20.644,19.079 30.965,28.318 9.9497,1.7974 16.346,11.069 17.724,20.595 2.4411,5.0139 6.9156,9.2771 10.25,13.938 6.153,5.9347 6.4783,15.95 14.219,20.545 8.3655,8.1411 9.6033,20.589 16.248,29.85 5.1198,9.3958 9.4206,19.102 15.486,27.938 10.083,17.417 20.543,34.739 32.459,50.891 4.8629,3.2931 4.9579,10.058 9.8633,13.18 3.3468,2.9952 5.5601,7.8255 9.1152,10.078 13.637,-2.1969 25.582,12.667 21.961,25.711 5.5446,6.0289 12.953,10.711 15.75,18.858 8.0637,13.536 23.175,20.722 31.756,33.834 4.7747,5.212 11.877,8.4518 14.215,15.672 2.4132,8.1137 9.1505,13.844 11.553,22.016 1.3666,5.187 7.4084,7.2189 9.5371,12.252 3.5692,7.2869 7.0785,14.494 11.562,21.303 4.3664,8.2545 9.0008,16.331 12.154,25.182 7.375,12.309 10.727,26.73 18.602,38.881 3.7323,7.5516 6.5722,15.614 8.3965,23.736 4.5991,8.0219 9.8926,15.624 12.348,24.66 3.4624,6.1966 7.1698,12.199 9.3164,19.02 2.7453,5.2131 3.9192,10.982 6.2168,16.253 5.3779,6.9613 9.0112,15.433 13.322,23.18 2.0172,5.8833 2.1167,12.486 6.3047,17.414 5.1761,10.828 7.9518,22.816 15.209,32.564 3.7864,5.6647 0.5435,13.197 5.4648,18.359 5.2883,6.7201 7.2652,15.095 11.914,22.193 4.057,9.3479 7.516,18.956 10.551,28.707 6.2832,5.4761 12.065,12.512 12.656,21.16 4.8402,13.727 14.221,25.555 17.328,39.957 3.2706,8.0029 8.1165,15.109 11.471,23.053 4.9218,7.4599 7.0752,16.279 12.877,23.182 4.894,6.8697 8.5544,14.613 11.221,22.512 7.6037,9.1032 13.956,19.092 19.945,29.278 5.6669,7.1147 11.633,14.489 14.653,23.062 7.829,4.4802 8.2276,14.881 14.542,20.694 4.8067,7.9132 10.789,14.986 14.142,23.713 2.5346,3.7713 3.9432,8.0791 6.1034,11.857 6.6483,4.4172 7.195,13.222 11.025,19.389 6.2105,9.8201 11.508,20.159 16.002,30.883 1.5302,6.9841 8.7046,9.999 10.82,16.682 3.0592,5.1877 1.0099,13.256 7.7656,15.809 7.6805,4.9158 7.7332,15.563 14.307,21.395 4.2986,8.5442 8.7565,16.874 12.725,25.488 10.222,11.514 16.026,26.253 25.035,38.705 4.9321,8.8625 9.6533,17.755 15.473,26.066 4.0191,5.8116 5.0123,13.388 10.509,18.054 7.7809,11.275 11.432,24.805 20.096,35.555 2.594,9.0185 9.3889,15.896 11.48,25.053 3.0783,4.9386 6.5189,9.7019 8.0315,15.532 3.4345,10.79 2.5492,24.4 3.0291,36.064 0.666,5.0152 1.3394,10.048 4.7148,14.023 2.0023,4.6959 4.5066,9.5836 4.9512,14.354 6.7677,1.1624 1.8461,9.3843 -0.4766,15.168 1.8742,3.1471 2.9764,6.2989 6.6075,7.7403 1.3341,2.8252 3.5282,4.6613 6.4628,5.8964 7.7199,5.6 10.824,15.338 18.039,21.449 14.006,17.646 29.885,57.399 51.346,67.773 20.911,9.9574 60.491,7.9282 82.966,9.8995 30.789,1.0254 61.934,1.7798 92.714,0.3544 3.3742,-1.9757 1.3644,-7.1597 2.3555,-10.375 0.2086,-9.572 -9.9231,-39.203 -11.348,-48.463 -4.6805,-6.2979 -5.9622,-14.166 -9.6543,-20.998 -1.0201,-5.5199 -4.1703,-9.9645 -7.7461,-14.172 -3.5656,-7.1003 -7.095,-14.349 -13.028,-19.895 -8.6407,-8.8439 -9.0014,-22.944 -18.617,-31.237 -8.8695,-12.048 -14.345,-26.446 -24.666,-37.414 -4.1969,-9.2809 -10.684,-17.225 -15.039,-26.195 -3.8804,-6.4703 -10.29,-10.94 -12.829,-18.278 -1.972,-5.4873 -5.9941,-9.4959 -9.7612,-13.675 -3.3569,-5.5428 -4.7832,-12.194 -9.9344,-16.493 -5.2437,-5.9369 -10.438,-12.521 -11.966,-20.556 -3.9037,-5.3086 -7.9357,-10.581 -9.8047,-17.021 -2.8066,-6.8793 -9.3039,-10.647 -14.814,-14.971 -5.0483,-4.6736 -5.7447,-11.978 -8.2675,-17.762 -10.046,-13.995 -17.218,-29.876 -27.893,-43.478 -2.5961,-7.2046 -9.2761,-11.701 -11.506,-19.137 -5.5781,-7.1958 -8.8889,-15.971 -14.408,-23.205 -4.9472,-4.468 -8.0642,-10.621 -12.965,-15.047 -3.5057,-6.2648 -6.6371,-12.816 -10.022,-19.041 -2.3102,-8.5679 -9.6323,-14.375 -11.805,-23.02 -2.4824,-8.5107 -8.5117,-15.116 -12.762,-22.705 -9.4111,-6.4383 -9.6573,-20.024 -19.418,-26.092 -5.6552,-6.1197 -4.6015,-15.382 -9.8867,-21.701 -4.7897,-9.2535 -9.9563,-18.214 -13.98,-27.812 -5.0991,-6.7288 -6.7127,-15.464 -11.764,-22.299 -3.201,-9.2995 -10.808,-16.29 -13.32,-25.891 -6.0993,-8.7811 -8.7611,-19.966 -16.842,-27.385 -4.996,-6.6692 -6.9034,-15.279 -9.7128,-22.775 -0.9143,-3.544 -5.6157,-5.5895 -6.2461,-9.6154 -4.6897,-9.3983 -9.7004,-18.726 -14.055,-28.225 -5.6107,-5.9026 -6.1942,-14.378 -10.402,-21.129 -1.309,-3.3804 -1.6572,-7.0438 -5.0996,-9.1777 -7.0616,-7.9708 -8.8467,-19.787 -17.953,-26.025 -4.9405,-6.3623 -4.4021,-15.386 -9.9877,-21.316 -2.2319,-7.3669 -9.3539,-12.125 -10.024,-20.062 -1.1692,-6.1214 -5.3587,-10.946 -6.932,-17.001 -3.5378,-7.1269 -8.9741,-13.162 -11.598,-20.82 -4.6151,-7.2537 -7.0994,-15.635 -12.191,-22.656 -1.6687,-6.0028 -4.9892,-11.052 -8.0177,-16.303 -12.684,-26.966 -26.756,-53.283 -39.562,-80.161 -2.9974,-10.127 -10.248,-18.137 -13.057,-28.345 -2.3285,-9.136 -9.6797,-15.97 -11.955,-25.318 -2.689,-6.0736 -8.196,-10.52 -10.031,-17.133 -3.0336,-7.3325 -7.8656,-13.746 -9.9043,-21.533 -3.5189,-5.8025 -8.2301,-10.903 -11.287,-17.086 -8.043,-9.1364 -11.942,-21.274 -20.59,-29.91 -1.8936,-4.1261 -3.0343,-8.4661 -6.5918,-11.451 -3.395,-6.158 -5.1297,-13.487 -10.99,-17.899 -2.8976,-4.2053 -3.6694,-9.6552 -7.8085,-12.949 -6.6954,-10.913 -13.052,-22.033 -19.352,-33.154 -1.5096,-5.3912 -2.7572,-11.039 -7.4805,-14.725 -5.4791,-5.2138 -9.7394,-11.627 -14.701,-17.238 -3.1324,-6.0518 -4.267,-13.015 -8.6289,-18.365 -2.6954,-7.5736 -9.1069,-12.844 -11.619,-20.561 -2.3669,-6.8063 -10.352,-9.2124 -12.09,-16.414 -1.5015,-5.9026 -4.0971,-11.235 -7.3608,-16.269 -3.3234,-7.8999 -9.678,-13.904 -12.336,-22.185 -1.6524,-5.6413 -5.9502,-9.3264 -9.7545,-13.438 -1.596,-2.5439 -1.9716,-5.7444 -5.3184,-6.8262 -6.4551,-4.962 -7.1276,-14.193 -12.736,-19.924 -1.8388,-3.9886 -1.9275,-9.0468 -6.082,-11.385 -3.2193,-4.7221 -4.6674,-10.705 -8.9297,-14.508 -3.2558,-6.7596 -10.493,-11.265 -11.656,-19.215 -5.2311,-3.2137 -6.0989,-9.9599 -10.969,-13.652 -2.4828,-3.7641 -4.6144,-7.6571 -8.666,-10.162 -8.0803,-8.7537 -14.48,-19.014 -21.682,-28.42 -3.4448,-6.375 -10.5,-8.8709 -15.918,-12.896 -8.4137,-7.0994 -12.754,-17.875 -21.627,-24.387 -6.0431,-6.1893 -8.6593,-14.92 -15.772,-20.168 -5.1213,-6.0689 -11.062,-10.261 -17.756,-14.213 -5.7755,-4.872 -5.8531,-13.564 -12.384,-17.765 -10.76,-9.5819 -19.786,-21.027 -28.824,-31.832 -8.8944,-9.1416 -34.132,-38.465 -44.664,-45.535 -5.9832,-2.202 -11.554,-6.1513 -14.861,-11.551 -6.2153,-1.3295 -12.678,-1.4168 -18.846,-2.8398 z m 422.14,138.59 c -4.9529,6.8679 -11.53,13.204 -12.152,22.205 -2.1237,12.565 1.6283,49.945 7.0723,61.723 0.3174,4.3988 1.2281,8.5029 3.9394,12.016 2.5686,6.1943 0.421,13.51 4.5274,19.152 2.2464,5.4643 0.7761,12.065 3.2929,17.219 5.2975,5.2042 6.1487,12.84 7.7578,19.602 1.5948,4.9796 2.5713,10.184 6.0997,14.223 4.4864,8.1927 2.7044,17.991 6.8294,26.282 3.6917,12.817 5.9661,26.17 11.541,38.315 0.5858,6.9953 4.5264,12.779 7.1084,19.028 1.8764,7.4899 1.4338,15.497 5.4021,22.39 2.5341,5.7624 3.1464,12.114 3.549,18.218 3.1124,6.6744 6.4524,13.337 7.5227,20.675 2.2708,8.3388 6.9391,16.392 9.5594,24.835 0.7141,4.9281 -0.8919,10.085 2.4707,14.338 2.8857,5.5066 3.2584,12.071 5.7433,17.557 5.0736,6.3706 7.692,14.304 8.8739,22.16 4.4949,9.5164 5.9422,20.572 13.617,28.343 5.7448,11.391 15.278,20.346 20.541,32.036 7.1571,6.2978 13.557,13.588 17.857,22.094 7.3271,8.0101 15.616,15.431 21.037,24.918 7.556,6.7709 13.221,15.322 20.856,21.894 3.7607,5.0709 6.7973,10.718 11.217,15.145 0.9781,2.8217 2.1642,5.1682 4.959,6.3984 2.9526,2.8731 3.7091,7.8022 7.8652,9.1231 7.8334,8.3171 15.892,16.733 22.134,26.655 2.6199,2.9805 5.3592,5.8696 6.9514,9.4174 10.376,4.3791 12.374,17.288 21.258,23.428 7.8455,7.6659 12.056,18.624 21.461,24.691 8.5369,11.712 16.019,24.281 26.968,33.97 6.5135,6.7021 11.712,14.44 16.513,22.421 8.9232,4.4417 11.466,15.527 20.188,20.184 2.0417,2.34 3.2126,5.3562 6.4043,6.293 9.2564,7.306 10.114,21.139 20.545,27.273 4.8297,5.1354 5.2418,13.391 11.957,16.824 8.5101,7.0541 14.598,16.116 20.955,25.019 4.8394,6.9547 10.405,13.168 16.497,18.98 4.9855,5.7392 7.8776,12.941 13.62,18.018 2.1323,4.8491 7.8672,6.4314 10.48,11.14 4.473,7.1508 9.9889,13.406 16.248,19.002 5.8819,8.0364 10.579,17.222 18.894,22.986 8.4318,9.0891 13.196,21.142 23.33,28.64 5.7512,5.7012 9.0959,13.374 14.792,19.233 7.6402,7.8542 14.672,16.37 20.713,25.581 4.836,6.8145 12.068,11.579 16.411,18.897 5.7932,6.75 10.08,14.571 16.061,21.12 5.2924,2.9841 9.5817,7.5948 10.834,13.68 2.0546,2.8321 4.3543,5.1652 6.9922,7.498 7.7084,3.772 9.3166,14.875 18.352,16.281 10.511,4.7408 14.341,16.449 17.717,26.492 2.1228,3.9453 4.5673,7.2954 8.0137,10.107 3.5337,4.3228 5.4094,9.9521 9.7792,13.488 4.272,9.1267 12.78,15.131 18.34,23.191 2.6878,6.4807 5.8073,12.712 8.9851,18.882 1.7279,5.5585 5.23,10.467 10.523,12.919 6.4995,6.206 5.1908,16.645 12.175,22.478 5.3326,6.3855 10.157,13.053 13.081,20.87 7.4845,8.1366 13.371,17.58 20.162,26.275 6.3857,10.417 10.781,22.316 20.336,30.422 5.3356,7.0973 7.6081,16.069 10.617,24.168 -0.7254,6.1321 4.2919,10.485 6.8832,15.587 5.7535,8.0141 6.4738,18.194 11.468,26.612 1.3611,6.0763 6.313,10.418 7.0468,16.73 0.5425,5.1087 1.5915,10.019 4.8223,14.029 1.6956,4.9279 1.1217,10.329 3.7734,14.996 2.3466,8.1259 3.573,16.465 5.4825,24.672 0.786,9.0739 0.4109,18.343 4.082,26.883 2.096,9.5245 1.617,19.88 7.3086,28.266 3.7476,10.276 -1.5702,21.499 2.9316,31.711 1.4804,3.8629 9.3219,26.593 9.5352,30.932 6.4219,3.5655 9.6618,11.466 17.332,12.893 8.6054,4.4556 14.533,12.649 23.287,16.924 15.224,10.213 27.708,26.455 46.619,29.764 28.11,0.8269 52.384,-15.332 78.209,-23.887 11.655,-3.8364 23.334,-7.5716 34.9,-11.604 2.5998,-1.0664 6.8148,1.0755 8.7461,-1.0352 2.1665,-3.2265 6.306,-5.4075 6.125,-9.8281 3.867,-7.9385 -4.2612,-37.1 0.2276,-44.87 6.0248,-11.027 4.7322,-23.682 5.5607,-35.802 -0.066,-19.508 0.5969,-39.012 3.1952,-58.358 1.7121,-20.016 1.9032,-40.25 -3.046,-59.724 -1.1832,-6.2147 2.5006,-12.192 -0.3203,-18.24 -1.7896,-5.8029 -1.454,-12.228 -3.7109,-17.773 -3.4413,-5.9385 -4.5891,-12.884 -5.0742,-19.617 -3.1586,-6.4661 -6.7581,-12.674 -10.713,-18.633 -2.8147,-6.6179 -1.2829,-14.589 -6.4404,-20.232 -2.4054,-5.524 -8.6489,-7.8388 -10.624,-13.717 -2.4541,-3.4704 -7.8575,-4.3498 -10.381,-8.3027 -4.2041,-4.0711 -5.2673,-10.119 -8.0688,-14.854 -5.6818,-7.2428 -10.966,-15.043 -18.521,-20.416 -2.4695,-4.0449 -5.1419,-7.768 -9.1308,-10.33 -5.537,-5.089 -7.8134,-13.676 -15.291,-16.322 -6.7278,-4.6095 -9.8848,-12.614 -16.441,-17.452 -10.07,-10.557 -20.963,-20.494 -29.078,-32.662 -7.6923,-3.3744 -12.409,-11.223 -18.568,-16.516 -4.2669,-6.0516 -11.181,-9.7521 -15.561,-15.843 -7.0723,-7.9767 -15.651,-15.031 -22.202,-23.166 -0.6306,-3.2928 -5.4563,-3.0564 -6.8583,-6.1455 -3.7713,-3.7488 -3.5987,-10.995 -9.6211,-11.975 -6.554,-2.9665 -9.5655,-10.08 -13.701,-15.154 -6.4136,-3.2199 -11.762,-8.5141 -14.744,-14.938 -6.2333,-3.9498 -13.396,-8.0292 -15.49,-15.76 -6.1934,-6.5886 -17.449,-7.3549 -21.758,-16.193 -2.8324,-3.2528 -1.7986,-8.2233 -3.8281,-11.416 -16.353,-16.285 -33.515,-31.886 -47.67,-50.195 -7.745,-9.1663 -17.64,-16.101 -27.113,-23.217 -3.6761,-4.2901 -6.373,-9.5471 -11.457,-12.34 -4.9466,-6.0634 -10.501,-11.435 -15.244,-17.576 -6.6414,-5.0668 -12.109,-11.885 -18.455,-17.514 -3.6755,-3.9854 -6.604,-8.4436 -11.451,-11.226 -4.7996,-4.6874 -8.0384,-10.919 -14.037,-14.309 -5.6313,-6.4941 -11.308,-12.908 -17.316,-19.039 -3.8751,-5.4293 -8.3491,-10.292 -13.734,-14.143 -3.0342,-3.5041 -4.1532,-8.5465 -8.75,-10.453 -7.8082,-8.4603 -12.861,-19.261 -22.15,-26.424 -4.0905,-3.7352 -8.0743,-8.002 -9.7207,-13.365 -8.0778,-3.4489 -12.536,-11.911 -15.287,-19.728 -5.8993,-7.752 -12.051,-15.227 -17.746,-23.139 -3.5,-5.4394 -7.3984,-10.666 -11.488,-15.671 -4.6409,-8.2248 -9.8819,-16.248 -15.471,-23.681 -3.6878,-5.1833 -8.1183,-9.7252 -11.879,-14.945 -4.3993,-4.4252 -6.34,-10.453 -9.2893,-15.662 -7.6964,-3.792 -13.062,-11.787 -13.705,-20.398 -9.4685,-12.653 -18.078,-26.021 -28.689,-37.664 -2.4933,-3.8534 -2.0298,-8.9624 -6.1875,-11.723 -4.8413,-6.9137 -10.71,-13.29 -13.34,-21.443 -4.6106,-2.3996 -4.7311,-8.658 -9.3867,-10.895 -2.9094,-2.764 -2.7018,-7.8378 -6.9609,-9.0859 -7.2849,-6.9852 -8.9433,-17.626 -15.349,-25.259 -3.0075,-5.1785 -5.1201,-10.927 -10.168,-14.436 -5.937,-7.0257 -8.0298,-16.487 -14.706,-23.027 -5.4789,-5.7074 -8.2005,-13.17 -12.549,-19.577 -6.7245,-2.994 -8.1308,-11.104 -11,-16.949 -5.3008,-4.7829 -7.2422,-12.014 -9.1523,-18.43 -4.6285,-5.5086 -6.4508,-12.752 -11.598,-17.896 -5.565,-8.6334 -11.571,-17.066 -14.312,-27.041 -6.3902,-13.208 -11.995,-26.74 -16.266,-40.789 -5.6509,-7.5102 -8.5252,-17.334 -6.8867,-26.588 -5.5896,-9.8764 -6.4862,-21.581 -6.418,-32.611 -4.1461,-8.7195 -3.7323,-18.816 -7.8261,-27.434 -0.9312,-4.7288 1.1978,-9.7639 -1.2383,-14.08 -1.9235,-7.2122 -7.1335,-13.737 -6.1074,-21.627 -2.0148,-5.4743 -3.7068,-11.134 -3.0489,-17.004 -2.0421,-6.4498 -5.6404,-12.675 -5.4218,-19.594 -1.9615,-7.5916 -7.4403,-13.67 -7.5313,-21.783 -1.0289,-6.6742 -9.5464,-36.057 -13.191,-41.562 -6.8809,-9.3908 -19.165,-4.1735 -28.836,-5.0723 -7.8282,-0.4438 -15.332,-2.758 -23.238,-2.668 -40.261,-3.4334 -79.81,-13.451 -117.47,-27.852 -5.4967,-0.16014 -10.623,-2.8148 -15.365,-4.8984 -7.159,0.92161 -13.286,-3.6705 -19.523,-5.6328 z m 1271.5,1237.5 c -3.6764,2.1724 -8.6585,2.0182 -9.7891,6.9141 -3.8783,6.2889 -11.547,11.524 -10.428,19.715 -2.0228,6.3705 -4.8359,12.599 -5.0918,19.254 -0.9504,6.5061 -3.7633,12.915 -4.3418,19.277 2.4598,15.802 -3.4814,31.153 -2.5597,46.984 -0.779,37.654 -0.5899,75.53 -0.077,113.26 0.7589,6.7894 4.8178,13.03 3.664,20.131 0.2803,4.6026 -3.3436,8.9692 -0.6172,13.225 3.46,10.555 -0.5633,21.975 4.1563,32.129 5.6155,3.0627 8.1749,9.568 14.232,11.738 6.3062,4.9569 13.448,8.2537 20.955,10.961 25.738,11.132 53.946,16.151 81.772,15.997 10.752,-0.2981 23.26,-0.1133 33.172,-1.05 -1.3178,-6.36 -2.3775,-12.796 -2.8711,-19.348 -4.7795,-9.5694 -7.5691,-19.95 -10.121,-30.296 -11.717,-33.868 -24.698,-67.262 -39.352,-100.04 -3.4361,-4.6479 -4.4552,-10.419 -6.4287,-15.607 -5.6901,-7.8081 -5.7822,-18.149 -10.718,-25.983 -7.0193,-14.598 -13.893,-29.362 -17.759,-45.168 -3.725,-12.855 -8.5317,-25.411 -13.622,-37.711 -3.1422,-10.332 -6.7839,-20.619 -10.514,-30.697 -4.8826,-5.0988 -8.8924,-11.196 -9.2676,-18.465 -0.9661,-1.9929 -3.3405,-3.1447 -3.8496,-5.5391 z" />
    <path
       d="m 131.31399,19.605511 c 0,-3.296481 9.88945,-3.296481 9.88945,0 V 349.25363 h -9.88945 z"
       id="path3843"
       inkscape:connector-curvature="0"
       style="fill:url(#a);stroke-width:0.08241203" />
    <path
       sodipodi:nodetypes="caaaccc"
       inkscape:connector-curvature="0"
       id="path3853"
       d="m 67.134934,370.10482 c 0,0 20.713279,-15.02266 31.720706,-19.74599 13.45106,-5.77192 27.42075,-10.49603 41.41196,-10.27373 16.20033,0.25741 31.62467,11.42821 47.77144,13.4168 15.73519,1.9379 31.70968,-4.69483 47.35411,-1.50936 13.75753,3.59756 18.15043,6.05963 27.20341,19.62163 z"
       style="fill:#60360e;fill-opacity:1;stroke:none;stroke-width:0.61277211px;stroke-linecap:butt;stroke-linejoin:miter;stroke-opacity:1" />
  </g>
</svg>
