<?xml version="1.0" encoding="UTF-8" standalone="no"?>
<svg
   xmlns:dc="http://purl.org/dc/elements/1.1/"
   xmlns:cc="http://creativecommons.org/ns#"
   xmlns:rdf="http://www.w3.org/1999/02/22-rdf-syntax-ns#"
   xmlns:svg="http://www.w3.org/2000/svg"
   xmlns="http://www.w3.org/2000/svg"
   xmlns:sodipodi="http://sodipodi.sourceforge.net/DTD/sodipodi-0.dtd"
   xmlns:inkscape="http://www.inkscape.org/namespaces/inkscape"
   id="svg2"
   viewBox="0 0 512 512"
   version="1.1"
   sodipodi:docname="import.svg"
   width="512"
   height="512"
   inkscape:version="0.92.3 (2405546, 2018-03-11)">
  <defs
     id="defs1544" />
  <sodipodi:namedview
     pagecolor="#ffffff"
     bordercolor="#666666"
     borderopacity="1"
     objecttolerance="10"
     gridtolerance="10"
     guidetolerance="10"
     inkscape:pageopacity="0"
     inkscape:pageshadow="2"
     inkscape:window-width="1920"
     inkscape:window-height="1027"
     id="namedview1542"
     showgrid="false"
     inkscape:zoom="0.75958735"
     inkscape:cx="23.688791"
     inkscape:cy="225.316"
     inkscape:window-x="0"
     inkscape:window-y="25"
     inkscape:window-maximized="1"
     inkscape:current-layer="svg2" />
  <path
     style="fill:#f9f9f9;fill-opacity:1;stroke-width:13.27383804"
     inkscape:connector-curvature="0"
     d="m 0.20643914,460.79116 c 0,24.92998 43.65718386,44.99996 97.88606686,44.99996 H 414.38195 c 54.22888,0 97.88606,-20.06998 97.88606,-44.99996 V 259.69535 c 0,-24.92998 -43.65718,-44.99996 -97.88606,-44.99996 h -20.80078 c -60.48739,0.15424 -75.18067,0.2629 -133.35803,-0.002 H 98.10033 c -54.228882,0 -97.88605946,20.06998 -97.88605946,44.99996 v 201.09581 z"
     id="path816"
     sodipodi:nodetypes="csssssccsscc" />
  <path
     id="path3617"
     d="m 427.29301,292.90908 c -0.50194,5.9598 -9.3052,17.1 -27.45013,37.78769 -79.36725,90.4874 -84.98779,89.53031 -91.61675,89.47898 l -3.20895,-0.71298 c -6.05631,-3.39103 -8.42109,-7.35036 -34.93579,-49.1953 -7.39554,-11.67225 -22.96124,-35.71491 -34.57874,-53.47315 -28.8715,-44.13144 -28.58289,-46.34452 5.34675,-43.84853 20.0751,1.47715 21.56492,1.40119 25.66711,-2.13893 3.72916,-3.21833 4.63035,-6.32095 6.77383,-20.67628 5.85895,-39.22392 -0.37644,-82.09483 -17.46846,-120.13349 -7.13316,-15.87938 -9.74323,-20.79377 -21.38926,-37.787676 -5.58061,-8.145034 -6.87993,-11.169999 -6.41677,-17.467331 0.41067,-5.699008 1.65753,-7.748734 4.27785,-8.912198 13.58873,-6.034738 41.80544,13.960644 75.93243,53.830205 34.37225,40.15363 55.71018,85.60151 65.23666,139.74315 4.07596,23.16086 4.21283,23.41754 29.94497,25.3112 16.31515,1.20042 24.38376,2.23941 23.88525,8.19921 z"
     inkscape:connector-curvature="0"
     style="fill:#ff6600;fill-opacity:1;stroke-width:11.40760326" />
  <path
     id="path2821"
     d="m 0.52117723,465.77359 c 0,25.49372 43.69416477,46.01753 97.96898177,46.01753 H 415.04753 c 54.27482,0 97.96897,-20.52381 97.96897,-46.01753 V 260.13044 c 0,-25.49371 -43.69415,-46.01753 -97.96897,-46.01753 h -20.81841 c -6.3092,5.70617 -11.40359,11.59642 -16.51758,17.54188 51.3044,1.52134 91.84593,21.23433 91.84593,45.73039 v 155.02386 c 0,25.49371 -43.69417,46.01753 -97.96899,46.01753 h -229.6197 c -54.274811,0 -97.968966,-20.52382 -97.968966,-46.01753 V 277.38518 c 0,-25.49372 43.694155,-46.01754 97.968966,-46.01754 h 90.00999 c 8.85757,-5.9704 18.77124,-11.63783 28.77936,-17.25657 H 98.49799 c -54.274818,0 -97.96897473,20.52382 -97.96897473,46.01753 v 205.64315 z"
     inkscape:connector-curvature="0"
     style="fill:#1a1a1a;fill-opacity:1;stroke-width:13.42876053" />
  <metadata
     id="metadata1539">
    <rdf:RDF>
      <cc:Work>
        <dc:format>image/svg+xml</dc:format>
        <dc:type
           rdf:resource="http://purl.org/dc/dcmitype/StillImage" />
        <cc:license
           rdf:resource="http://creativecommons.org/publicdomain/zero/1.0/" />
        <dc:publisher>
          <cc:Agent
             rdf:about="http://openclipart.org/">
            <dc:title>Openclipart</dc:title>
          </cc:Agent>
        </dc:publisher>
        <dc:title></dc:title>
        <dc:date>2013-07-15T19:13:16</dc:date>
        <dc:description>An import icon</dc:description>
        <dc:source>https://openclipart.org/detail/180895/import-icon-2-by-dibargatin-180895</dc:source>
        <dc:creator>
          <cc:Agent>
            <dc:title>dibargatin</dc:title>
          </cc:Agent>
        </dc:creator>
        <dc:subject>
          <rdf:Bag>
            <rdf:li>android</rdf:li>
            <rdf:li>icon</rdf:li>
            <rdf:li>import</rdf:li>
          </rdf:Bag>
        </dc:subject>
      </cc:Work>
      <cc:License
         rdf:about="http://creativecommons.org/publicdomain/zero/1.0/">
        <cc:permits
           rdf:resource="http://creativecommons.org/ns#Reproduction" />
        <cc:permits
           rdf:resource="http://creativecommons.org/ns#Distribution" />
        <cc:permits
           rdf:resource="http://creativecommons.org/ns#DerivativeWorks" />
      </cc:License>
    </rdf:RDF>
  </metadata>
</svg>
