<?xml version="1.0" encoding="UTF-8" standalone="no"?>
<!-- Created with Inkscape (http://www.inkscape.org/) -->

<svg
   xmlns:dc="http://purl.org/dc/elements/1.1/"
   xmlns:cc="http://creativecommons.org/ns#"
   xmlns:rdf="http://www.w3.org/1999/02/22-rdf-syntax-ns#"
   xmlns:svg="http://www.w3.org/2000/svg"
   xmlns="http://www.w3.org/2000/svg"
   xmlns:sodipodi="http://sodipodi.sourceforge.net/DTD/sodipodi-0.dtd"
   xmlns:inkscape="http://www.inkscape.org/namespaces/inkscape"
   id="svg33842"
   version="1.1"
   inkscape:version="0.92.2 2405546, 2018-03-11"
   width="512"
   height="512"
   xml:space="preserve"
   sodipodi:docname="inverse.svg"><metadata
     id="metadata33848"><rdf:RDF><cc:Work
         rdf:about=""><dc:format>image/svg+xml</dc:format><dc:type
           rdf:resource="http://purl.org/dc/dcmitype/StillImage" /><dc:title /></cc:Work></rdf:RDF></metadata><defs
     id="defs33846"><clipPath
       clipPathUnits="userSpaceOnUse"
       id="clipPath33856"><path
         d="M 0,600 H 600 V 0 H 0 Z"
         id="path33858"
         inkscape:connector-curvature="0" /></clipPath><linearGradient
       x1="0"
       y1="0"
       x2="1"
       y2="0"
       gradientUnits="userSpaceOnUse"
       gradientTransform="matrix(577.39404,0,0,-577.39404,10.897949,436.3877)"
       spreadMethod="pad"
       id="linearGradient34180"><stop
         style="stop-opacity:1;stop-color:#373535"
         offset="0"
         id="stop34182" /><stop
         style="stop-opacity:1;stop-color:#ffffff"
         offset="0.516854"
         id="stop34184" /><stop
         style="stop-opacity:1;stop-color:#ffffff"
         offset="0.516854"
         id="stop34186" /><stop
         style="stop-opacity:1;stop-color:#373535"
         offset="1"
         id="stop34188" /></linearGradient><linearGradient
       x1="0"
       y1="0"
       x2="1"
       y2="0"
       gradientUnits="userSpaceOnUse"
       gradientTransform="matrix(564.45654,0,0,-564.45654,20.17041,437.16699)"
       spreadMethod="pad"
       id="linearGradient34204"><stop
         style="stop-opacity:1;stop-color:#aaacae"
         offset="0"
         id="stop34206" /><stop
         style="stop-opacity:1;stop-color:#373535"
         offset="1"
         id="stop34208" /></linearGradient><clipPath
       clipPathUnits="userSpaceOnUse"
       id="clipPath34216"><path
         d="M 19.0195,547.204 H 582.02 V 331.996 H 19.0195 Z"
         id="path34218"
         inkscape:connector-curvature="0" /></clipPath><linearGradient
       x1="0"
       y1="0"
       x2="1"
       y2="0"
       gradientUnits="userSpaceOnUse"
       gradientTransform="matrix(588.16614,0,0,-588.16614,-6.1464844,439.59961)"
       spreadMethod="pad"
       id="linearGradient34224"><stop
         style="stop-opacity:1;stop-color:#d2d4d5"
         offset="0"
         id="stop34226" /><stop
         style="stop-opacity:1;stop-color:#373535"
         offset="1"
         id="stop34228" /></linearGradient><linearGradient
       x1="0"
       y1="0"
       x2="1"
       y2="0"
       gradientUnits="userSpaceOnUse"
       gradientTransform="matrix(-577.39355,0,0,577.39355,588.29297,171.29199)"
       spreadMethod="pad"
       id="linearGradient34256"><stop
         style="stop-opacity:1;stop-color:#373535"
         offset="0"
         id="stop34258" /><stop
         style="stop-opacity:1;stop-color:#ffffff"
         offset="0.516854"
         id="stop34260" /><stop
         style="stop-opacity:1;stop-color:#ffffff"
         offset="0.516854"
         id="stop34262" /><stop
         style="stop-opacity:1;stop-color:#373535"
         offset="1"
         id="stop34264" /></linearGradient><linearGradient
       x1="0"
       y1="0"
       x2="1"
       y2="0"
       gradientUnits="userSpaceOnUse"
       gradientTransform="matrix(-564.45703,0,0,564.45703,579.02051,170.5127)"
       spreadMethod="pad"
       id="linearGradient34280"><stop
         style="stop-opacity:1;stop-color:#aaacae"
         offset="0"
         id="stop34282" /><stop
         style="stop-opacity:1;stop-color:#373535"
         offset="1"
         id="stop34284" /></linearGradient><clipPath
       clipPathUnits="userSpaceOnUse"
       id="clipPath34292"><path
         d="M 17.1714,275.684 H 580.173 V 60.4756 H 17.1714 Z"
         id="path34294"
         inkscape:connector-curvature="0" /></clipPath><linearGradient
       x1="0"
       y1="0"
       x2="1"
       y2="0"
       gradientUnits="userSpaceOnUse"
       gradientTransform="matrix(-588.16815,0,0,588.16815,605.33887,168.0791)"
       spreadMethod="pad"
       id="linearGradient34300"><stop
         style="stop-opacity:1;stop-color:#d2d4d5"
         offset="0"
         id="stop34302" /><stop
         style="stop-opacity:1;stop-color:#373535"
         offset="1"
         id="stop34304" /></linearGradient></defs><sodipodi:namedview
     pagecolor="#ffffff"
     bordercolor="#666666"
     borderopacity="1"
     objecttolerance="10"
     gridtolerance="10"
     guidetolerance="10"
     inkscape:pageopacity="0"
     inkscape:pageshadow="2"
     inkscape:window-width="1920"
     inkscape:window-height="1032"
     id="namedview33844"
     showgrid="false"
     inkscape:zoom="1.0595985"
     inkscape:cx="23.709832"
     inkscape:cy="324.99677"
     inkscape:window-x="0"
     inkscape:window-y="24"
     inkscape:window-maximized="1"
     inkscape:current-layer="g33850" /><g
     id="g33850"
     inkscape:groupmode="layer"
     inkscape:label="arrows-vector"
     transform="matrix(1.25,0,0,-1.25,0,512)"><g
       id="g955"
       transform="translate(-1.1924927,-0.57976537)"><g
         style="fill:#000000"
         transform="matrix(0.68048682,0,0,0.68048682,2.121653,14.620952)"
         id="g34168"><g
           style="fill:#000000"
           id="g34170"><g
             style="fill:#000000"
             id="g34176"><g
               style="fill:#000000"
               id="g34178"><path
                 inkscape:connector-curvature="0"
                 id="path34190"
                 style="fill:#000000;stroke:none"
                 d="m 579.796,349.831 c -70.457,153.504 -234.722,222.097 -395.956,180.71 -0.503,0.807 -0.753,1.21 -1.256,2.018 C 157.106,573.732 97.682,556.843 72.378,525.095 37.88,479.25 18.383,429.673 11.377,372.771 5.562,318.456 53.856,303.627 93.812,329.788 c 37.138,22.524 76.33,38.774 119.413,45.588 30.75,4.016 46.82,29.897 30.902,58.053 119.369,47.995 244.557,6.153 318.028,-97.725 7.283,-11.015 13.699,-20.386 15.079,-19.816 4.292,1.778 6.441,2.668 10.733,4.445 1.38,0.571 -1.686,14.321 -8.171,29.498" /></g></g></g></g><g
         style="fill:#ffcc00"
         transform="matrix(0.68048682,0,0,0.68048682,2.121653,14.620952)"
         id="g34192"><g
           style="fill:#ffcc00"
           id="g34194"><g
             style="fill:#ffcc00"
             id="g34200"><g
               style="fill:#ffcc00"
               id="g34202"><path
                 inkscape:connector-curvature="0"
                 id="path34210"
                 style="fill:#ffcc00;stroke:none"
                 d="m 81.229,523.159 v 0 C 47.007,478.256 27.599,429.622 20.587,373.64 c -1.955,-17.242 2.695,-39.083 19.862,-46.562 15.954,-6.95 34.801,0.906 48.691,9.839 38.104,22.445 78.232,38.549 122.171,45.021 12.187,2.997 24.149,5.125 30.397,16.87 4.348,8.169 3.185,19.692 -3.92,32.113 -1.187,2.075 -1.778,3.113 -2.959,5.187 122.809,51.61 253.391,8.908 328.293,-99.629 4.743,-7.367 9.095,-13.309 10.042,-12.783 4.499,2.497 6.749,3.746 11.249,6.243 0.947,0.527 -1.308,9.325 -5.585,19.119 -72.234,153.955 -239.625,220.348 -400.614,173.457 -1.917,2.94 -2.872,4.41 -4.79,7.35 -8.89,13.806 -24.409,21.384 -40.714,20.77 -20.252,-0.762 -38.941,-11.879 -51.481,-27.476" /></g></g></g></g><g
         style="fill:#ffdd55"
         transform="matrix(0.68048682,0,0,0.68048682,2.121653,14.620952)"
         id="g34212"><g
           style="fill:#ffdd55"
           id="g34214" /><g
           style="fill:#ffdd55"
           id="g34230"><g
             style="fill:#ffdd55"
             id="g34232"
             clip-path="url(#clipPath34216)"><g
               style="fill:#ffdd55"
               id="g34234"><g
                 style="fill:#ffdd55"
                 id="g34236"><g
                   style="fill:#ffdd55"
                   id="g34238"><g
                     style="fill:#ffdd55"
                     id="g34240"><path
                       inkscape:connector-curvature="0"
                       id="path34242"
                       style="fill:#ffdd55;stroke:none"
                       d="M 575.948,354.758 C 500.827,506.261 332.573,569.072 173.4,519.412 c -1.974,2.941 -2.966,4.411 -4.94,7.352 -9.094,13.739 -24.723,21.234 -41.083,20.373 C 107.153,546.072 88.68,534.54 76.499,518.67 43.241,472.964 24.896,423.818 19.02,367.643 76.161,468.813 185.172,512.559 295.498,500.177 409.513,487.38 516.929,437.608 575.859,331.996 c 2.379,1.522 3.567,2.284 5.946,3.806 0.971,0.622 -1.409,9.346 -5.857,18.956" /></g></g></g></g></g></g></g><g
         style="fill:#000000"
         transform="matrix(0.68048682,0,0,0.68048682,2.121653,-17.379048)"
         id="g34244"><g
           style="fill:#000000"
           id="g34246"><g
             style="fill:#000000"
             id="g34252"><g
               style="fill:#000000"
               id="g34254"><path
                 inkscape:connector-curvature="0"
                 id="path34266"
                 style="fill:#000000;stroke:none"
                 d="M 19.395,257.849 C 89.852,104.346 254.116,35.75 415.352,77.139 c 0.502,-0.807 0.752,-1.213 1.254,-2.02 25.48,-41.172 84.904,-24.282 110.207,7.465 34.498,45.844 53.995,95.424 61.001,152.325 5.816,54.315 -42.479,69.143 -82.434,42.983 -37.138,-22.523 -76.331,-38.774 -119.413,-45.588 -30.75,-4.017 -46.821,-29.897 -30.904,-58.052 -119.368,-47.996 -244.555,-6.155 -318.027,97.724 -7.282,11.015 -13.7,20.385 -15.079,19.815 -4.292,-1.777 -6.44,-2.668 -10.733,-4.445 -1.38,-0.571 1.686,-14.321 8.171,-29.497" /></g></g></g></g><g
         style="fill:#aad400;stroke:#999999"
         transform="matrix(0.68048682,0,0,0.68048682,2.121653,-17.379048)"
         id="g34268"><g
           style="fill:#aad400;stroke:#999999"
           id="g34270"><g
             style="fill:#aad400;stroke:#999999"
             id="g34276"><g
               style="fill:#aad400;stroke:#999999"
               id="g34278"><path
                 inkscape:connector-curvature="0"
                 id="path34286"
                 style="fill:#aad400;stroke:#999999"
                 d="m 517.963,84.52 v 0 c 34.222,44.903 53.63,93.538 60.641,149.52 1.955,17.241 -2.695,39.083 -19.862,46.562 -15.954,6.949 -34.802,-0.907 -48.69,-9.838 -38.104,-22.447 -78.233,-38.549 -122.171,-45.023 -12.188,-2.995 -24.15,-5.124 -30.398,-16.869 -4.347,-8.168 -3.185,-19.692 3.92,-32.114 1.187,-2.074 1.779,-3.112 2.959,-5.186 -122.808,-51.611 -253.39,-8.908 -328.293,99.63 -4.742,7.364 -9.094,13.309 -10.041,12.781 -4.5,-2.496 -6.75,-3.747 -11.251,-6.243 -0.947,-0.526 1.308,-9.325 5.586,-19.118 C 92.597,104.667 259.988,38.273 420.977,85.164 c 1.918,-2.94 2.872,-4.41 4.79,-7.351 8.89,-13.803 24.409,-21.383 40.714,-20.769 20.252,0.764 38.942,11.879 51.482,27.476" /></g></g></g></g><g
         style="fill:#88aa00"
         transform="matrix(0.68048682,0,0,0.68048682,2.121653,-17.379048)"
         id="g34288"><g
           style="fill:#88aa00"
           id="g34290" /><g
           style="fill:#88aa00"
           id="g34306"><g
             style="fill:#88aa00"
             id="g34308"
             clip-path="url(#clipPath34292)"><g
               style="fill:#88aa00"
               id="g34310"><g
                 style="fill:#88aa00"
                 id="g34312"><g
                   style="fill:#88aa00"
                   id="g34314"><g
                     style="fill:#88aa00"
                     id="g34316"><path
                       inkscape:connector-curvature="0"
                       id="path34318"
                       style="fill:#88aa00;stroke:none"
                       d="M 23.243,252.921 C 98.365,101.419 266.618,38.606 425.792,88.266 c 1.974,-2.94 2.966,-4.411 4.939,-7.35 9.094,-13.74 24.724,-21.235 41.082,-20.374 20.226,1.063 38.699,12.598 50.878,28.466 33.259,45.708 51.605,94.853 57.482,151.029 C 523.03,138.867 414.019,95.12 303.693,107.502 189.678,120.3 82.262,170.07 23.333,275.684 c -2.379,-1.523 -3.567,-2.284 -5.946,-3.806 -0.972,-0.623 1.409,-9.348 5.856,-18.957" /></g></g></g></g></g></g></g></g></g></svg>