<?xml version="1.0" encoding="UTF-8" standalone="no"?>
<!-- Created with Inkscape (http://www.inkscape.org/) -->

<svg
   xmlns:dc="http://purl.org/dc/elements/1.1/"
   xmlns:cc="http://creativecommons.org/ns#"
   xmlns:rdf="http://www.w3.org/1999/02/22-rdf-syntax-ns#"
   xmlns:svg="http://www.w3.org/2000/svg"
   xmlns="http://www.w3.org/2000/svg"
   xmlns:sodipodi="http://sodipodi.sourceforge.net/DTD/sodipodi-0.dtd"
   xmlns:inkscape="http://www.inkscape.org/namespaces/inkscape"
   width="512"
   height="512"
   viewBox="0 0 135.46667 135.46665"
   version="1.1"
   id="svg1097"
   inkscape:version="0.92.2 2405546, 2018-03-11"
   sodipodi:docname="logo_CG.svg">
  <defs
     id="defs1091" />
  <sodipodi:namedview
     id="base"
     pagecolor="#ffffff"
     bordercolor="#666666"
     borderopacity="1.0"
     inkscape:pageopacity="0.0"
     inkscape:pageshadow="2"
     inkscape:zoom="0.98994949"
     inkscape:cx="218.55054"
     inkscape:cy="242.3099"
     inkscape:document-units="mm"
     inkscape:current-layer="layer1"
     showgrid="false"
     fit-margin-top="0"
     fit-margin-left="0"
     fit-margin-right="0"
     fit-margin-bottom="0"
     units="px"
     inkscape:window-width="1920"
     inkscape:window-height="1032"
     inkscape:window-x="0"
     inkscape:window-y="24"
     inkscape:window-maximized="1" />
  <metadata
     id="metadata1094">
    <rdf:RDF>
      <cc:Work
         rdf:about="">
        <dc:format>image/svg+xml</dc:format>
        <dc:type
           rdf:resource="http://purl.org/dc/dcmitype/StillImage" />
        <dc:title></dc:title>
      </cc:Work>
    </rdf:RDF>
  </metadata>
  <g
     inkscape:label="Calque 1"
     inkscape:groupmode="layer"
     id="layer1"
     transform="translate(-10.885717,-23.647643)">
    <rect
       style="display:inline;fill:#80b3ff;fill-opacity:1;fill-rule:nonzero;stroke:#000000;stroke-width:2.10008264;stroke-linejoin:round;stroke-miterlimit:4;stroke-dasharray:none;stroke-opacity:1"
       id="rect119-3"
       width="133.36658"
       height="133.36658"
       x="11.935759"
       y="24.69766"
       inkscape:export-xdpi="96"
       inkscape:export-ydpi="96" />
    <path
       style="display:inline;fill:#aad400;stroke:#000000;stroke-width:0.2458979px;stroke-linecap:round;stroke-linejoin:round;stroke-opacity:1"
       d="m 13.088311,63.7874 6.91751,11.972158 18.928371,-25.389972 34.12386,31.430394 c 0,0 8.032308,-3.941951 14.55679,-9.449232 9.80762,-8.278579 14.011138,-15.247088 28.512608,-19.345343 8.26793,2.941542 18.56333,24.624794 18.56333,24.624794 l 9.83635,-19.465829 -0.2189,98.73353 -131.135079,0.14174 z"
       id="path926-6"
       inkscape:connector-curvature="0"
       sodipodi:nodetypes="ccccscccccc"
       inkscape:export-xdpi="96"
       inkscape:export-ydpi="96" />
    <path
       style="display:inline;fill:#ffffff;stroke:none;stroke-width:0.25459543px;stroke-linecap:butt;stroke-linejoin:miter;stroke-opacity:1"
       d="m 13.307491,65.70165 11.77703,20.741058 c 0,0 -2.68504,3.277762 -6.52456,5.284131 -3.839521,2.00637 -5.2872,1.141461 -5.2872,1.141461 z"
       id="path928-7"
       inkscape:connector-curvature="0"
       sodipodi:nodetypes="cczcc"
       inkscape:export-xdpi="96"
       inkscape:export-ydpi="96" />
    <path
       style="display:inline;fill:#ffffff;stroke:none;stroke-width:0.26458332px;stroke-linecap:butt;stroke-linejoin:miter;stroke-opacity:1"
       d="m 25.651481,67.165921 c 0,0 1.6204,2.346698 5.76414,4.252229 4.14374,1.90553 14.733041,-0.02101 18.993301,-1.795391 4.260268,-1.77443 4.535718,-4.34672 4.535718,-4.34672 L 38.51189,50.716074 Z"
       id="path930-5"
       inkscape:connector-curvature="0"
       sodipodi:nodetypes="czzccc"
       inkscape:export-xdpi="96"
       inkscape:export-ydpi="96" />
    <path
       style="display:inline;fill:#ffffff;stroke:none;stroke-width:0.26458332px;stroke-linecap:butt;stroke-linejoin:miter;stroke-opacity:1"
       d="m 101.00957,62.524729 c 0,0 1.30427,3.70889 14.78924,5.04928 6.57799,0.653851 12.64091,-2.189589 12.64091,-2.189589 0,0 -3.2713,-10.09319 -10.47373,-11.977526 -7.45193,-1.949609 -16.95642,9.117835 -16.95642,9.117835 z"
       id="path934-5"
       inkscape:connector-curvature="0"
       sodipodi:nodetypes="cscsc"
       inkscape:export-xdpi="96"
       inkscape:export-ydpi="96" />
    <path
       style="display:inline;fill:#ffffff;stroke:none;stroke-width:0.25319418px;stroke-linecap:butt;stroke-linejoin:miter;stroke-opacity:1"
       d="m 144.42558,59.37822 -17.66546,36.13591 c 0,0 2.60505,4.291169 7.2171,4.58386 3.2097,0.20369 10.22171,-0.003 10.22171,-0.003 z"
       id="path936-6"
       inkscape:connector-curvature="0"
       sodipodi:nodetypes="ccscc"
       inkscape:export-xdpi="96"
       inkscape:export-ydpi="96" />
    <path
       style="display:inline;fill:none;stroke:#333333;stroke-width:2.64583325;stroke-linecap:round;stroke-linejoin:miter;stroke-miterlimit:4;stroke-dasharray:none;stroke-opacity:1;paint-order:normal"
       d="m 12.285731,63.07915 c 0,0 21.34279,41.98018 31.300619,53.81625 10.274692,12.2127 28.178231,19.25117 28.178231,19.25117"
       id="path938-2"
       inkscape:connector-curvature="0"
       sodipodi:nodetypes="csc"
       inkscape:export-xdpi="96"
       inkscape:export-ydpi="96" />
    <path
       style="display:inline;fill:none;stroke:#333333;stroke-width:2.64583325;stroke-linecap:butt;stroke-linejoin:round;stroke-miterlimit:4;stroke-dasharray:none;stroke-opacity:1"
       d="M 19.215481,75.94928 38.51189,50.716074 73.661691,81.800228"
       id="path940-9"
       inkscape:connector-curvature="0"
       sodipodi:nodetypes="ccc"
       inkscape:export-xdpi="96"
       inkscape:export-ydpi="96" />
    <path
       style="display:inline;fill:none;stroke:#333333;stroke-width:2.64583325;stroke-linecap:round;stroke-linejoin:round;stroke-miterlimit:4;stroke-dasharray:none;stroke-opacity:1"
       d="m 47.385111,98.443449 c 0,0 19.42167,-9.471398 26.22741,-15.77657 4.58643,-4.249089 12.966581,-8.227859 22.19221,-16.745429 6.332179,-5.846191 20.233329,-17.507023 25.540749,-10.716895 7.01026,8.968674 13.864,21.493864 13.864,21.493864 l 9.2161,-17.320199"
       id="path942-1"
       inkscape:connector-curvature="0"
       sodipodi:nodetypes="cssscc"
       inkscape:export-xdpi="96"
       inkscape:export-ydpi="96" />
    <path
       style="display:inline;fill:#333333;stroke:#333333;stroke-width:2.63767862;stroke-linecap:butt;stroke-linejoin:miter;stroke-miterlimit:4;stroke-dasharray:none;stroke-opacity:1"
       d="M 144.42558,59.37822 92.389291,158.36914"
       id="path946-7"
       inkscape:connector-curvature="0"
       sodipodi:nodetypes="cc"
       inkscape:export-xdpi="96"
       inkscape:export-ydpi="96" />
    <path
       style="display:inline;fill:#ffeeaa;stroke:none;stroke-width:0.26310909px;stroke-linecap:butt;stroke-linejoin:miter;stroke-opacity:1"
       d="m 91.568252,156.94539 c 0,0 7.8134,-31.30989 3.573391,-37.37709 -4.240012,-6.0672 -20.717082,-6.78618 -30.748991,-8.21206 -10.03191,-1.42589 -18.272882,-3.24041 -22.203331,-9.22697 -3.930449,-5.986561 10.409621,-12.355442 13.75791,-14.107121 1.611511,-0.843068 16.154552,-5.867637 16.154552,-5.867637 l -0.310639,-0.258561 c 0,0 -13.094374,3.568137 -17.476022,5.573438 -4.381651,2.005301 -17.073191,7.19794 -15.42161,14.869101 1.651569,7.67115 13.466929,11.11508 23.104129,12.8509 9.637201,1.73583 16.76592,2.32409 21.210881,6.974 4.444979,4.64991 -32.70022,34.75429 -32.70022,34.75429 z"
       id="path950-0"
       inkscape:connector-curvature="0"
       sodipodi:nodetypes="czzzscczzzzcc"
       inkscape:export-xdpi="96"
       inkscape:export-ydpi="96" />
    <path
       style="display:inline;fill:#aaeeff;stroke:none;stroke-width:0.26458332px;stroke-linecap:butt;stroke-linejoin:miter;stroke-opacity:1"
       d="m 90.853348,104.61045 c -4.862347,-0.77652 -24.361829,1.21075 -29.128099,3.50693 -3.499671,1.68599 19.283624,3.6916 26.789493,5.4466 7.102599,1.66071 9.834826,8.68339 16.513398,7.85563 19.37042,-3.58618 -7.812527,-15.79311 -14.174792,-16.80916 z"
       id="path1053"
       inkscape:connector-curvature="0"
       sodipodi:nodetypes="ssscs"
       inkscape:export-xdpi="96"
       inkscape:export-ydpi="96" />
    <rect
       style="display:inline;fill:none;fill-opacity:1;fill-rule:nonzero;stroke:#000000;stroke-width:2.10008264;stroke-linejoin:round;stroke-miterlimit:4;stroke-dasharray:none;stroke-opacity:1"
       id="rect119-3-9"
       width="133.36658"
       height="133.36658"
       x="11.935759"
       y="24.697668"
       inkscape:export-xdpi="96"
       inkscape:export-ydpi="96" />
  </g>
</svg>
