<?xml version="1.0" encoding="UTF-8" standalone="no"?>
<!-- Generator: Adobe Illustrator 15.1.0, SVG Export Plug-In . SVG Version: 6.00 Build 0)  -->

<svg
   xmlns:dc="http://purl.org/dc/elements/1.1/"
   xmlns:cc="http://creativecommons.org/ns#"
   xmlns:rdf="http://www.w3.org/1999/02/22-rdf-syntax-ns#"
   xmlns:svg="http://www.w3.org/2000/svg"
   xmlns="http://www.w3.org/2000/svg"
   xmlns:sodipodi="http://sodipodi.sourceforge.net/DTD/sodipodi-0.dtd"
   xmlns:inkscape="http://www.inkscape.org/namespaces/inkscape"
   version="1.1"
   id="Layer_1"
   x="0px"
   y="0px"
   width="512"
   height="512"
   viewBox="0 0 512 512"
   enable-background="new 0 0 100 100"
   xml:space="preserve"
   sodipodi:docname="Moon-Waning-Crescent.svg"
   inkscape:version="0.92.1 r15371"><metadata
     id="metadata9"><rdf:RDF><cc:Work
         rdf:about=""><dc:format>image/svg+xml</dc:format><dc:type
           rdf:resource="http://purl.org/dc/dcmitype/StillImage" /><dc:title></dc:title></cc:Work></rdf:RDF></metadata><defs
     id="defs7" /><sodipodi:namedview
     pagecolor="#ffffff"
     bordercolor="#666666"
     borderopacity="1"
     objecttolerance="10"
     gridtolerance="10"
     guidetolerance="10"
     inkscape:pageopacity="0"
     inkscape:pageshadow="2"
     inkscape:window-width="1680"
     inkscape:window-height="991"
     id="namedview5"
     showgrid="false"
     inkscape:zoom="2.36"
     inkscape:cx="-2.5423729"
     inkscape:cy="100.84746"
     inkscape:window-x="0"
     inkscape:window-y="0"
     inkscape:window-maximized="1"
     inkscape:current-layer="Layer_1" /><path
     d="M 256.7795,501.117 C 120.05633,501.117 9.188,390.28994 9.188,253.54613 9.188,116.80233 120.05633,5.9546343 256.7795,5.9546343 393.5233,5.9546343 504.371,116.80233 504.371,253.54613 504.371,390.28994 393.5233,501.117 256.7795,501.117 Z M 298.04819,93.918845 c -13.22662,-3.425301 -26.98972,-5.406198 -41.26869,-5.406198 -91.1419,0 -165.054122,73.870953 -165.054122,165.033483 0,91.16254 73.912222,165.03349 165.054122,165.03349 14.27897,0 28.04207,-1.9809 41.26869,-5.4062 -71.14722,-18.34393 -123.78543,-82.74372 -123.78543,-159.62729 0,-76.88356 52.63821,-141.30399 123.78543,-159.627285 z"
     id="path2"
     inkscape:connector-curvature="0"
     style="clip-rule:evenodd;fill-rule:evenodd;stroke-width:20.6343441" /></svg>