<?xml version="1.0" encoding="UTF-8" standalone="no"?>
<!-- Generator: Adobe Illustrator 15.1.0, SVG Export Plug-In . SVG Version: 6.00 Build 0)  -->

<svg
   xmlns:dc="http://purl.org/dc/elements/1.1/"
   xmlns:cc="http://creativecommons.org/ns#"
   xmlns:rdf="http://www.w3.org/1999/02/22-rdf-syntax-ns#"
   xmlns:svg="http://www.w3.org/2000/svg"
   xmlns="http://www.w3.org/2000/svg"
   xmlns:sodipodi="http://sodipodi.sourceforge.net/DTD/sodipodi-0.dtd"
   xmlns:inkscape="http://www.inkscape.org/namespaces/inkscape"
   version="1.1"
   id="Layer_1"
   x="0px"
   y="0px"
   width="512"
   height="512"
   viewBox="0 0 512 512"
   enable-background="new 0 0 100 100"
   xml:space="preserve"
   sodipodi:docname="Moon-Waxing-Crescent.svg"
   inkscape:version="0.92.1 r15371"><metadata
     id="metadata9"><rdf:RDF><cc:Work
         rdf:about=""><dc:format>image/svg+xml</dc:format><dc:type
           rdf:resource="http://purl.org/dc/dcmitype/StillImage" /><dc:title></dc:title></cc:Work></rdf:RDF></metadata><defs
     id="defs7" /><sodipodi:namedview
     pagecolor="#ffffff"
     bordercolor="#666666"
     borderopacity="1"
     objecttolerance="10"
     gridtolerance="10"
     guidetolerance="10"
     inkscape:pageopacity="0"
     inkscape:pageshadow="2"
     inkscape:window-width="1680"
     inkscape:window-height="991"
     id="namedview5"
     showgrid="false"
     inkscape:zoom="2.36"
     inkscape:cx="-2.5423729"
     inkscape:cy="50"
     inkscape:window-x="0"
     inkscape:window-y="0"
     inkscape:window-maximized="1"
     inkscape:current-layer="Layer_1" /><path
     d="M 256.76918,501.117 C 393.51868,501.117 504.371,390.24405 504.371,253.53582 504.371,116.78632 393.51868,5.9133648 256.76918,5.9133648 120.04032,5.9133648 9.188,116.78632 9.188,253.53582 9.188,390.24405 120.04032,501.117 256.76918,501.117 Z M 215.51941,93.860606 c 13.20653,-3.384174 26.99085,-5.406424 41.24977,-5.406424 91.16634,0 165.061,73.915298 165.061,165.081638 0,91.12506 -73.89466,165.04036 -165.061,165.04036 -14.25892,0 -28.04324,-2.02225 -41.24977,-5.40642 C 286.66959,394.8457 339.31,330.40195 339.31,253.53582 339.31,176.62841 286.66959,112.22594 215.51941,93.860606 Z"
     id="path2"
     inkscape:connector-curvature="0"
     style="clip-rule:evenodd;fill-rule:evenodd;stroke-width:20.63520432" /></svg>