<?xml version="1.0" encoding="UTF-8" standalone="no"?>
<!-- Created with Inkscape (http://www.inkscape.org/) -->

<svg
   xmlns:dc="http://purl.org/dc/elements/1.1/"
   xmlns:cc="http://creativecommons.org/ns#"
   xmlns:rdf="http://www.w3.org/1999/02/22-rdf-syntax-ns#"
   xmlns:svg="http://www.w3.org/2000/svg"
   xmlns="http://www.w3.org/2000/svg"
   xmlns:sodipodi="http://sodipodi.sourceforge.net/DTD/sodipodi-0.dtd"
   xmlns:inkscape="http://www.inkscape.org/namespaces/inkscape"
   id="svg2"
   xml:space="preserve"
   viewBox="0 0 512 512"
   version="1.1"
   sodipodi:docname="note.svg"
   width="512"
   height="512"
   inkscape:version="0.92.2 2405546, 2018-03-11"><sodipodi:namedview
   pagecolor="#ffffff"
   bordercolor="#666666"
   borderopacity="1"
   objecttolerance="10"
   gridtolerance="10"
   guidetolerance="10"
   inkscape:pageopacity="0"
   inkscape:pageshadow="2"
   inkscape:window-width="1920"
   inkscape:window-height="1032"
   id="namedview37"
   showgrid="false"
   inkscape:zoom="0.5"
   inkscape:cx="256"
   inkscape:cy="256"
   inkscape:window-x="0"
   inkscape:window-y="24"
   inkscape:window-maximized="1"
   inkscape:current-layer="svg2" />
  <defs
   id="defs6">
    <clipPath
   id="clipPath16">
      <path
   id="path18"
   d="M 0,600 H 800 V 0 H 0 Z"
   inkscape:connector-curvature="0" />
    </clipPath>
  
    
  
      
    
        
        
        
        
        
        
        
        
        
        
        
        
        
      </defs>
  
<metadata
   id="metadata34"><rdf:RDF><cc:Work><dc:format>image/svg+xml</dc:format><dc:type
         rdf:resource="http://purl.org/dc/dcmitype/StillImage" /><cc:license
         rdf:resource="http://creativecommons.org/publicdomain/zero/1.0/" /><dc:publisher><cc:Agent
           rdf:about="http://openclipart.org/"><dc:title>Openclipart</dc:title></cc:Agent></dc:publisher><dc:title></dc:title></cc:Work><cc:License
       rdf:about="http://creativecommons.org/publicdomain/zero/1.0/"><cc:permits
         rdf:resource="http://creativecommons.org/ns#Reproduction" /><cc:permits
         rdf:resource="http://creativecommons.org/ns#Distribution" /><cc:permits
         rdf:resource="http://creativecommons.org/ns#DerivativeWorks" /></cc:License></rdf:RDF></metadata><g
   id="g1027"
   transform="matrix(0.98047883,0,0,0.98047656,5.0008064,5.0003775)"
   style="stroke-width:1.01991153"><g
     id="g20"
     transform="matrix(1.2190331,0,0,-1.2190389,511.9939,445.43683)"
     style="fill:#f9f9f9;stroke:#333333;stroke-width:8.36653996;stroke-miterlimit:4;stroke-dasharray:none;stroke-opacity:1">
          <path
   id="path22"
   style="fill:#f9f9f9;stroke:#333333;stroke-width:8.36653996;stroke-miterlimit:4;stroke-dasharray:none;stroke-opacity:1"
   d="m 0,0 c 0,-30.155 -24.445,-54.6 -54.6,-54.6 h -310.8 c -30.155,0 -54.6,24.445 -54.6,54.6 v 310.8 c 0,30.155 24.445,54.6 54.6,54.6 H -54.6 C -24.445,365.4 0,340.955 0,310.8 Z"
   inkscape:connector-curvature="0" />
        </g><g
     style="stroke:#cccccc;stroke-width:1.01991153"
     id="g977"><path
       style="fill:none;stroke:#cccccc;stroke-width:3.05973411;stroke-linecap:butt;stroke-linejoin:miter;stroke-miterlimit:4;stroke-dasharray:none;stroke-opacity:1"
       d="M 3.4639876,49.599575 H 516.13349"
       id="path925"
       inkscape:connector-curvature="0" /><path
       inkscape:connector-curvature="0"
       id="path927"
       d="M 3.4639876,108.17099 H 516.13349"
       style="fill:none;stroke:#cccccc;stroke-width:3.05973411;stroke-linecap:butt;stroke-linejoin:miter;stroke-miterlimit:4;stroke-dasharray:none;stroke-opacity:1" /><path
       style="fill:none;stroke:#cccccc;stroke-width:3.05973411;stroke-linecap:butt;stroke-linejoin:miter;stroke-miterlimit:4;stroke-dasharray:none;stroke-opacity:1"
       d="M 3.4639876,166.74243 H 516.13349"
       id="path929"
       inkscape:connector-curvature="0" /><path
       inkscape:connector-curvature="0"
       id="path931"
       d="M 3.4639876,225.31384 H 516.13349"
       style="fill:none;stroke:#cccccc;stroke-width:3.05973411;stroke-linecap:butt;stroke-linejoin:miter;stroke-miterlimit:4;stroke-dasharray:none;stroke-opacity:1" /><path
       style="fill:none;stroke:#cccccc;stroke-width:3.05973411;stroke-linecap:butt;stroke-linejoin:miter;stroke-miterlimit:4;stroke-dasharray:none;stroke-opacity:1"
       d="M 3.4639876,283.88529 H 516.13349"
       id="path933"
       inkscape:connector-curvature="0" /><path
       inkscape:connector-curvature="0"
       id="path935"
       d="M 3.4639876,342.45673 H 516.13349"
       style="fill:none;stroke:#cccccc;stroke-width:3.05973411;stroke-linecap:butt;stroke-linejoin:miter;stroke-miterlimit:4;stroke-dasharray:none;stroke-opacity:1" /><path
       style="fill:none;stroke:#cccccc;stroke-width:3.05973411;stroke-linecap:butt;stroke-linejoin:miter;stroke-miterlimit:4;stroke-dasharray:none;stroke-opacity:1"
       d="M 3.4639876,401.02815 H 516.13349"
       id="path937"
       inkscape:connector-curvature="0" /><path
       style="fill:none;stroke:#cccccc;stroke-width:3.05973411;stroke-linecap:butt;stroke-linejoin:miter;stroke-miterlimit:4;stroke-dasharray:none;stroke-opacity:1"
       d="M 3.4639876,459.59958 H 516.13349"
       id="path941"
       inkscape:connector-curvature="0" /></g><g
     id="g28"
     transform="matrix(1.2190331,0,0,-1.2190389,224.91161,400.308)"
     style="stroke-width:1.04581749">
          <path
   id="path30"
   style="fill:#fbb03b;stroke-width:1.04581749"
   d="M 0,0 C -3.244,-3.247 -9.218,-2.572 -13.319,1.527 L -72.716,60.924 C -76.817,65.025 -77.49,71 -74.244,74.246 l 164.91,164.91 c 3.266,3.263 9.221,2.573 13.322,-1.528 l 59.397,-59.398 c 4.101,-4.101 4.791,-10.056 1.528,-13.319 L -0.007,0.001 Z"
   inkscape:connector-curvature="0" />
        </g><g
     style="stroke:#cccccc;stroke-width:1.01991153"
     transform="rotate(-90,-20.20126,-21.40042)"
     id="g967"><path
       inkscape:connector-curvature="0"
       id="path943"
       d="m -552.53601,49.599575 h 512.6695"
       style="fill:none;stroke:#cccccc;stroke-width:3.05973411;stroke-linecap:butt;stroke-linejoin:miter;stroke-miterlimit:4;stroke-dasharray:none;stroke-opacity:1" /><path
       style="fill:none;stroke:#cccccc;stroke-width:3.05973411;stroke-linecap:butt;stroke-linejoin:miter;stroke-miterlimit:4;stroke-dasharray:none;stroke-opacity:1"
       d="m -552.53601,108.17099 h 512.6695"
       id="path945"
       inkscape:connector-curvature="0" /><path
       inkscape:connector-curvature="0"
       id="path947"
       d="m -552.53601,166.74243 h 512.6695"
       style="fill:none;stroke:#cccccc;stroke-width:3.05973411;stroke-linecap:butt;stroke-linejoin:miter;stroke-miterlimit:4;stroke-dasharray:none;stroke-opacity:1" /><path
       style="fill:none;stroke:#cccccc;stroke-width:3.05973411;stroke-linecap:butt;stroke-linejoin:miter;stroke-miterlimit:4;stroke-dasharray:none;stroke-opacity:1"
       d="m -552.53601,225.31384 h 512.6695"
       id="path949"
       inkscape:connector-curvature="0" /><path
       inkscape:connector-curvature="0"
       id="path951"
       d="m -552.53601,283.88529 h 512.6695"
       style="fill:none;stroke:#cccccc;stroke-width:3.05973411;stroke-linecap:butt;stroke-linejoin:miter;stroke-miterlimit:4;stroke-dasharray:none;stroke-opacity:1" /><path
       style="fill:none;stroke:#cccccc;stroke-width:3.05973411;stroke-linecap:butt;stroke-linejoin:miter;stroke-miterlimit:4;stroke-dasharray:none;stroke-opacity:1"
       d="m -552.53601,342.45673 h 512.6695"
       id="path953"
       inkscape:connector-curvature="0" /><path
       inkscape:connector-curvature="0"
       id="path955"
       d="m -552.53601,401.02815 h 512.6695"
       style="fill:none;stroke:#cccccc;stroke-width:3.05973411;stroke-linecap:butt;stroke-linejoin:miter;stroke-miterlimit:4;stroke-dasharray:none;stroke-opacity:1" /><path
       inkscape:connector-curvature="0"
       id="path957"
       d="m -552.53601,459.59958 h 512.6695"
       style="fill:none;stroke:#cccccc;stroke-width:3.05973411;stroke-linecap:butt;stroke-linejoin:miter;stroke-miterlimit:4;stroke-dasharray:none;stroke-opacity:1" /></g><g
     id="g32"
     transform="matrix(1.2190331,0,0,-1.2190389,256.60647,368.44233)"
     style="stroke-width:1.04581749">
          <path
   id="path34"
   style="fill:#fbb03b;stroke-width:1.04581749"
   d="m 0,0 c -3.244,-3.243 -9.218,-2.569 -13.319,1.526 l -59.397,59.33 c -4.101,4.097 -4.774,10.065 -1.528,13.308 l 164.91,164.73 c 3.266,3.259 9.221,2.57 13.322,-1.526 l 59.397,-59.332 c 4.101,-4.097 4.791,-10.045 1.528,-13.304 L -0.007,0.002 Z"
   inkscape:connector-curvature="0" />
        </g><g
     id="g36"
     transform="matrix(1.2190331,0,0,-1.2190389,200.27495,424.94478)"
     style="stroke-width:1.04581749">
          <path
   id="path38"
   style="fill:#fcfad2;stroke-width:1.04581749"
   d="m 0,0 -96.52,-22.273 22.274,96.52 96.519,22.274 z"
   inkscape:connector-curvature="0" />
        </g><g
     id="g40"
     transform="matrix(1.2190331,0,0,-1.2190389,128.05943,342.94003)"
     style="stroke-width:1.04581749">
          <path
   id="path42"
   style="fill:#fbb03b;stroke-width:1.04581749"
   d="m 0,0 c 3.93,-3.929 6.314,-8.845 7.209,-14.041 7.662,-0.302 15.062,-3.251 20.735,-8.923 5.919,-5.919 8.862,-13.716 8.944,-21.721 5.623,-0.714 10.949,-3.151 15.159,-7.364 4.187,-4.185 6.624,-9.476 7.352,-15.064 l 208.83,208.84 c 4.382,4.382 4.6,11.246 0.5,15.347 l -59.396,59.397 c -4.102,4.1 -10.968,3.883 -15.351,-0.499 L -14.668,7.302 c 5.438,-0.798 10.581,-3.22 14.67,-7.31"
   inkscape:connector-curvature="0" />
        </g><g
     id="g44"
     transform="matrix(1.2190331,0,0,-1.2190389,377.49798,247.72091)"
     style="stroke-width:1.04581749">
          <path
   id="path46"
   style="fill:#f2f2f2;stroke-width:1.04581749"
   d="M 0,0 -74.246,74.247 -37.123,111.37 37.123,37.121 Z"
   inkscape:connector-curvature="0" />
        </g><g
     id="g48"
     transform="matrix(1.2190331,0,0,-1.2190389,350.59392,220.81672)"
     style="stroke-width:1.04581749">
          <path
   id="path50"
   style="fill:#e6e6e6;stroke-width:1.04581749"
   d="M 0,0 -24.156,24.154 12.965,61.278 37.121,37.123 Z"
   inkscape:connector-curvature="0" />
        </g><g
     id="g52"
     transform="matrix(1.2190331,0,0,-1.2190389,377.53455,247.75748)"
     style="stroke-width:1.04581749">
          <path
   id="path54"
   style="fill:#cccccc;stroke-width:1.04581749"
   d="M 0,0 -22.101,22.103 15.021,59.226 37.123,37.123 Z"
   inkscape:connector-curvature="0" />
        </g><g
     id="g56"
     transform="matrix(1.2190331,0,0,-1.2190389,95.145533,397.80898)"
     style="stroke-width:1.04581749">
          <path
   id="path58"
   style="fill:#666666;stroke-width:1.04581749"
   d="m 0,0 -10.276,-44.535 44.53,10.277 c -0.026,8.761 -3.377,17.511 -10.061,24.193 C 17.51,-3.38 8.759,-0.029 0,0"
   inkscape:connector-curvature="0" />
        </g><g
     id="g60"
     transform="matrix(1.2190331,0,0,-1.2190389,456.86922,150.24656)"
     style="stroke-width:1.04581749">
          <path
   id="path62"
   style="fill:#ff8a6a;stroke-width:1.04581749"
   d="m 0,0 -59.396,59.397 c -4.102,4.1 -10.968,3.883 -15.351,-0.5 l -39.01,-39.01 74.246,-74.247 39.011,39.012 C 3.882,-10.963 4.1,-4.099 0,0.003"
   inkscape:connector-curvature="0" />
        </g><g
     id="g64"
     transform="matrix(1.2190331,0,0,-1.2190389,172.93204,395.7488)"
     style="stroke-width:1.04581749">
          <path
   id="path66"
   style="fill:#db923b;stroke-width:1.04581749"
   d="m 0,0 c 0.024,-0.457 0.069,-0.909 0.072,-1.369 5.64,-0.698 10.976,-3.124 15.186,-7.337 4.187,-4.186 6.614,-9.486 7.326,-15.092 l 145.23,145.23 -23.19,23.19 L 0.004,0.002 Z"
   inkscape:connector-curvature="0" />
        </g><g
     id="g68"
     transform="matrix(1.2190331,0,0,-1.2190389,321.14208,191.36474)"
     style="stroke-width:1.04581749">
          <path
   id="path70"
   style="fill:#f2a43d;stroke-width:1.04581749"
   d="m 0,0 -140.6,-140.59 c 3.734,-1.48 7.207,-3.685 10.19,-6.669 5.919,-5.919 8.844,-13.732 8.899,-21.764 0.229,-0.03 0.451,-0.079 0.679,-0.111 l 144.99,144.98 -24.16,24.15 z"
   inkscape:connector-curvature="0" />
        </g><g
     style="fill:none;stroke:#333333;stroke-width:8.36653996;stroke-miterlimit:4;stroke-dasharray:none;stroke-opacity:1"
     transform="matrix(1.2190331,0,0,-1.2190389,511.9939,445.43683)"
     id="g981">
          <path
   inkscape:connector-curvature="0"
   d="m 0,0 c 0,-30.155 -24.445,-54.6 -54.6,-54.6 h -310.8 c -30.155,0 -54.6,24.445 -54.6,54.6 v 310.8 c 0,30.155 24.445,54.6 54.6,54.6 H -54.6 C -24.445,365.4 0,340.955 0,310.8 Z"
   style="fill:none;stroke:#333333;stroke-width:8.36653996;stroke-miterlimit:4;stroke-dasharray:none;stroke-opacity:1"
   id="path979" />
        </g></g></svg>