<?xml version="1.0" encoding="UTF-8" standalone="no"?>
<svg
   xmlns:dc="http://purl.org/dc/elements/1.1/"
   xmlns:cc="http://creativecommons.org/ns#"
   xmlns:rdf="http://www.w3.org/1999/02/22-rdf-syntax-ns#"
   xmlns:svg="http://www.w3.org/2000/svg"
   xmlns="http://www.w3.org/2000/svg"
   xmlns:sodipodi="http://sodipodi.sourceforge.net/DTD/sodipodi-0.dtd"
   xmlns:inkscape="http://www.inkscape.org/namespaces/inkscape"
   viewBox="0 0 512 512"
   version="1.1"
   id="svg4"
   sodipodi:docname="open.svg"
   inkscape:export-filename="C:\Users\pierre.delore\Dropbox\Perso\tmp\test-open.png"
   inkscape:export-xdpi="4.5"
   inkscape:export-ydpi="4.5"
   inkscape:version="0.92.4 (f8dce91, 2019-08-02)">
  <metadata
     id="metadata10">
    <rdf:RDF>
      <cc:Work
         rdf:about="">
        <dc:format>image/svg+xml</dc:format>
        <dc:type
           rdf:resource="http://purl.org/dc/dcmitype/StillImage" />
        <dc:title></dc:title>
      </cc:Work>
    </rdf:RDF>
  </metadata>
  <defs
     id="defs8" />
  <sodipodi:namedview
     pagecolor="#ffffff"
     bordercolor="#666666"
     borderopacity="1"
     objecttolerance="10"
     gridtolerance="10"
     guidetolerance="10"
     inkscape:pageopacity="0"
     inkscape:pageshadow="2"
     inkscape:window-width="1920"
     inkscape:window-height="1033"
     id="namedview6"
     showgrid="false"
     inkscape:zoom="0.65186408"
     inkscape:cx="463.85509"
     inkscape:cy="573.86029"
     inkscape:window-x="0"
     inkscape:window-y="25"
     inkscape:window-maximized="1"
     inkscape:current-layer="layer2" />
  <g
     inkscape:groupmode="layer"
     id="layer2"
     inkscape:label="copie"
     style="display:inline;opacity:1">
    <path
       style="fill:#ffeeaa;stroke:#000000;stroke-width:28.1771431;stroke-linecap:butt;stroke-linejoin:miter;stroke-miterlimit:4;stroke-dasharray:none;stroke-opacity:1"
       d="m 24.785991,45.752181 c 9.82993,-11.606678 31.485721,-9.750356 31.485721,-9.750356 H 202.40798 l 64.24079,75.745895 h 192.1087 c 0,0 18.5071,-0.68231 27.4288,9.75035 9.41387,11.00818 10.42279,39.7579 10.42279,39.7579 v 305.45508 c 0,0 1.54053,16.77468 -4.16912,23.45128 -5.26665,6.15861 -18.17542,4.87518 -18.17542,4.87518 H 43.347112 c 0,0 -15.960246,-1.19208 -21.758959,-9.75037 -7.40603,-10.93048 -6.496485,-26.84933 -6.496485,-26.84933 L 14.84885,80.57569 c 0,0 -1.812528,-20.950106 9.937141,-34.823509 z"
       id="path849"
       inkscape:connector-curvature="0"
       sodipodi:nodetypes="sccccsccsccsccs" />
    <path
       style="display:inline;opacity:1;fill:#d38d5f;stroke:none;stroke-width:28.47286797;stroke-linecap:butt;stroke-linejoin:miter;stroke-miterlimit:4;stroke-dasharray:none;stroke-opacity:1"
       d="M 36.544612,53.795961 C 43.539038,47.218213 68.894643,47.75375 68.894643,47.75375 l 128.980777,-0.114818 62.72493,78.213098 -232.14064,0.0993 c 0,-3.71715 0.184293,-32.879643 0.184293,-42.644343 -0.563774,-15.90886 2.383679,-24.322747 7.900609,-29.511016 z"
       id="path849-9"
       inkscape:connector-curvature="0"
       sodipodi:nodetypes="scccccs" />
  </g>
</svg>
