<?xml version="1.0" encoding="UTF-8" standalone="no"?>
<!-- Generator: Adobe Illustrator 19.2.1, SVG Export Plug-In . SVG Version: 6.00 Build 0)  -->

<svg
   xmlns:dc="http://purl.org/dc/elements/1.1/"
   xmlns:cc="http://creativecommons.org/ns#"
   xmlns:rdf="http://www.w3.org/1999/02/22-rdf-syntax-ns#"
   xmlns:svg="http://www.w3.org/2000/svg"
   xmlns="http://www.w3.org/2000/svg"
   xmlns:sodipodi="http://sodipodi.sourceforge.net/DTD/sodipodi-0.dtd"
   xmlns:inkscape="http://www.inkscape.org/namespaces/inkscape"
   version="1.1"
   id="svg4619"
   inkscape:version="0.92.2 2405546, 2018-03-11"
   sodipodi:docname="photo.svg"
   x="0px"
   y="0px"
   width="512"
   height="512"
   viewBox="0 0 512 512"
   xml:space="preserve"><metadata
   id="metadata8"><rdf:RDF><cc:Work
       rdf:about=""><dc:format>image/svg+xml</dc:format><dc:type
         rdf:resource="http://purl.org/dc/dcmitype/StillImage" /><dc:title></dc:title></cc:Work></rdf:RDF></metadata><defs
   id="defs6" /><sodipodi:namedview
   pagecolor="#ffffff"
   bordercolor="#666666"
   borderopacity="1"
   objecttolerance="10"
   gridtolerance="10"
   guidetolerance="10"
   inkscape:pageopacity="0"
   inkscape:pageshadow="2"
   inkscape:window-width="1920"
   inkscape:window-height="1032"
   id="namedview4"
   showgrid="false"
   inkscape:zoom="0.69532167"
   inkscape:cx="348.37956"
   inkscape:cy="253.54149"
   inkscape:window-x="0"
   inkscape:window-y="24"
   inkscape:window-maximized="1"
   inkscape:current-layer="svg4619" />
<path
   id="rect7143"
   d="m 196.92308,59.077015 c -21.81908,0 -29.62511,19.86952 -39.38462,39.3846 l -19.6923,39.384595 H 59.076926 C 26.348307,137.84621 0,164.19451 0,196.92312 V 393.8461 c 0,32.72858 26.348307,59.07688 59.076926,59.07688 H 452.92311 c 32.72859,0 59.0769,-26.3483 59.0769,-59.07688 V 196.92312 c 0,-32.72861 -26.34831,-59.07691 -59.0769,-59.07691 H 374.15386 L 354.46155,98.461615 c -9.84614,-19.6923 -17.56552,-39.3846 -39.38462,-39.3846 z M 59.076926,177.23081 c 10.874093,0 19.692308,8.8182 19.692308,19.69231 0,10.87408 -8.818215,19.69227 -19.692308,19.69227 -10.874093,0 -19.692308,-8.81819 -19.692308,-19.69227 0,-10.87411 8.818215,-19.69231 19.692308,-19.69231 z m 196.923094,0 c 65.25636,0 118.15384,52.89745 118.15384,118.15379 0,65.25632 -52.89748,118.15377 -118.15384,118.15377 -65.25638,0 -118.15386,-52.89745 -118.15386,-118.15377 0,-65.25634 52.89748,-118.15379 118.15386,-118.15379 z m 0,59.07689 c -32.62622,0 -59.07694,26.45071 -59.07694,59.0769 v 0 c 0,32.62619 26.45072,59.0769 59.07694,59.0769 v 0 c 32.62621,0 59.07691,-26.45071 59.07691,-59.0769 v 0 c 0,-32.62619 -26.4507,-59.0769 -59.07691,-59.0769 z"
   inkscape:connector-curvature="0"
   style="stroke-width:0.99999994;fill:#333333" />
</svg>