<?xml version="1.0" encoding="UTF-8" standalone="no"?>
<!--part of the rodentia icon theme by sixsixfive released under CC0 (https://creativecommons.org/publicdomain/zero/1.0/) on openclipart-->

<svg
   xmlns:dc="http://purl.org/dc/elements/1.1/"
   xmlns:cc="http://creativecommons.org/ns#"
   xmlns:rdf="http://www.w3.org/1999/02/22-rdf-syntax-ns#"
   xmlns:svg="http://www.w3.org/2000/svg"
   xmlns="http://www.w3.org/2000/svg"
   xmlns:xlink="http://www.w3.org/1999/xlink"
   xmlns:sodipodi="http://sodipodi.sourceforge.net/DTD/sodipodi-0.dtd"
   xmlns:inkscape="http://www.inkscape.org/namespaces/inkscape"
   viewBox="0 0 512 512"
   version="1.1"
   id="svg25"
   sodipodi:docname="refresh.svg"
   width="512"
   height="512"
   inkscape:version="0.92.2 2405546, 2018-03-11">
  <metadata
     id="metadata29">
    <rdf:RDF>
      <cc:Work
         rdf:about="">
        <dc:format>image/svg+xml</dc:format>
        <dc:type
           rdf:resource="http://purl.org/dc/dcmitype/StillImage" />
        <dc:title></dc:title>
      </cc:Work>
    </rdf:RDF>
  </metadata>
  <sodipodi:namedview
     pagecolor="#ffffff"
     bordercolor="#666666"
     borderopacity="1"
     objecttolerance="10"
     gridtolerance="10"
     guidetolerance="10"
     inkscape:pageopacity="0"
     inkscape:pageshadow="2"
     inkscape:window-width="1920"
     inkscape:window-height="1032"
     id="namedview27"
     showgrid="false"
     inkscape:zoom="0.30729167"
     inkscape:cx="-705.7936"
     inkscape:cy="705.52498"
     inkscape:window-x="0"
     inkscape:window-y="24"
     inkscape:window-maximized="1"
     inkscape:current-layer="svg25" />
  <defs
     id="0">
    <linearGradient
       id="2">
      <stop
         id="F"
         stop-color="#eee" />
      <stop
         id="G"
         offset="1"
         stop-color="#dcdcdc" />
    </linearGradient>
    <radialGradient
       cx="60.049999"
       cy="51.389999"
       r="15.03"
       id="3"
       xlink:href="#2"
       gradientUnits="userSpaceOnUse"
       gradientTransform="matrix(-1.404511,1.1888571,-1,-1.1813958,199.73811,11.750541)" />
    <linearGradient
       id="4">
      <stop
         id="H"
         stop-color="#2e3436" />
      <stop
         id="I"
         offset="1"
         stop-color="#2e3436"
         stop-opacity="0" />
    </linearGradient>
    <linearGradient
       id="5">
      <stop
         id="J"
         stop-color="#fff"
         stop-opacity="0.8" />
      <stop
         id="K"
         offset="1"
         stop-color="#fff"
         stop-opacity="0" />
    </linearGradient>
    <linearGradient
       id="6">
      <stop
         id="L"
         stop-color="#fff" />
      <stop
         id="M"
         offset="1"
         stop-color="#fff"
         stop-opacity="0" />
    </linearGradient>
    <radialGradient
       cx="25.02"
       cy="44.299999"
       r="16.726999"
       id="7"
       xlink:href="#4"
       gradientUnits="userSpaceOnUse"
       gradientTransform="matrix(11.192036,0,0,2.3610138,-333.5997,366.26004)" />
    <linearGradient
       y1="5.4559999"
       x2="0"
       y2="47.844002"
       id="8"
       xlink:href="#5"
       gradientUnits="userSpaceOnUse"
       gradientTransform="matrix(10.675114,0,0,10.675114,-53.835963,-27.63559)" />
    <linearGradient
       x1="0.1"
       y1="-28.1"
       x2="21.09"
       y2="25.219999"
       id="9"
       xlink:href="#6"
       gradientUnits="userSpaceOnUse"
       gradientTransform="matrix(10.675104,0,0,10.675104,10.192185,-0.4395417)" />
  </defs>
  <path
     style="fill:#445800;stroke-width:11.19203568"
     inkscape:connector-curvature="0"
     id="B"
     d="m 193.6405,16.05488 a 2.7174406,2.7174406 0 0 0 -0.69951,0.349751 h -0.34975 -1.04925 c -0.72916,-10e-7 -1.20143,0.360787 -1.74876,0.699503 a 2.7174406,2.7174406 0 0 0 -0.34975,0.349751 c -0.0761,0.05876 -0.28528,-0.05775 -0.34975,0 -0.0962,0.08651 -0.28316,0.271519 -0.34975,0.349751 0.056,-0.05417 -0.13005,-0.258626 0,-0.349751 -0.52255,-0.01175 -1.5911,0.119755 -2.44826,0.349751 -0.1193,0.03201 -0.22764,-0.03973 -0.34975,0 h -0.34975 a 2.7174406,2.7174406 0 0 0 -0.6995,0.349751 2.7174406,2.7174406 0 0 0 -1.39901,0.699502 c -0.0358,0.02697 -0.24174,0.26458 -0.34975,0.349751 -0.23335,0.137293 -0.44611,0.535685 -0.6995,0.699503 -0.64925,0.419791 -1.34271,0.72596 -2.09851,1.399004 -0.14751,0.131327 -0.19899,0.206191 -0.34975,0.349751 -3.81075,2.309194 -6.21899,5.309563 -7.69452,7.344774 a 2.7174406,2.7174406 0 0 0 -0.34975,0.349751 c -1.69456,2.647744 -4.02372,6.661192 -4.54677,11.891538 -0.23178,1.738261 -0.0582,2.952522 0,3.847263 0.005,0.08137 -0.004,0.278323 0,0.349751 -0.0392,0.18224 -0.0683,0.676883 0,1.399004 0.0112,0.116644 -0.0123,0.241827 0,0.349751 h 0.34975 c -0.007,0.109123 1e-4,0.277462 0,0.349752 -2e-4,0.144567 -0.006,0.223124 0,0.349751 0.0123,0.253264 -0.0246,0.464312 0,0.699502 0.0123,0.117595 -0.0224,0.205172 0,0.349751 0.0112,0.0723 -0.0459,0.17182 0,0.349751 l 0.34975,1.399005 a 2.7174406,2.7174406 0 0 0 0.34976,0 2.7174406,2.7174406 0 0 0 0,0.349751 2.7174406,2.7174406 0 0 0 0,0.349751 2.7174406,2.7174406 0 0 0 0,0.349751 2.7174406,2.7174406 0 0 0 0.34975,0 2.7174406,2.7174406 0 0 0 0,0.349751 2.7174406,2.7174406 0 0 0 0,0.349751 2.7174406,2.7174406 0 0 0 0,0.349751 2.7174406,2.7174406 0 0 0 0.34975,0.349752 2.7174406,2.7174406 0 0 0 0,0.349751 2.7174406,2.7174406 0 0 0 0.34975,0.349751 2.7174406,2.7174406 0 0 0 0,0.349751 c 0.0134,0.03951 0.3361,-0.03928 0.34975,0 a 2.7174406,2.7174406 0 0 0 0,0.349751 c 0.11662,0.316992 0.21243,0.656939 0.34975,1.049253 0.82351,1.829992 1.21955,2.673609 1.74876,3.497512 0.0638,0.100056 0.28237,0.253488 0.34975,0.349751 1.14074,2.649915 2.4234,6.208654 4.19701,9.793031 0.0537,0.10778 -0.0537,0.241457 0,0.349751 a 2.7174406,2.7174406 0 0 0 0,0.349751 c 0.0795,0.156353 0.26917,0.192481 0.34975,0.349752 a 2.7174406,2.7174406 0 0 0 0,0.349751 c 25.12305,47.420974 49.46792,95.347054 75.54625,142.348704 2.38167,4.14204 4.48086,6.86321 5.59601,9.09353 a 2.7174406,2.7174406 0 0 0 0,0.34975 c 2.09906,3.86663 5.02005,7.35223 6.64528,9.09353 1.59911,2.13218 3.0183,3.6199 5.94576,5.24627 a 2.7174406,2.7174406 0 0 0 0.34976,0 c 3.49578,1.69151 7.68503,2.95821 11.89153,3.49751 a 2.7174406,2.7174406 0 0 0 0.34975,0 c 4.56737,0 8.69841,-2.01618 13.29055,-3.49751 a 2.7174406,2.7174406 0 0 0 0.34975,0 c 5.00227,-1.87585 7.61685,-6.18621 9.79303,-9.09353 0.16531,-0.13777 0.22239,-0.22384 0.34975,-0.34975 0.65809,-0.65071 0.92883,-1.38719 1.39901,-2.09851 0.56116,-0.84902 1.20082,-1.61685 2.0985,-2.79801 a 2.7174406,2.7174406 0 0 0 0.34975,-0.34975 c 1.74179,-2.75018 6.47174,-9.00199 10.14279,-14.68954 2.45032,-4.08388 4.87534,-8.26082 7.34477,-12.59104 22.07833,18.17065 37.07362,43.83471 37.07362,74.49698 1e-5,55.08631 -43.8431,98.97957 -98.97957,98.97957 -55.08468,0 -98.97957,-43.89486 -98.97957,-98.97957 0,-22.62589 7.25718,-42.74201 20.28557,-59.45769 3.89055,-5.07463 6.82607,-12.59842 5.59602,-20.98506 -1.09738,-7.6817 -4.80923,-13.77283 -10.49254,-18.18706 -20.42232,-15.16509 -37.48789,-27.19431 -58.05868,-42.31989 -9.29019,-6.90128 -21.66807,-6.43501 -30.778104,-0.6995 -0.175189,0.1108 -0.526719,-0.1145 -0.699502,0 a 2.7174406,2.7174406 0 0 0 -0.349751,0.34975 2.7174406,2.7174406 0 0 0 -0.699502,0.34975 2.7174406,2.7174406 0 0 0 -0.349751,0 c -2.337518,1.66965 -3.86749,3.30561 -5.246267,4.89652 -28.430926,37.77178 -46.866651,84.92828 -46.866651,136.05318 0,124.64484 101.993898,226.63873 226.638728,226.63873 124.69472,0 226.63873,-101.99462 226.63873,-226.63873 0,-76.2546 -39.43881,-142.09705 -97.23081,-182.570083 1.6288,-2.467378 3.63996,-5.031665 4.89651,-6.995022 2.34505,-3.908438 4.64581,-6.98573 6.64527,-10.142783 0.58333,-1.111179 1.03516,-2.30437 1.39901,-3.14776 0.36385,-0.843387 0.87264,-1.68757 0.6995,-1.399004 0.14516,-0.237406 0.001,-0.70333 0,-0.699503 a 2.7174406,2.7174406 0 0 0 0.34975,-0.349751 c 0.0224,-0.08271 -0.007,-0.307848 0,-0.349751 0.075,-0.126324 -6.1e-4,-0.348262 0,-0.349751 0.0481,-0.08226 -0.0728,-0.226045 0,-0.349751 0.10409,-0.143538 0.29267,0.112279 0.34975,0 0.0168,-0.08808 -0.0123,-0.238368 0,-0.349751 0.0716,-0.102743 -0.066,-0.245632 0,-0.349751 0.0403,-0.143572 0.3267,-0.234496 0.34975,-0.349751 0.19072,-0.342936 0.31685,-0.939482 0.34976,-1.049254 0.15254,-0.164153 0.26469,-0.258032 0.34975,-0.349751 3.9e-4,-0.0021 -3e-5,-0.348688 0,-0.349751 0.0246,-0.07577 -0.0179,-0.294921 0,-0.349751 0.0761,-0.200248 0.34908,-0.346864 0.34975,-0.349751 10e-4,-0.0048 -0.009,-0.254138 0,-0.349751 0.0347,-0.382466 0.004,-0.621461 0,-0.699503 -0.009,-0.156084 0,-0.187892 0,-0.349751 0.2864,-0.40824 0.81489,-0.227388 1.04925,-1.399004 a 2.7174406,2.7174406 0 0 0 0,-0.349751 c 0.19228,-1.281636 0.0437,-2.192361 0,-2.448258 -0.006,-0.0366 0,-0.349751 0,-0.349751 0.28607,-0.580106 0.7718,-1.002997 0.6995,-2.448258 -0.0571,-4.567347 -1.46715,-9.09956 -3.49751,-12.940792 -2.01593,-3.713541 -4.9211,-7.098308 -8.74378,-9.44328 -0.11911,-0.08508 -0.23123,-0.262415 -0.34975,-0.349751 -1.00449,-0.740275 -2.19172,-1.47007 -3.49751,-2.098507 -0.31138,-0.239534 -0.3286,-0.218419 -0.6995,-0.349751 -0.8478,-0.300193 -1.45817,-0.34157 -1.74876,-0.349751 -0.0548,-0.0015 -0.34012,-7.95e-4 -0.34975,0 -0.0134,0.0011 -0.43302,-0.349751 -0.34975,-0.349751 -0.18142,-0.141591 -0.47398,0.113397 -0.6995,0 -0.28193,-0.141748 -0.43559,-0.285453 -0.6995,-0.349752 -0.15836,-0.03857 -0.22571,-0.349751 -0.34975,-0.349751 h -0.69951 c -1.07309,-0.428532 -2.23117,-1.049253 -3.84726,-1.049253 -0.5014,-3e-6 -0.26133,-0.004 -0.34975,0 a 2.7174406,2.7174406 0 0 0 -1.74876,-0.349751 h -2.0985 c -0.10297,-0.01634 -0.24578,0.01544 -0.34975,0 -3.45883,-0.513603 -7.3473,-0.577957 -11.54179,-1.049254 a 2.7174406,2.7174406 0 0 0 -0.34975,0 c -9.03509,-0.507589 -20.3803,-0.894867 -32.1771,-1.399004 -11.88453,-0.507887 -24.01988,-0.551687 -32.87661,-1.049253 -3.99522,10e-7 -7.39527,-0.699503 -10.84229,-0.699503 h -3.49751 -0.34975 -1.04925 c 0.25562,0 -0.30901,0.05842 -1.04925,0 -0.74025,-0.05842 -1.87151,-0.249772 -3.14776,-0.349751 -2.55251,-0.199968 -6.25569,-0.445801 -10.49254,-0.699502 -8.94565,0 -21.16548,-0.196879 -32.8766,-0.699502 C 231.30356,16.59972 220.07249,16.05488 210.7783,16.05488 H 199.23651 194.34 a 2.7174406,2.7174406 0 0 0 -0.6995,0 z" />
  <path
     style="fill:#8bb300;stroke-width:10.67510414"
     inkscape:connector-curvature="0"
     id="C"
     d="m 192.7154,28.338365 c -1.56359,0.303386 -2.19416,0.8221 -2.66878,1.000791 -1.31237,0.494161 -1.72342,0.636845 -3.33597,1.667985 -2.75319,1.760611 -3.73541,3.713549 -4.33676,4.670358 -0.5535,0.880664 -2.16354,2.094047 -2.66877,6.338343 -0.17337,1.455241 0.0352,3.726859 0,3.33597 0.0939,1.048359 0.38761,1.834517 0.66719,2.668776 0.13974,0.41713 0.20475,1.049694 0.3336,1.334388 0.0534,0.445718 -0.3415,-0.412721 0.33359,1.334388 0.54155,1.401463 1.12742,2.498668 1.66799,3.669567 1.35429,2.933481 3.05015,6.461785 5.00395,10.341507 4.04464,8.031567 9.20793,17.950689 14.67827,28.355745 5.48231,10.427837 11.38457,21.050037 15.67906,29.022937 2.14724,3.98645 3.7181,7.30202 5.00396,9.67431 1.28585,2.3723 2.60253,5.14062 2.00158,4.00317 -0.43448,-0.8223 0.24275,-0.18244 0.33359,0 0.0907,0.18244 0.16312,0.32634 0.3336,0.66719 0.34086,0.68172 0.71449,1.77878 1.33439,3.00238 1.23976,2.44718 2.89016,5.65164 5.00395,9.67431 4.13459,7.86835 9.8231,18.60368 15.34547,29.02294 5.47466,10.32924 10.96732,20.76788 15.34546,28.68934 2.18897,3.96059 3.85603,7.19703 5.33755,9.67431 1.00335,1.67772 1.94062,3.09633 2.33518,3.66957 -0.32057,-0.46575 0.15041,0.30232 1.33439,1.66798 1.1848,1.3666 1.20561,1.06399 1.66798,1.33439 0.20966,0.22429 0.42018,0.43565 0.6672,0.6672 0.13781,0.0342 0.96812,0.64851 1.00079,0.66719 0.62609,0.49682 1.04456,1.0278 1.66798,1.33439 0.32474,0.1597 3.33977,1.54294 6.67194,1.66798 3.81563,0.14326 6.95588,-1.4002 8.00633,-2.00158 2.84927,-1.63125 6.97803,-5.59599 2.00158,-1.66798 -1.09075,0.86094 -0.70413,1.62358 2.33518,-1.66799 2.82542,-3.05985 2.94209,-4.02259 1.66799,-2.33518 0.3131,-0.41472 1.98101,-2.49259 3.66956,-5.00395 2.53209,-3.76592 5.44163,-8.37991 9.00712,-14.01108 4.61088,-7.28219 9.91641,-15.85154 15.01187,-24.01898 31.13444,19.56832 52.37473,52.90702 52.37473,92.40637 -1e-5,61.58637 -49.80093,111.0878 -111.4214,111.0878 -61.62048,-2e-5 -111.0878,-49.46734 -111.0878,-111.0878 -10e-6,-25.37381 8.88177,-48.50546 23.35179,-67.3866 2.30265,-3.00674 3.58825,-7.24098 3.00237,-11.34229 -0.57058,-3.99407 -3.14693,-7.56962 -6.33834,-10.00791 l 0.33359,-0.3336 c -0.1234,-0.0918 -0.21126,0.0907 -0.33359,0 -14.28328,-10.63242 -21.84142,-16.09583 -25.35337,-18.68143 -0.91486,-0.67349 -1.58084,-1.05107 -2.33518,-1.66799 0.0267,0.0288 -0.16002,-0.15596 -0.3336,-0.33359 -0.0865,-0.0886 -0.0683,-0.0971 -0.3336,-0.3336 -0.0512,-0.0459 -0.20795,-0.24104 -0.33359,-0.3336 -0.18618,-0.13055 -0.3399,-0.49159 -0.6672,-0.66719 -0.0715,-0.0555 -0.18585,-0.23688 -0.3336,-0.3336 -0.8697,-0.60538 -1.06622,-0.50664 -1.33438,-0.66719 -0.0737,-0.0331 -0.34716,-0.005 -0.3336,0 -0.26271,-0.15522 -0.67509,-0.51796 -1.33439,-1.00079 -3.62894,-2.65772 -10.59554,-7.96889 -25.01977,-18.68144 a 10.380407,10.380407 0 0 0 -0.3336,0 c -6.30802,-4.63136 -16.35021,-3.15381 -21.016611,3.00238 -26.972935,35.73749 -44.034804,80.21095 -44.034804,128.76844 0,118.12259 96.046555,214.16927 214.169275,214.16927 118.12233,-2e-5 214.50287,-96.02014 214.50287,-214.16927 1e-5,-76.24733 -41.25536,-141.52253 -101.41349,-179.14159 3.71153,-5.92385 7.77016,-12.048851 10.67511,-16.67985 2.43813,-3.886836 4.87137,-7.276504 6.67194,-10.341507 1.20051,-2.04357 1.91008,-3.8227 2.00158,-4.003164 -0.14369,0.283349 0.36242,-0.628561 1.00079,-2.335179 -0.048,0.128977 0.0181,-0.388051 0,-0.333597 0.2246,-0.440957 0.43159,-1.543845 0.66719,-2.335179 0.29848,-1.00235 0.65471,-1.875545 0.6672,-3.002373 0.0267,-2.435429 -0.0363,-4.585605 -1.66799,-7.672731 -1.79223,-3.392073 -5.33987,-5.567071 -5.00395,-5.337552 -0.23315,-0.159283 0.17699,-0.01356 -2.66878,-1.334388 -1.38111,-0.641083 -3.21555,-1.149817 -2.66878,-1.000791 -1.04428,-0.284624 -1.4761,-0.318697 -2.33517,-0.333597 -1.64354,-0.256553 -2.80609,-0.224236 -4.00317,-0.333597 -2.35151,-0.214828 -6.47949,-0.722856 -11.3423,-1.000791 -9.08378,-0.519182 -20.69585,-0.872508 -32.35891,-1.334388 -11.85754,-0.469587 -23.80977,-0.701792 -32.6925,-1.000791 -4.44879,-0.14975 -8.02811,-0.207481 -10.67511,-0.333597 -1.32349,-0.06309 -2.60697,-0.295167 -3.33597,-0.333597 -0.729,-0.03843 -0.10354,0.04622 -1.33438,0 -1.61124,-0.06053 -24.6256,-0.849717 -48.03797,-1.667985 -11.68543,-0.408408 -22.97475,-0.843184 -32.02531,-1.000791 -4.58776,-0.07985 -8.86705,-0.04665 -11.6759,0 -0.77832,0.01292 -1.40366,-0.182534 -3.66957,0 2.19002,-0.176374 0.34385,-0.584547 -2.66877,0 z" />
  <path
     style="opacity:0.8;fill:none;stroke:url(#8);stroke-width:10.67720222"
     inkscape:connector-curvature="0"
     id="D"
     d="m 193.99025,35.291192 c -0.70667,0 -1.29447,0.699502 -1.74876,0.699502 -0.60571,1e-6 -0.89066,0.544482 -1.74875,1.049254 -1.26192,1.009543 -1.84254,1.438715 -2.44826,2.448258 -0.60571,1.009544 -1.54684,1.983198 -1.74876,3.497511 -0.10072,1.009544 0,2.098507 0,2.098507 0.0504,0.504772 0.19833,1.593735 0.34975,2.098506 2e-5,-2e-6 0.19475,-0.115311 0.69951,1.399005 0.40381,1.009544 0.84376,1.983197 1.399,3.497511 1.21146,2.523857 2.92791,5.909884 4.89652,9.44328 4.03815,8.076338 9.23802,18.429154 14.68954,29.029344 5.45153,10.09543 11.09851,20.60325 15.38905,28.67959 2.12004,4.03817 3.93386,7.42419 5.24627,9.44328 1.26191,2.52385 2.30041,4.19702 2.09851,4.19702 0.10073,0.50476 0.4976,0.54449 0.6995,1.04925 0.30286,0.50476 0.79329,1.28368 1.399,2.79801 1.21145,2.01908 2.82697,5.75485 4.89652,9.79303 4.18959,7.57157 9.53729,18.0794 15.0393,28.67959 5.45155,10.09542 11.04802,20.75827 15.38905,28.32984 2.12004,4.03818 3.83291,7.61894 5.24626,10.14279 0.80762,1.00952 1.94349,1.94348 2.44826,2.44825 0.0504,0.50476 0.44354,0.89425 1.04926,1.39901 0.90857,1.00952 1.24756,1.04925 1.399,1.04925 0.15143,0 0.0504,0.6995 0,0.6995 0.40381,0.50476 0.54449,0.5445 1.04925,1.04926 0.45429,1e-5 2.27889,0.6995 4.19702,0.6995 2.17054,0 3.89056,-0.19474 4.54676,-0.6995 1.31239,-1.00952 2.715,-2.56356 1.04926,-1.04926 -0.10073,2e-5 0.18757,-0.0392 1.399,-1.04925 1.31239,-1.51432 1.60091,-2.60328 1.399,-2.09851 0.60572,-1.00952 1.78489,-2.52768 3.14776,-4.54676 2.42291,-4.03817 5.56014,-8.43758 9.09353,-13.99005 5.80487,-9.08588 12.27766,-20.33293 18.53681,-30.42834 36.24258,20.19082 61.20645,58.05723 61.20645,102.47708 -1e-5,65.11545 -52.99946,117.51637 -118.21588,117.51637 -65.21643,0 -117.51638,-52.40091 -117.51638,-117.51637 0,-27.25765 9.2385,-51.50814 24.48258,-71.69898 1.36289,-1.51432 2.10209,-4.12142 1.74876,-6.64528 -0.30286,-2.52385 -1.57937,-4.58647 -3.49752,-5.59601 -19.68606,-14.63835 -38.27167,-28.03129 -58.05868,-42.66964 -3.63435,-2.52386 -9.16578,-2.13439 -11.89154,1.399 -26.197617,34.82921 -42.669637,77.76243 -42.669637,125.21091 2e-6,114.07825 92.920347,207.40241 207.402417,207.40241 114.53255,0 208.10192,-93.32415 208.10192,-207.40241 -10e-6,-76.22046 -42.09571,-142.18458 -103.52633,-178.023327 4.89624,-7.571571 9.85451,-15.97707 13.64029,-22.034321 2.52385,-4.038168 5.03,-6.919424 6.64527,-9.44328 0.90857,-2.019084 1.4459,-3.187472 1.74876,-4.197014 0.10073,2e-6 0.34617,-0.38946 0.6995,-1.399004 -0.0504,-2e-6 0.19832,-0.544481 0.34975,-1.049253 -0.25238,0.504772 0.0974,0.659793 0.34975,-0.349751 0.15143,-0.504773 0,-1.088963 0,-2.098507 0,-1.009544 0.25954,-2.33295 -0.6995,-3.847263 -0.95906,-2.019085 -2.99632,-3.14776 -3.14776,-3.14776 -0.40382,-0.504771 -0.23803,-0.544481 -1.39901,-1.049253 -0.80763,-0.504771 -1.74875,-0.854523 -1.74875,-0.349751 -0.65619,-0.504772 -0.94472,-0.504772 -1.39901,0 -0.50476,-0.504772 -1.05283,0 -0.6995,0 -0.95907,-0.504775 -2.08774,-0.699502 -3.14776,-0.699502 -2.62479,-0.504771 -6.29935,-1.049254 -10.84228,-1.049254 -8.98491,-0.504771 -20.81616,-0.894235 -32.52686,-1.399004 -11.76116,-0.504774 -23.59241,-0.544483 -32.52685,-1.049254 -4.49245,-2e-6 -8.167,0 -10.84229,0 -1.31241,-0.504772 -2.39059,-0.349751 -3.14776,-0.349751 -0.70666,10e-7 -0.94472,0 -1.399,0 -0.85811,10e-7 -24.49453,-1.243985 -47.91591,-1.748756 -11.71068,-0.504773 -23.24264,-1.049253 -32.1771,-1.049253 -4.49246,-0.504772 -8.11652,0 -10.84228,0 -1.16098,0 -2.43391,-0.504772 -3.84727,0 0.50476,0 -0.33542,-0.504772 -1.74875,0 z" />
  <path
     style="opacity:0.8;fill:url(#9);stroke-width:11.19203568"
     inkscape:connector-curvature="0"
     id="E"
     d="m 195.9984,28.332408 c -0.55524,0 -1.81717,0 -3.33148,0.504772 -1.56479,0 -2.22099,0.504772 -2.6753,1.009544 -1.3124,0.504772 -1.71622,0.504772 -3.33147,1.514314 -2.77624,1.514313 -3.73531,3.533398 -4.34104,4.542939 -0.55523,1.009544 -2.17052,2.019085 -2.67528,6.562025 -0.15143,1.514313 0.0504,3.533397 0,3.028626 0.15142,1.514312 0.60571,3.533397 1.00952,4.038168 0.0504,0.504772 -0.35333,-0.504772 0.30285,1.514314 0.55524,1.514313 1.16098,2.523854 1.66575,3.533396 1.36289,3.028627 3.07911,6.562025 5.04771,10.60019 4.03816,8.076334 9.18683,17.66699 14.63836,28.267181 5.502,10.600193 11.40782,21.200383 15.69838,28.771963 2.17052,4.03816 3.73531,7.57155 4.99723,10.0954 1.3124,2.01909 2.62481,5.04772 2.01909,3.5334 0.0504,0.50476 0.30286,0 0.30286,0 0.10072,0.50476 0.2019,0.50476 0.35333,1.00952 0.35333,0.50476 0.70666,1.5143 1.31241,3.02862 1.26191,2.52385 2.92766,5.55248 5.0477,9.59066 4.08865,7.57155 9.79257,18.67652 15.34504,28.77193 2.77624,5.5525 5.3001,10.09543 7.97538,14.63837 60.8754,-16.65745 125.13275,-29.27672 192.82254,-34.8292 -17.51555,-27.25764 -41.39122,-50.47711 -69.05267,-67.639328 3.73531,-6.05725 7.77347,-12.114501 10.70115,-16.657441 2.4229,-4.038167 4.84579,-7.57156 6.66298,-10.60019 1.21144,-2.019083 1.91813,-3.533397 1.9686,-4.038168 -0.10073,0.504772 0.40381,-0.504772 1.00952,-2.019085 -0.0504,0 0.0504,-0.504772 0,-0.504772 0.50476,-1.009544 1.3124,-3.028626 1.36289,-5.047711 0,-2.523855 -0.0504,-4.542939 -1.66575,-8.076336 -1.81718,-3.028626 -5.35058,-5.552482 -5.04771,-5.047711 -0.20191,-0.504772 0.2019,0 -2.62482,-1.514312 -1.41335,-0.504772 -3.23053,-1.009544 -2.67528,-1.009544 -1.06,0 -1.51431,0 -2.37242,0 -1.61527,-0.504772 -2.77623,-0.504772 -3.98769,-0.504772 -2.32196,-0.504772 -6.46108,-1.009545 -11.35736,-1.009545 -9.08587,-0.504772 -20.6956,-1.009544 -32.35583,-1.514313 -11.86211,-0.504772 -23.7747,-0.504772 -32.65868,-1.009544 -4.44199,0 -8.02586,0 -10.70114,0 -1.3124,-0.504772 -2.57433,-0.504772 -3.33149,-0.504772 -0.70667,0 -0.10073,0 -1.31241,0 -1.61526,0 -24.63282,-1.009544 -48.0542,-1.514314 -11.66021,-0.504772 -22.96708,-1.009544 -32.00248,-1.009544 -4.59343,-0.504772 -8.88397,0 -11.71069,0 -0.75714,0 -1.41336,-0.504772 -3.63435,0 0.35333,0 0.50476,-0.504772 0.65618,-0.504772 z M 105.89678,134.8391 c -3.88674,1.00952 -7.672524,3.02862 -9.994472,6.05726 -26.85382,35.33396 -43.864603,79.75383 -44.016035,127.70707 36.192084,-16.65744 74.251817,-32.81011 114.431597,-46.94371 3.38197,-7.06678 7.31918,-13.62881 12.01354,-19.68607 2.27148,-3.02862 3.58388,-7.06679 2.97815,-11.10495 -0.60571,-4.03818 -3.02862,-8.07636 -6.36011,-10.60019 -14.48693,-10.60022 -21.80612,-15.64791 -25.33951,-18.67655 -0.90857,-0.50476 -1.56479,-1.00952 -2.32194,-1.5143 0,0 -0.15143,0 -0.35334,-0.50476 -0.0504,0 -0.0504,0 -0.30285,0 -0.0504,0 -0.20191,-0.50476 -0.35333,-0.50476 -0.20191,0 -0.35334,-0.50476 -0.65619,-0.50476 -0.10073,0 -0.20191,-0.50476 -0.35334,-0.50476 -0.85809,-0.50476 -1.05999,-0.50476 -1.3124,-0.50476 -0.10072,0 -0.35333,0 -0.35333,0 -0.25238,-0.50477 -0.65619,-0.50477 -1.3124,-1.00953 -3.63434,-3.02863 -10.60019,-8.07635 -25.03664,-18.67654 -0.10073,0 -0.2019,0 -0.35333,0 -3.12958,-2.52386 -7.11728,-3.53339 -11.00401,-3.02862 z" />
</svg>
