<?xml version="1.0" encoding="UTF-8" standalone="no"?>
<svg
   xmlns:dc="http://purl.org/dc/elements/1.1/"
   xmlns:cc="http://creativecommons.org/ns#"
   xmlns:rdf="http://www.w3.org/1999/02/22-rdf-syntax-ns#"
   xmlns:svg="http://www.w3.org/2000/svg"
   xmlns="http://www.w3.org/2000/svg"
   xmlns:sodipodi="http://sodipodi.sourceforge.net/DTD/sodipodi-0.dtd"
   xmlns:inkscape="http://www.inkscape.org/namespaces/inkscape"
   id="svg1"
   inkscape:version="0.92.2 2405546, 2018-03-11"
   viewBox="0 0 512 512"
   sodipodi:version="0.32"
   _SVGFile__filename="oldscale/actions/copy.svg"
   version="1.0"
   y="0"
   x="0"
   sodipodi:docname="replicate_config.svg"
   width="512"
   height="512">
  <defs
     id="defs12" />
  <sodipodi:namedview
     id="base"
     bordercolor="#666666"
     inkscape:window-x="0"
     inkscape:window-y="24"
     pagecolor="#ffffff"
     inkscape:zoom="1.2279853"
     inkscape:pageshadow="2"
     borderopacity="1.0"
     inkscape:current-layer="svg1"
     inkscape:cx="674.33764"
     inkscape:cy="379.64743"
     inkscape:window-width="1920"
     inkscape:pageopacity="0.0"
     inkscape:window-height="1032"
     showgrid="false"
     inkscape:window-maximized="1" />
  <metadata
     id="metadata9">
    <rdf:RDF>
      <cc:Work>
        <dc:format>image/svg+xml</dc:format>
        <dc:type
           rdf:resource="http://purl.org/dc/dcmitype/StillImage" />
        <cc:license
           rdf:resource="http://creativecommons.org/publicdomain/zero/1.0/" />
        <dc:publisher>
          <cc:Agent
             rdf:about="http://openclipart.org/">
            <dc:title>Openclipart</dc:title>
          </cc:Agent>
        </dc:publisher>
        <dc:title />
      </cc:Work>
      <cc:License
         rdf:about="http://creativecommons.org/publicdomain/zero/1.0/">
        <cc:permits
           rdf:resource="http://creativecommons.org/ns#Reproduction" />
        <cc:permits
           rdf:resource="http://creativecommons.org/ns#Distribution" />
        <cc:permits
           rdf:resource="http://creativecommons.org/ns#DerivativeWorks" />
      </cc:License>
    </rdf:RDF>
  </metadata>
  <path
     id="rect1101"
     d="m 57.863824,36.451545 c -11.569014,0 -20.882285,9.313344 -20.882285,20.882342 V 323.7022 c 0,11.56987 9.313271,20.87809 20.882285,20.87809 H 309.20232 c 11.56986,0 20.87806,-9.30822 20.87806,-20.87809 V 57.333887 c 0,-11.567348 -9.3082,-20.880606 -20.87806,-20.880606 H 57.863824 Z"
     style="fill:#aaccff;fill-rule:evenodd;stroke:#000000;stroke-width:27.1364212;stroke-linejoin:round"
     inkscape:connector-curvature="0" />
  <path
     id="path1094"
     d="m 185.62172,167.96732 c -11.56142,0 -20.87806,9.31673 -20.87806,20.88651 v 266.36841 c 0,11.56978 9.31664,20.878 20.87806,20.878 h 251.33849 c 11.56986,0 20.8865,-9.30822 20.8865,-20.878 V 188.85383 c 0,-11.56978 -9.31664,-20.88651 -20.8865,-20.88651 z"
     style="fill:#f9f9f9;stroke:#f9f9f9;stroke-width:70.55419159;stroke-linejoin:round"
     inkscape:connector-curvature="0" />
  <path
     id="rect1111"
     d="m 185.62172,167.96732 c -11.56142,0 -20.87806,9.31673 -20.87806,20.88651 v 266.36841 c 0,11.56978 9.31664,20.878 20.87806,20.878 h 251.33849 c 11.56986,0 20.8865,-9.30822 20.8865,-20.878 V 188.85383 c 0,-11.56978 -9.31664,-20.88651 -20.8865,-20.88651 z"
     style="fill:#aad400;fill-rule:evenodd;stroke:#000000;stroke-width:27.1364212;stroke-linejoin:round"
     inkscape:connector-curvature="0" />
  <path
     id="path1718"
     style="fill:none;stroke:#ffffff;stroke-width:70.55432129;stroke-linecap:round;stroke-linejoin:round"
     d="M 95.075443,183.32524 C 115.26483,361.59105 270.05016,349.61635 280.00158,348.6872 v 53.30868 l 77.98749,-77.1886 -77.98749,-77.02361 v 52.67477 c -11.7055,1.38069 -121.05819,12.34809 -184.926137,-117.1332 z"
     inkscape:connector-curvature="0" />
  <path
     id="path1574"
     style="fill:#62b01e;fill-rule:evenodd;stroke:#62b01e;stroke-width:27.13627815;stroke-linecap:round;stroke-linejoin:round"
     d="M 95.075443,183.32524 C 115.26483,361.59105 270.05016,349.61635 280.00158,348.6872 v 53.30868 l 77.98749,-77.1886 -77.98749,-77.02361 v 52.67477 c -11.7055,1.38069 -121.05819,12.34809 -184.926137,-117.1332 z"
     inkscape:connector-curvature="0" />
  <g
     id="g1551"
     transform="translate(-530.13665,103.86446)">
    <circle
       r="115.63656"
       cy="25.909531"
       cx="912.96179"
       id="path1538"
       style="opacity:1;fill:#f9f9f9;fill-opacity:1;fill-rule:nonzero;stroke:#f9f9f9;stroke-width:25;stroke-linecap:butt;stroke-linejoin:round;stroke-miterlimit:4;stroke-dasharray:none;stroke-opacity:1;paint-order:normal" />
    <g
       style="stroke:#1a1a1a"
       id="g6"
       transform="matrix(10.273788,0,0,10.273788,-5431.8682,-7213.0898)">
      <path
         id="path4"
         stroke-miterlimit="4"
         d="m 617.64,695.59 c -0.46627,0 -0.93351,0.0595 -1.3807,0.12784 -0.0711,1.1464 -0.25115,2.2654 -1.2017,2.6591 -0.95268,0.39462 -1.8476,-0.28586 -2.7102,-1.0483 -0.7542,0.55049 -1.4432,1.215 -1.9943,1.9688 0.76546,0.86506 1.4698,1.7545 1.0739,2.7102 -0.39543,0.95468 -1.5331,1.1311 -2.6847,1.2017 -0.07,0.45231 -0.10227,0.90878 -0.10227,1.3807 0,0.47795 0.0306,0.94843 0.10227,1.4062 1.1516,0.0705 2.2892,0.19589 2.6847,1.1506 0.3959,0.95577 -0.3084,1.8963 -1.0739,2.7614 0.54837,0.74809 1.2455,1.3957 1.9943,1.9432 0.85987,-0.75912 1.7609,-1.416 2.7102,-1.0227 0.95468,0.39543 1.1311,1.5075 1.2017,2.6591 0.44717,0.0684 0.91441,0.10227 1.3807,0.10227 0.46628,0 0.90795,-0.034 1.3551,-0.10227 0.0705,-1.1516 0.24703,-2.2637 1.2017,-2.6591 0.94933,-0.39323 1.8504,0.2636 2.7102,1.0227 0.74877,-0.54748 1.4459,-1.1951 1.9943,-1.9432 -0.76545,-0.86507 -1.4698,-1.8056 -1.0739,-2.7614 0.39544,-0.95468 1.5586,-1.08 2.7102,-1.1506 0.0717,-0.45782 0.10227,-0.9283 0.10227,-1.4062 0,-0.4719 -0.0324,-0.92837 -0.10227,-1.3807 -1.1516,-0.0705 -2.3148,-0.24703 -2.7102,-1.2017 -0.39589,-0.95576 0.30841,-1.8452 1.0739,-2.7102 -0.5511,-0.75374 -1.2401,-1.4183 -1.9943,-1.9688 -0.86258,0.76243 -1.7576,1.4429 -2.7102,1.0483 -0.95056,-0.39373 -1.1306,-1.5127 -1.2017,-2.6591 -0.44716,-0.0684 -0.88883,-0.12784 -1.3551,-0.12784 z m 0,6.0597 c 1.6261,0 2.9403,1.3142 2.9403,2.9403 0,1.6261 -1.3142,2.9403 -2.9403,2.9403 -1.6261,0 -2.9659,-1.3142 -2.9659,-2.9403 0,-1.6261 1.3398,-2.9403 2.9659,-2.9403 z"
         style="color:#000000;fill:#999999;stroke:#1a1a1a;stroke-width:1;stroke-linecap:square;stroke-linejoin:bevel;stroke-miterlimit:4;stroke-dasharray:none;enable-background:accumulate"
         inkscape:connector-curvature="0" />
    </g>
  </g>
</svg>
