<?xml version="1.0" encoding="UTF-8" standalone="no"?>
<svg
   xmlns:dc="http://purl.org/dc/elements/1.1/"
   xmlns:cc="http://creativecommons.org/ns#"
   xmlns:rdf="http://www.w3.org/1999/02/22-rdf-syntax-ns#"
   xmlns:svg="http://www.w3.org/2000/svg"
   xmlns="http://www.w3.org/2000/svg"
   xmlns:sodipodi="http://sodipodi.sourceforge.net/DTD/sodipodi-0.dtd"
   xmlns:inkscape="http://www.inkscape.org/namespaces/inkscape"
   id="svg2"
   viewBox="0 0 512 512"
   version="1.1"
   sodipodi:docname="save_curve.svg"
   width="512"
   height="512"
   inkscape:version="0.92.3 (2405546, 2018-03-11)">
  <defs
     id="defs1544" />
  <sodipodi:namedview
     pagecolor="#ffffff"
     bordercolor="#666666"
     borderopacity="1"
     objecttolerance="10"
     gridtolerance="10"
     guidetolerance="10"
     inkscape:pageopacity="0"
     inkscape:pageshadow="2"
     inkscape:window-width="1920"
     inkscape:window-height="1027"
     id="namedview1542"
     showgrid="false"
     inkscape:zoom="0.53710935"
     inkscape:cx="191.67793"
     inkscape:cy="396.09604"
     inkscape:window-x="0"
     inkscape:window-y="25"
     inkscape:window-maximized="1"
     inkscape:current-layer="svg2" />
  <path
     style="fill:#f9f9f9;fill-opacity:1;stroke-width:12.57622719"
     inkscape:connector-curvature="0"
     d="m 29.379359,460.76968 c 0,24.94188 39.170237,45.02144 87.825651,45.02144 h 283.78222 c 48.65541,0 87.82563,-20.07956 87.82563,-45.02144 V 259.57787 c 0,-24.94188 -39.17022,-45.02145 -87.82563,-45.02145 h -18.66296 c -54.27068,0.15432 -67.45384,0.26303 -119.6519,-0.002 H 117.21202 c -48.655403,0 -87.825634,20.07956 -87.825634,45.02144 v 201.19182 z"
     id="path816"
     sodipodi:nodetypes="csssssccsscc" />
  <path
     id="path2821"
     d="m 513.0165,465.77359 c 0,25.49372 -43.69416,46.01753 -97.96898,46.01753 H 98.490147 c -54.27482,0 -97.96896977,-20.52381 -97.96896977,-46.01753 V 260.13044 c 0,-25.49371 43.69414977,-46.01753 97.96896977,-46.01753 h 20.818413 c 6.3092,5.70617 11.40359,11.59642 16.51758,17.54188 -51.304403,1.52134 -91.845933,21.23433 -91.845933,45.73039 v 155.02386 c 0,25.49371 43.69417,46.01753 97.968993,46.01753 h 229.6197 c 54.27481,0 97.96896,-20.52382 97.96896,-46.01753 V 277.38518 c 0,-25.49372 -43.69415,-46.01754 -97.96896,-46.01754 h -90.00999 c -8.85757,-5.9704 -18.77124,-11.63783 -28.77936,-17.25657 h 162.26014 c 54.27482,0 97.96897,20.52382 97.96897,46.01753 v 205.64315 z"
     inkscape:connector-curvature="0"
     style="fill:#1a1a1a;fill-opacity:1;stroke-width:13.42876053" />
  <metadata
     id="metadata1539">
    <rdf:RDF>
      <cc:Work>
        <dc:format>image/svg+xml</dc:format>
        <dc:type
           rdf:resource="http://purl.org/dc/dcmitype/StillImage" />
        <cc:license
           rdf:resource="http://creativecommons.org/publicdomain/zero/1.0/" />
        <dc:publisher>
          <cc:Agent
             rdf:about="http://openclipart.org/">
            <dc:title>Openclipart</dc:title>
          </cc:Agent>
        </dc:publisher>
        <dc:title></dc:title>
        <dc:date>2013-07-15T19:13:16</dc:date>
        <dc:description>An import icon</dc:description>
        <dc:source>https://openclipart.org/detail/180895/import-icon-2-by-dibargatin-180895</dc:source>
        <dc:creator>
          <cc:Agent>
            <dc:title>dibargatin</dc:title>
          </cc:Agent>
        </dc:creator>
        <dc:subject>
          <rdf:Bag>
            <rdf:li>android</rdf:li>
            <rdf:li>icon</rdf:li>
            <rdf:li>import</rdf:li>
          </rdf:Bag>
        </dc:subject>
      </cc:Work>
      <cc:License
         rdf:about="http://creativecommons.org/publicdomain/zero/1.0/">
        <cc:permits
           rdf:resource="http://creativecommons.org/ns#Reproduction" />
        <cc:permits
           rdf:resource="http://creativecommons.org/ns#Distribution" />
        <cc:permits
           rdf:resource="http://creativecommons.org/ns#DerivativeWorks" />
      </cc:License>
    </rdf:RDF>
  </metadata>
  <path
     id="path2823"
     d="m 114.94434,283.0608 c 0.38953,-4.62518 7.22143,-13.27071 21.30307,-29.32571 61.5942,-70.22416 65.95613,-69.48139 71.10066,-69.44155 l 2.49031,0.55333 c 4.70012,2.63163 6.53534,5.70436 27.11252,38.17876 5.73944,9.05844 17.81939,27.71711 26.83529,41.49867 22.40623,34.24888 22.18219,35.96638 -4.14948,34.02935 -15.57947,-1.14639 -16.73572,-1.08743 -19.91925,1.65993 -2.89412,2.49762 -3.59345,4.90548 -5.25696,16.04615 -4.54689,30.44032 0.29208,63.71095 13.5566,93.23144 5.53587,12.32345 7.5615,16.13734 16.59953,29.32574 4.33081,6.32106 5.33938,8.66863 4.9798,13.55578 -0.31873,4.4228 -1.28636,6.01351 -3.31983,6.91645 -10.54578,4.68333 -32.44373,-10.83437 -58.92853,-41.77577 -26.67519,-31.16184 -43.23478,-66.43239 -50.62797,-108.44983 -3.16319,-17.97436 -3.26943,-18.17355 -23.23926,-19.64314 -12.66163,-0.93161 -18.92339,-1.73795 -18.5365,-6.36315 z"
     inkscape:connector-curvature="0"
     style="fill:#0055d4;fill-opacity:1;stroke-width:9.72751904" />
  <path
     style="fill:none;stroke:#ff0000;stroke-width:25;stroke-linecap:butt;stroke-linejoin:miter;stroke-miterlimit:4;stroke-dasharray:none;stroke-opacity:1"
     d="m 34.516122,195.43485 c 0,0 50.9254,-101.867126 137.328388,-130.149029 80.74715,-26.430616 297.2044,-17.661642 297.2044,-17.661642"
     id="path1422"
     inkscape:connector-curvature="0"
     sodipodi:nodetypes="cac" />
  <path
     style="fill:none;stroke:#88aa00;stroke-width:25;stroke-linecap:butt;stroke-linejoin:miter;stroke-miterlimit:4;stroke-dasharray:none;stroke-opacity:1"
     d="m 31.374552,64.921146 c 0,0 81.298798,69.220114 156.067438,73.408534 110.01907,6.16309 281.73473,-79.370881 281.73473,-79.370881"
     id="path1424"
     inkscape:connector-curvature="0"
     sodipodi:nodetypes="cac" />
  <path
     style="fill:none;stroke:#0055d4;stroke-width:25;stroke-linecap:butt;stroke-linejoin:miter;stroke-miterlimit:4;stroke-dasharray:none;stroke-opacity:1"
     d="m 38.546402,13.040705 c 0,0 63.454468,9.627504 88.423118,19.116487 85.07187,32.330328 98.27608,96.141368 192.82414,122.640868 42.74852,11.98138 149.25525,10.81748 149.25525,10.81748"
     id="path1426"
     inkscape:connector-curvature="0"
     sodipodi:nodetypes="caac" />
</svg>
