<?xml version="1.0" encoding="UTF-8" standalone="no"?>
<!-- Generator: Adobe Illustrator 15.0.0, SVG Export Plug-In . SVG Version: 6.00 Build 0)  -->

<svg
   xmlns:dc="http://purl.org/dc/elements/1.1/"
   xmlns:cc="http://creativecommons.org/ns#"
   xmlns:rdf="http://www.w3.org/1999/02/22-rdf-syntax-ns#"
   xmlns:svg="http://www.w3.org/2000/svg"
   xmlns="http://www.w3.org/2000/svg"
   xmlns:sodipodi="http://sodipodi.sourceforge.net/DTD/sodipodi-0.dtd"
   xmlns:inkscape="http://www.inkscape.org/namespaces/inkscape"
   version="1.1"
   id="Ebene_1"
   x="0px"
   y="0px"
   viewBox="0 0 127.56 141.73"
   enable-background="new 0 0 127.56 141.73"
   xml:space="preserve"
   sodipodi:docname="save.svg"
   inkscape:version="0.92.2 2405546, 2018-03-11"><defs
   id="defs592">
	<linearGradient
   y2="50.0124"
   x2="63.6354"
   y1="129.4688"
   x1="80.5244"
   gradientUnits="userSpaceOnUse"
   id="SVGID_1_"
   gradientTransform="translate(-2,-8)">
		<stop
   id="stop552"
   style="stop-color:#EC865B"
   offset="0" />
		<stop
   id="stop554"
   style="stop-color:#F7E937"
   offset="0.85830623" />
		<stop
   id="stop556"
   style="stop-color:#FFF0A2"
   offset="0.9212" />
		<stop
   id="stop558"
   style="stop-color:#F7E937"
   offset="1" />
	</linearGradient>
	
	
		<linearGradient
   gradientTransform="matrix(0.228,0.9737,-0.9737,0.228,-299.3696,-222.5168)"
   y2="-296.917"
   x2="361.6748"
   y1="-296.917"
   x1="303.8184"
   gradientUnits="userSpaceOnUse"
   id="SVGID_2_">
		<stop
   id="stop563"
   style="stop-color:#32A936"
   offset="0" />
		<stop
   id="stop565"
   style="stop-color:#1A7633"
   offset="1" />
	</linearGradient>
	
	<linearGradient
   y2="61.1913"
   x2="54.8222"
   y1="130.123"
   x1="72.0088"
   gradientUnits="userSpaceOnUse"
   id="SVGID_3_"
   gradientTransform="translate(-2,-8)">
		<stop
   id="stop570"
   style="stop-color:#FEEE74"
   offset="0" />
		<stop
   id="stop572"
   style="stop-color:#FDF4A6"
   offset="0.130832" />
		<stop
   id="stop574"
   style="stop-color:#fdce44;stop-opacity:1"
   offset="0.22408935" />
		<stop
   id="stop576"
   style="stop-color:#F7E937"
   offset="0.7672016" />
		<stop
   id="stop578"
   style="stop-color:#FEF28F"
   offset="0.9091" />
		<stop
   id="stop580"
   style="stop-color:#F7E937"
   offset="1" />
	</linearGradient>
	
</defs><sodipodi:namedview
   pagecolor="#ffffff"
   bordercolor="#666666"
   borderopacity="1"
   objecttolerance="10"
   gridtolerance="10"
   guidetolerance="10"
   inkscape:pageopacity="0"
   inkscape:pageshadow="2"
   inkscape:window-width="1920"
   inkscape:window-height="1032"
   id="namedview590"
   showgrid="false"
   inkscape:zoom="3.330276"
   inkscape:cx="64.923068"
   inkscape:cy="57.57181"
   inkscape:window-x="0"
   inkscape:window-y="24"
   inkscape:window-maximized="1"
   inkscape:current-layer="Ebene_1" />
<path
   inkscape:connector-curvature="0"
   style="fill:url(#SVGID_1_);stroke:#f5a777;stroke-width:1.5"
   id="path561"
   d="m 116.031,100.269 c 0.684,6.592 -4.105,12.49 -10.697,13.176 L 41,129.445 C 34.408,130.129 28.51,125.34 27.826,118.748 L 24,61.777 C 23.316,55.185 28.105,49.287 34.697,48.602 L 99.159,34.036 c 6.592,-0.684 12.49,4.105 13.175,10.697 z" /><polygon
   style="fill:url(#SVGID_2_);stroke:#1d622c"
   id="polygon568"
   points="90.813,57.59 78.13,49.489 93.463,25.485 61.459,5.041 46.126,29.044 33.444,20.942 43.804,67.951 "
   transform="matrix(0.67753093,0,0,0.67753093,24.350583,4.795718)" /><path
   inkscape:connector-curvature="0"
   style="opacity:0.8;fill:url(#SVGID_3_);stroke:#f5a777;stroke-width:1.5"
   id="path583"
   d="M 115.031,100.269 96,57.444 C 92.098,49.784 89.418,46.063 82.826,46.747 L 74.41,48.73 68,50.61 c -5,4 -3.754,6.564 -5.582,8.864 l -28.215,5.732 c -2.874,0.173 -3.454,-3.596 -6.999,-4.794 l -3.268,0.21 -5.573,1.313 C 11.772,62.62 5.333,67.776 7.667,75.11 l 19.159,43.637 c 2.916,6.672 6.583,11.381 13.174,10.697 l 64.334,-16 c 6.592,-0.685 13.666,-7.334 10.697,-13.175 z" />
<metadata
   id="metadata587"><rdf:RDF><cc:Work><dc:format>image/svg+xml</dc:format><dc:type
         rdf:resource="http://purl.org/dc/dcmitype/StillImage" /><cc:license
         rdf:resource="http://creativecommons.org/licenses/publicdomain/" /><dc:publisher><cc:Agent
           rdf:about="http://openclipart.org/"><dc:title>Openclipart</dc:title></cc:Agent></dc:publisher></cc:Work><cc:License
       rdf:about="http://creativecommons.org/licenses/publicdomain/"><cc:permits
         rdf:resource="http://creativecommons.org/ns#Reproduction" /><cc:permits
         rdf:resource="http://creativecommons.org/ns#Distribution" /><cc:permits
         rdf:resource="http://creativecommons.org/ns#DerivativeWorks" /></cc:License></rdf:RDF></metadata></svg>