<?xml version="1.0" encoding="UTF-8" standalone="no"?>
<svg
   xmlns:dc="http://purl.org/dc/elements/1.1/"
   xmlns:cc="http://creativecommons.org/ns#"
   xmlns:rdf="http://www.w3.org/1999/02/22-rdf-syntax-ns#"
   xmlns:svg="http://www.w3.org/2000/svg"
   xmlns="http://www.w3.org/2000/svg"
   xmlns:sodipodi="http://sodipodi.sourceforge.net/DTD/sodipodi-0.dtd"
   xmlns:inkscape="http://www.inkscape.org/namespaces/inkscape"
   id="svg1"
   sodipodi:docname="save_gpx.svg"
   viewBox="0 0 512 512"
   sodipodi:version="0.32"
   _SVGFile__filename="oldscale/devices/3floppy_mount.svg"
   version="1.0"
   y="0"
   x="0"
   inkscape:version="0.92.2 2405546, 2018-03-11"
   width="512"
   height="512">
  <defs
     id="defs13" />
  <sodipodi:namedview
     id="base"
     bordercolor="#666666"
     inkscape:pageshadow="2"
     inkscape:window-y="24"
     pagecolor="#ffffff"
     inkscape:window-height="1032"
     inkscape:zoom="0.5"
     inkscape:window-x="0"
     borderopacity="1.0"
     inkscape:current-layer="svg1"
     inkscape:cx="-429.78821"
     inkscape:cy="317.31849"
     inkscape:window-width="1920"
     inkscape:pageopacity="0.0000000"
     showgrid="false"
     inkscape:window-maximized="1" />
  <metadata
     id="metadata10">
    <rdf:RDF>
      <cc:Work>
        <dc:format>image/svg+xml</dc:format>
        <dc:type
           rdf:resource="http://purl.org/dc/dcmitype/StillImage" />
        <cc:license
           rdf:resource="http://creativecommons.org/publicdomain/zero/1.0/" />
        <dc:publisher>
          <cc:Agent
             rdf:about="http://openclipart.org/">
            <dc:title>Openclipart</dc:title>
          </cc:Agent>
        </dc:publisher>
        <dc:title></dc:title>
      </cc:Work>
      <cc:License
         rdf:about="http://creativecommons.org/publicdomain/zero/1.0/">
        <cc:permits
           rdf:resource="http://creativecommons.org/ns#Reproduction" />
        <cc:permits
           rdf:resource="http://creativecommons.org/ns#Distribution" />
        <cc:permits
           rdf:resource="http://creativecommons.org/ns#DerivativeWorks" />
      </cc:License>
    </rdf:RDF>
  </metadata>
  <path
     id="path646"
     style="fill:#cccccc;fill-rule:evenodd;stroke-width:9.7206459;stroke-linecap:round;stroke-linejoin:round"
     d="m 48.261877,16.817431 c -10.690097,0 -19.296205,8.736029 -19.296205,19.587467 V 475.5951 c 0,10.85145 8.606108,19.58747 19.296205,19.58747 H 463.73812 c 10.69011,0 19.29621,-8.73602 19.29621,-19.58747 V 81.397298 L 419.106,16.822345 H 48.261877 Z"
     inkscape:connector-curvature="0" />
  <g
     id="g1077"
     transform="matrix(-9.308348,0,0,9.4488501,510.7886,-27.454022)">
    <path
       id="path655"
       style="fill:#babec3;fill-rule:evenodd;stroke:#000000;stroke-width:2.55509996;stroke-linecap:round;stroke-linejoin:round"
       transform="matrix(0.97845,0,0,0.97845,0.43127,0.25189)"
       d="m 15.914,4.6592 v 13.242 c 0,1.353 1.188,2.442 2.665,2.442 h 17.908 c 1.477,0 2.666,-1.089 2.666,-2.442 V 4.6592"
       inkscape:connector-curvature="0" />
    <path
       id="rect656"
       style="fill:#000000;fill-rule:evenodd;stroke-width:1.25;stroke-linecap:round;stroke-linejoin:round"
       transform="matrix(0.97845,0,0,0.97845,0.43127,0.25189)"
       d="m 20.916,7.9808 c -0.775,0 -1.4,0.624 -1.4,1.3991 v 6.2431 c 0,0.775 0.625,1.399 1.4,1.399 h 3.788 c 0.776,0 1.4,-0.624 1.4,-1.399 V 9.3799 c 0,-0.7751 -0.624,-1.3991 -1.4,-1.3991 z"
       inkscape:connector-curvature="0" />
  </g>
  <path
     id="path659"
     style="fill:none;stroke:#000000;stroke-width:29.30580139;stroke-linecap:round;stroke-linejoin:round"
     d="m 48.261877,16.817431 c -10.690097,0 -19.296205,8.736029 -19.296205,19.587467 V 475.5951 c 0,10.85145 8.606108,19.58747 19.296205,19.58747 H 463.73812 c 10.69011,0 19.29621,-8.73602 19.29621,-19.58747 V 81.397298 L 419.106,16.822345 H 48.261877 Z"
     inkscape:connector-curvature="0" />
  <path
     id="rect731"
     sodipodi:nodetypes="ccccccccc"
     style="fill:#f9f9f9;fill-rule:evenodd;stroke:#f9f9f9;stroke-width:15.46354294;stroke-linecap:round;stroke-linejoin:round;stroke-miterlimit:4;stroke-dasharray:none"
     d="m 94.969839,201.48549 c -10.342316,0 -18.662438,8.44571 -18.662438,18.94413 v 204.64767 c 0,10.49843 8.320122,18.94413 18.662438,18.94413 H 417.03016 c 10.34232,0 18.66244,-8.4457 18.66244,-18.94413 V 220.42962 c 0,-10.49842 -8.32012,-18.94413 -18.66244,-18.94413 z"
     inkscape:connector-curvature="0" />
  <text
     xml:space="preserve"
     style="font-style:normal;font-weight:normal;font-size:87.10041809px;line-height:1.25;font-family:sans-serif;letter-spacing:0px;word-spacing:0px;fill:#000000;fill-opacity:1;stroke:#f9f9f9;stroke-width:1.54738784"
     x="94.259453"
     y="357.53903"
     id="text1042"
     transform="scale(0.89430879,1.118182)"><tspan
       sodipodi:role="line"
       id="tspan1040"
       x="94.259453"
       y="357.53903"
       style="font-style:normal;font-variant:normal;font-weight:bold;font-stretch:normal;font-size:209.04095459px;font-family:'Liberation Mono';-inkscape-font-specification:'Liberation Mono Bold';fill:#000000;stroke:#f9f9f9;stroke-width:1.54738784">GPX</tspan></text>
</svg>
