<?xml version="1.0" encoding="UTF-8" standalone="no"?>
<!-- Created with Inkscape (http://www.inkscape.org/) -->

<svg
   xmlns:dc="http://purl.org/dc/elements/1.1/"
   xmlns:cc="http://creativecommons.org/ns#"
   xmlns:rdf="http://www.w3.org/1999/02/22-rdf-syntax-ns#"
   xmlns:svg="http://www.w3.org/2000/svg"
   xmlns="http://www.w3.org/2000/svg"
   xmlns:sodipodi="http://sodipodi.sourceforge.net/DTD/sodipodi-0.dtd"
   xmlns:inkscape="http://www.inkscape.org/namespaces/inkscape"
   id="svg2"
   sodipodi:modified="TRUE"
   sodipodi:docname="setting.svg"
   inkscape:export-filename="D:\proj\cliparts\released\icon_tool.png"
   viewBox="0 0 512 512"
   sodipodi:version="0.32"
   inkscape:export-xdpi="45"
   version="1.0"
   inkscape:output_extension="org.inkscape.output.svg.inkscape"
   inkscape:export-ydpi="45"
   inkscape:version="0.92.2 2405546, 2018-03-11"
   width="512"
   height="512">
  <defs
     id="defs17" />
  <sodipodi:namedview
     id="base"
     inkscape:zoom="0.25374822"
     height="30px"
     borderopacity="1.0"
     inkscape:current-layer="layer1"
     inkscape:cx="-195.39741"
     inkscape:cy="558.73916"
     inkscape:grid-points="true"
     showgrid="true"
     width="30px"
     inkscape:snap-global="false"
     showguides="true"
     bordercolor="#666666"
     inkscape:window-x="0"
     inkscape:window-y="24"
     inkscape:window-width="1920"
     inkscape:pageopacity="0.0"
     inkscape:pageshadow="2"
     pagecolor="#ffffff"
     gridtolerance="10000"
     inkscape:document-units="px"
     inkscape:window-height="1032"
     inkscape:window-maximized="1">
    <inkscape:grid
       id="grid2395"
       visible="true"
       type="xygrid"
       enabled="true" />
  </sodipodi:namedview>
  <g
     id="layer1"
     inkscape:label="Calque 1"
     inkscape:groupmode="layer"
     transform="translate(0,482)">
    <rect
       id="rect3465"
       style="fill:#427bc3"
       ry="0"
       height="0"
       width="5.7059999"
       y="13.76"
       x="14.781" />
    <path
       inkscape:connector-curvature="0"
       d="m 109.03187,-473.87451 c 26.99278,0.23339 53.70457,10.83381 74.38306,31.50866 31.15824,31.15659 38.48084,76.29058 23.24058,114.67555 1.1736,0.93061 3.04144,2.00834 4.13239,3.09764 l 66.6307,66.64392 c 14.89314,14.87661 14.89314,39.34038 0,54.23352 l -6.19859,6.19859 c -14.87662,14.87661 -39.34038,14.87661 -54.23352,0 l -67.14312,-66.64723 c -1.09095,-1.07442 -1.65295,-2.94226 -2.59514,-4.13239 -38.38166,15.25679 -83.507386,7.91766 -114.665625,-23.24058 -4.215041,-4.19851 -8.09949,-8.74414 -11.372345,-13.42201 -1.090951,-1.57031 -2.099255,-3.04144 -3.091029,-4.66134 -12.4137072,-26.15308 -5.884527,-24.596 21.174379,-17.5544 27.372968,0 49.58871,-22.21574 49.58871,-49.58871 0,-27.37297 -22.215742,-49.58871 -49.58871,-49.58871 -16.52957,0 9.818565,-31.38469 29.951581,-39.77345 0.958715,-0.37324 1.636427,-1.20649 2.595142,-1.55047 0.347121,-0.10546 0.677713,0.10198 1.024834,0 11.603758,-4.02529 24.017465,-6.30356 36.166703,-6.19859 z"
       style="fill:#888a85;stroke-width:16.52956963"
       sodipodi:nodetypes="csccccccccssccsccssc"
       id="rect2422" />
    <path
       inkscape:connector-curvature="0"
       d="m 108.29903,-460.13084 c 23.20752,0.20001 46.08444,8.90283 64.03555,26.86056 26.92667,26.92336 32.8112,65.48685 19.63713,98.66004 -2.38026,6.08619 -0.49588,13.01538 4.64481,17.04695 2.76044,2.17033 4.51257,3.47947 3.10756,2.06619 l 66.6307,66.63896 c 9.15738,9.15739 9.15738,24.41418 0,33.57156 l -6.19859,6.19859 c -9.15738,9.15738 -24.41418,9.15738 -33.57156,0 l -67.15964,-66.6307 c 3.0745,3.05797 2.26455,1.73561 -1.53725,-3.10756 -4.03322,-5.14069 -10.97564,-7.02506 -17.05852,-4.64481 -33.17484,13.17407 -71.738331,7.28954 -98.648471,-19.6206 -3.669564,-3.66956 -6.644887,-7.53748 -9.306148,-11.37234 0.843008,0.21488 1.15707,0.281 2.066197,0.51242 1.173599,0.33059 2.396787,0.49588 3.619975,0.51241 35.37328,0 64.564497,-29.1813 64.564497,-64.56119 0,-29.11684 -20.331367,-53.08472 -47.010093,-60.95114 5.867997,-5.93907 13.174067,-12.93769 18.083349,-14.98075 2.859616,-1.1207 0.76036,-0.29257 1.041363,-0.51737 0.528946,-0.0942 0.429769,0.17191 1.024834,0 v -0.51573 c 0.165295,0.003 0.34712,0.003 0.512416,0 10.149156,-3.52079 21.306616,-5.25309 31.521891,-5.16549 z"
       style="fill:#cccccc;stroke-width:16.52956963;stroke:#999999"
       id="path2568" />
    <path
       inkscape:connector-curvature="0"
       d="m 489.04214,-80.038728 c 14.2174,14.217394 14.21484,37.706002 0.003,51.918284 L 451.49462,9.4296313 C 437.28234,23.641913 413.79373,23.644469 399.57634,9.4270751 L 195.87549,-194.27378 c -14.21228,-14.21228 -14.21228,-37.70344 0,-51.91572 l 37.55007,-37.55008 c 14.21228,-14.21228 37.70345,-14.21228 51.91573,0 z"
       style="fill:#aa4400;stroke-width:18.07482147"
       id="path2432" />
    <path
       inkscape:connector-curvature="0"
       d="m 479.78113,-70.881703 c 9.42592,9.425922 9.41481,24.620777 -0.0111,34.0467 L 442.61098,0.32402945 c -9.42592,9.42592275 -24.60966,9.42592275 -34.03558,0 L 205.02882,-203.22255 c -9.43148,-9.43148 -9.43482,-24.61855 -0.009,-34.04448 l 37.15904,-37.15903 c 9.42592,-9.42592 24.62411,-9.4337 34.05003,-0.008 l 203.54658,203.546579 z"
       style="fill:#ff7f2a;stroke-width:15.71965504"
       id="path2506" />
    <path
       inkscape:connector-curvature="0"
       d="m 457.49613,-73.236466 c -3.54151,-3.541516 -9.24534,-3.541516 -12.77517,-0.01169 l -38.34889,38.34889 c -3.54151,3.541515 -3.54151,9.245343 0,12.786859 3.54152,3.541515 9.23366,3.529827 12.77517,-0.01169 l 38.34889,-38.348889 c 3.52983,-3.529827 3.54152,-9.221967 0,-12.763482 z"
       style="fill:#aa4400;stroke-width:16.52956963"
       id="rect2438" />
    <path
       inkscape:connector-curvature="0"
       d="m 419.14724,-111.58536 c -3.54151,-3.54151 -9.24534,-3.54151 -12.77517,-0.0117 l -38.34889,38.348885 c -3.54151,3.541516 -3.54151,9.245344 0,12.78686 3.54152,3.541515 9.24535,3.541515 12.78686,0 l 38.34889,-38.34889 c 3.52983,-3.529825 3.52983,-9.233655 -0.0117,-12.775175 z"
       style="fill:#aa4400;stroke-width:16.52956963"
       id="rect2440" />
    <path
       inkscape:connector-curvature="0"
       d="m 380.80654,-149.92606 c -3.54035,-3.54035 -9.24301,-3.53918 -12.77284,-0.009 l -38.34889,38.34889 c -3.54151,3.54151 -3.54268,9.24417 -0.002,12.784517 3.54034,3.540347 9.24183,3.53801 12.78335,-0.0035 l 38.34889,-38.348887 c 3.52983,-3.52983 3.53216,-9.23132 -0.008,-12.77166 z"
       style="fill:#aa4400;stroke-width:16.52956963"
       id="rect2442" />
  </g>
  <metadata
     id="metadata14">
    <rdf:RDF>
      <cc:Work>
        <dc:format>image/svg+xml</dc:format>
        <dc:type
           rdf:resource="http://purl.org/dc/dcmitype/StillImage" />
        <cc:license
           rdf:resource="http://creativecommons.org/publicdomain/zero/1.0/" />
        <dc:publisher>
          <cc:Agent
             rdf:about="http://openclipart.org/">
            <dc:title>Openclipart</dc:title>
          </cc:Agent>
        </dc:publisher>
        <dc:title>icon_tool</dc:title>
        <dc:date>2009-11-12T13:26:39</dc:date>
        <dc:description />
        <dc:source>https://openclipart.org/detail/28286/icon_tool-by-jean_victor_balin</dc:source>
        <dc:creator>
          <cc:Agent>
            <dc:title>jean_victor_balin</dc:title>
          </cc:Agent>
        </dc:creator>
        <dc:subject>
          <rdf:Bag>
            <rdf:li>icon</rdf:li>
            <rdf:li>tool</rdf:li>
          </rdf:Bag>
        </dc:subject>
      </cc:Work>
      <cc:License
         rdf:about="http://creativecommons.org/publicdomain/zero/1.0/">
        <cc:permits
           rdf:resource="http://creativecommons.org/ns#Reproduction" />
        <cc:permits
           rdf:resource="http://creativecommons.org/ns#Distribution" />
        <cc:permits
           rdf:resource="http://creativecommons.org/ns#DerivativeWorks" />
      </cc:License>
    </rdf:RDF>
  </metadata>
</svg>
