<?xml version="1.0" encoding="UTF-8" standalone="no"?>
<svg
   xmlns:dc="http://purl.org/dc/elements/1.1/"
   xmlns:cc="http://creativecommons.org/ns#"
   xmlns:rdf="http://www.w3.org/1999/02/22-rdf-syntax-ns#"
   xmlns:svg="http://www.w3.org/2000/svg"
   xmlns="http://www.w3.org/2000/svg"
   xmlns:sodipodi="http://sodipodi.sourceforge.net/DTD/sodipodi-0.dtd"
   xmlns:inkscape="http://www.inkscape.org/namespaces/inkscape"
   id="Calque_1"
   xml:space="preserve"
   viewBox="0 0 512.00001 512"
   version="1.1"
   sodipodi:docname="stat.svg"
   width="512"
   height="512"
   inkscape:version="0.92.2 2405546, 2018-03-11"><defs
   id="defs63">
	
	
	
	
	
	

		
		
		
	
			
			
			
			
			
		</defs><sodipodi:namedview
   pagecolor="#ffffff"
   bordercolor="#666666"
   borderopacity="1"
   objecttolerance="10"
   gridtolerance="10"
   guidetolerance="10"
   inkscape:pageopacity="0"
   inkscape:pageshadow="2"
   inkscape:window-width="1920"
   inkscape:window-height="1032"
   id="namedview61"
   showgrid="false"
   inkscape:zoom="1.0843794"
   inkscape:cx="-10.276465"
   inkscape:cy="310.87008"
   inkscape:window-x="0"
   inkscape:window-y="24"
   inkscape:window-maximized="1"
   inkscape:current-layer="Calque_1" /><title
   id="title3094">Annuaire statistiques</title>
<g
   id="g965"
   transform="matrix(1.6109346,0,0,1.6101503,-95.403101,-6.4373407)"
   style="stroke-width:0.6209088"><g
     transform="matrix(4.6527069,0,0,4.6506633,-1.2865119,7.2009205)"
     style="stroke-width:0.13348043"
     id="g75">
			<polygon
   style="fill:#41abe8;stroke-width:0.13348043"
   points="70.244,0 58.586,21.351 53.276,21.022 64.308,1.106 "
   id="polygon77" />
			<polygon
   style="fill:#41abe8;stroke-width:0.13348043"
   points="50.472,13.144 40.399,26.33 36.106,25.621 45.575,13.386 "
   id="polygon79" />
			<polygon
   style="fill:#41abe8;stroke-width:0.13348043"
   points="26.906,21.483 16.984,32.099 14.211,30.892 23.448,21.11 "
   id="polygon81" />
			<polygon
   style="fill:#2b7199;stroke-width:0.13348043"
   points="16.984,32.099 15.747,61.463 13.093,58.004 14.211,30.892 "
   id="polygon83" />
			<polygon
   style="fill:#378fc2;stroke-width:0.13348043"
   points="58.586,21.351 70.244,0 73.853,3.503 70.646,57.742 15.747,61.463 16.984,32.099 26.906,21.483 40.399,26.33 50.472,13.144 "
   id="polygon85" />
		</g><polygon
     transform="matrix(4.6527069,0,0,4.6506633,-1.2865119,7.2009205)"
     id="polygon89"
     points="66.71,24.741 61.179,24.75 67.294,13.503 73.171,12.689 "
     style="fill:#ff9955;stroke-width:0.13348043" /><polygon
     transform="matrix(4.6527069,0,0,4.6506633,-1.2865119,7.2009205)"
     id="polygon91"
     points="47.974,36.359 43.471,35.534 55.825,17.923 61.09,17.406 "
     style="fill:#ff9955;stroke-width:0.13348043" /><polygon
     transform="matrix(4.6527069,0,0,4.6506633,-1.2865119,7.2009205)"
     id="polygon93"
     points="20.735,44.754 17.981,43.212 31.376,29.073 35.11,29.412 "
     style="fill:#ff9955;stroke-width:0.13348043" /><polygon
     transform="matrix(4.6527069,0,0,4.6506633,-1.2865119,7.2009205)"
     id="polygon95"
     points="19.898,64.625 17.224,61.559 17.981,43.212 20.735,44.754 "
     style="fill:#d45500;stroke-width:0.13348043" /><polygon
     transform="matrix(4.6527069,0,0,4.6506633,-1.2865119,7.2009205)"
     id="polygon97"
     points="35.11,29.412 47.974,36.359 61.09,17.406 66.71,24.741 73.171,12.689 77.468,17.194 74.833,61.776 19.898,64.625 20.735,44.754 "
     style="fill:#ff6600;stroke-width:0.13348043" /><g
     transform="matrix(4.6527069,0,0,4.6506633,-1.2865119,7.2009205)"
     style="stroke-width:0.13348043"
     id="g99">
			<polygon
   style="fill:#6dbd6e;stroke-width:0.13348043"
   points="77.39,23.84 68.533,44.553 63.085,43.728 71.467,24.407 "
   id="polygon101" />
			<polygon
   style="fill:#6dbd6e;stroke-width:0.13348043"
   points="61.249,39.922 52.188,47.27 47.614,46.206 56.162,39.396 "
   id="polygon103" />
			<polygon
   style="fill:#6dbd6e;stroke-width:0.13348043"
   points="39.858,40.901 33.833,44.367 30.374,43.459 36.008,40.266 "
   id="polygon105" />
			<polygon
   style="fill:#297a2b;stroke-width:0.13348043"
   points="25.623,40.343 24.624,67.598 21.812,64.883 22.711,39.724 "
   id="polygon107" />
			<polygon
   style="fill:#41a343;stroke-width:0.13348043"
   points="33.833,44.367 39.858,40.901 52.188,47.27 61.249,39.922 68.533,44.553 77.39,23.84 81.336,28.439 79.364,65.021 24.624,67.598 25.623,40.343 "
   id="polygon109" />
		</g><polyline
     transform="matrix(4.6527069,0,0,4.6506633,-1.2865119,7.2009205)"
     id="polyline111"
     points="13.093 58.004 15.747 61.463 17.041 61.375 19.898 64.625 21.473 64.544 24.624 67.598 79.364 65.021"
     style="fill:none;stroke:#45594f;stroke-width:0.13348043;stroke-linecap:round;stroke-linejoin:bevel" /></g>
<metadata
   id="metadata58"><rdf:RDF><cc:Work><dc:format>image/svg+xml</dc:format><dc:type
         rdf:resource="http://purl.org/dc/dcmitype/StillImage" /><cc:license
         rdf:resource="http://creativecommons.org/publicdomain/zero/1.0/" /><dc:publisher><cc:Agent
           rdf:about="http://openclipart.org/"><dc:title>Openclipart</dc:title></cc:Agent></dc:publisher><dc:title>Annuaire statistiques</dc:title></cc:Work><cc:License
       rdf:about="http://creativecommons.org/publicdomain/zero/1.0/"><cc:permits
         rdf:resource="http://creativecommons.org/ns#Reproduction" /><cc:permits
         rdf:resource="http://creativecommons.org/ns#Distribution" /><cc:permits
         rdf:resource="http://creativecommons.org/ns#DerivativeWorks" /></cc:License></rdf:RDF></metadata></svg>