<?xml version="1.0" encoding="UTF-8" standalone="no"?>
<!-- Generator: Adobe Illustrator 15.1.0, SVG Export Plug-In . SVG Version: 6.00 Build 0)  -->

<svg
   xmlns:dc="http://purl.org/dc/elements/1.1/"
   xmlns:cc="http://creativecommons.org/ns#"
   xmlns:rdf="http://www.w3.org/1999/02/22-rdf-syntax-ns#"
   xmlns:svg="http://www.w3.org/2000/svg"
   xmlns="http://www.w3.org/2000/svg"
   xmlns:sodipodi="http://sodipodi.sourceforge.net/DTD/sodipodi-0.dtd"
   xmlns:inkscape="http://www.inkscape.org/namespaces/inkscape"
   version="1.1"
   id="Layer_1"
   x="0px"
   y="0px"
   width="512"
   height="512"
   viewBox="0 0 512 512"
   enable-background="new 0 0 100 100"
   xml:space="preserve"
   sodipodi:docname="Sunset.svg"
   inkscape:version="0.92.1 r15371"><metadata
     id="metadata62"><rdf:RDF><cc:Work
         rdf:about=""><dc:format>image/svg+xml</dc:format><dc:type
           rdf:resource="http://purl.org/dc/dcmitype/StillImage" /><dc:title></dc:title></cc:Work></rdf:RDF></metadata><defs
     id="defs60" /><sodipodi:namedview
     pagecolor="#ffffff"
     bordercolor="#666666"
     borderopacity="1"
     objecttolerance="10"
     gridtolerance="10"
     guidetolerance="10"
     inkscape:pageopacity="0"
     inkscape:pageshadow="2"
     inkscape:window-width="1680"
     inkscape:window-height="991"
     id="namedview58"
     showgrid="false"
     inkscape:zoom="1.3558773"
     inkscape:cx="292.32067"
     inkscape:cy="271.10382"
     inkscape:window-x="0"
     inkscape:window-y="0"
     inkscape:window-maximized="1"
     inkscape:current-layer="layer2" /><path
     style="fill:#ffce54;fill-opacity:0;stroke:#ffff00;stroke-width:0;stroke-miterlimit:4;stroke-dasharray:none"
     d=""
     id="path4737"
     inkscape:connector-curvature="0" /><g
     inkscape:groupmode="layer"
     id="layer1"
     inkscape:label="Layer 1"
     style="display:inline"
     transform="translate(0,412)"
     sodipodi:insensitive="true"><g
       style="display:inline;fill:#ffce54;fill-opacity:1"
       id="g5367"
       transform="matrix(10.53542,0,0,10.53542,-271.18172,-688.58487)"><g
         id="g5365"
         style="fill:#ffce54;fill-opacity:1"><path
           style="clip-rule:evenodd;fill:#ffce54;fill-opacity:1;fill-rule:evenodd"
           inkscape:connector-curvature="0"
           d="M 38.688,41.859 35.86,39.031 c -0.781,-0.78 -2.047,-0.78 -2.828,0 -0.781,0.781 -0.781,2.047 0,2.828 l 2.828,2.828 c 0.781,0.781 2.047,0.781 2.828,0 0.781,-0.781 0.781,-2.046 0,-2.828 z M 71.997,54 h -3.999 c -1.104,0 -1.999,0.896 -1.999,2 0,1.104 0.895,2 1.999,2 h 3.999 c 1.105,0 2,-0.896 2,-2 0,-1.104 -0.894,-2 -2,-2 z m -39.994,0 h -4 c -1.104,0 -2,0.896 -2,2 0,1.104 0.896,2 2,2 h 4 c 1.104,0 2,-0.896 2,-2 0,-1.104 -0.897,-2 -2,-2 z M 66.969,39.031 c -0.78,-0.78 -2.048,-0.78 -2.828,0 l -2.828,2.828 c -0.78,0.781 -0.78,2.047 0,2.828 0.781,0.781 2.048,0.781 2.828,0 l 2.828,-2.828 c 0.78,-0.781 0.78,-2.047 0,-2.828 z m -16.968,0.971 c 1.104,0 1.999,-0.896 1.999,-2 v -3.999 c 0,-1.104 -0.896,-2 -1.999,-2 -1.105,0 -2,0.896 -2,2 v 3.999 c 0,1.104 0.895,2 2,2 z m 0,4 c -6.627,0 -11.999,5.371 -11.999,11.998 0,1.404 0.254,2.747 0.697,3.999 H 43.08 C 42.397,58.822 42.001,57.459 42.001,56 c 0,-4.418 3.582,-7.999 8,-7.999 4.417,0 7.998,3.581 7.998,7.999 0,1.459 -0.396,2.822 -1.078,3.999 h 4.381 c 0.443,-1.252 0.697,-2.595 0.697,-3.999 0,-6.627 -5.372,-11.998 -11.998,-11.998 z"
           id="path5363"
           sodipodi:nodetypes="cccssscsssssssssssssscscccccsssssssssccsssccss" /></g></g></g><g
     inkscape:groupmode="layer"
     id="layer2"
     inkscape:label="Layer 2"
     style="display:inline"
     transform="translate(0,412)"
     sodipodi:insensitive="true"><g
       transform="matrix(10.53542,0,0,10.53542,-271.18172,-688.58487)"
       id="g5376"
       style="display:inline"><g
         id="g5374"><path
           id="path5372"
           d="M 59.999,63.999 H 40.001 c -1.104,0 -1.999,0.896 -1.999,2 0,1.104 0.896,1.999 1.999,1.999 h 19.998 c 1.104,0 2,-0.895 2,-1.999 0,-1.104 -0.895,-2 -2,-2 z"
           inkscape:connector-curvature="0"
           style="clip-rule:evenodd;fill:#1f95f2;fill-opacity:1;fill-rule:evenodd"
           sodipodi:nodetypes="sssssss" /></g></g></g><g
     inkscape:groupmode="layer"
     id="layer3"
     inkscape:label="Layer 3"
     style="display:inline"
     transform="translate(0,412)"
     sodipodi:insensitive="true"><g
       style="display:inline"
       id="g20"
       transform="matrix(10.53542,0,0,10.53542,-271.18172,-688.58487)"><g
         id="g18"><path
           sodipodi:nodetypes="ssccccscssscss"
           style="clip-rule:evenodd;fill:#1f95f2;fill-opacity:1;fill-rule:evenodd"
           inkscape:connector-curvature="0"
           d="m 50.00025,52.00775 c -0.552,0 -0.999,0.447 -0.999,1 v 3.827 l -2.536,-2.535 c -0.39,-0.391 -1.023,-0.391 -1.414,0 -0.39,0.391 -0.39,1.023 0,1.414 l 4.242,4.242 c 0.391,0.391 1.024,0.391 1.414,0 l 4.242,-4.242 c 0.391,-0.391 0.391,-1.023 0,-1.414 -0.391,-0.391 -1.023,-0.391 -1.414,0 l -2.535,2.535 v -3.827 c 0,-0.553 -0.447,-1 -1,-1 z"
           id="path16" /></g></g></g></svg>