<?xml version="1.0" encoding="UTF-8" standalone="no"?>
<!-- Generator: Adobe Illustrator 15.1.0, SVG Export Plug-In . SVG Version: 6.00 Build 0)  -->

<svg
   xmlns:dc="http://purl.org/dc/elements/1.1/"
   xmlns:cc="http://creativecommons.org/ns#"
   xmlns:rdf="http://www.w3.org/1999/02/22-rdf-syntax-ns#"
   xmlns:svg="http://www.w3.org/2000/svg"
   xmlns="http://www.w3.org/2000/svg"
   xmlns:sodipodi="http://sodipodi.sourceforge.net/DTD/sodipodi-0.dtd"
   xmlns:inkscape="http://www.inkscape.org/namespaces/inkscape"
   version="1.1"
   id="Layer_1"
   x="0px"
   y="0px"
   width="512"
   height="512"
   viewBox="0 0 512 512"
   enable-background="new 0 0 100 100"
   xml:space="preserve"
   sodipodi:docname="Thermometer-50.svg"
   inkscape:version="0.92.1 r15371"><metadata
     id="metadata3743"><rdf:RDF><cc:Work
         rdf:about=""><dc:format>image/svg+xml</dc:format><dc:type
           rdf:resource="http://purl.org/dc/dcmitype/StillImage" /><dc:title></dc:title></cc:Work></rdf:RDF></metadata><defs
     id="defs3741" /><sodipodi:namedview
     pagecolor="#ffffff"
     bordercolor="#666666"
     borderopacity="1"
     objecttolerance="10"
     gridtolerance="10"
     guidetolerance="10"
     inkscape:pageopacity="0"
     inkscape:pageshadow="2"
     inkscape:window-width="1680"
     inkscape:window-height="991"
     id="namedview3739"
     showgrid="false"
     inkscape:zoom="1"
     inkscape:cx="141.78187"
     inkscape:cy="273.06404"
     inkscape:window-x="0"
     inkscape:window-y="0"
     inkscape:window-maximized="1"
     inkscape:current-layer="layer1" /><g
     inkscape:groupmode="layer"
     id="layer1"
     inkscape:label="Layer 1"
     style="display:inline"
     sodipodi:insensitive="true"><path
       d="m 254.88005,416.51354 c -21.47121,0 -38.89711,-17.4259 -38.89711,-38.89711 0,-16.92024 10.86526,-31.14362 25.9314,-36.51142 V 208.27138 h 25.93141 v 132.83363 c 15.06615,5.3678 25.93141,19.60415 25.93141,36.51142 0,21.47121 -17.42591,38.89711 -38.89711,38.89711 z"
       id="path3736"
       inkscape:connector-curvature="0"
       style="clip-rule:evenodd;fill:#000000;fill-opacity:1;fill-rule:evenodd;stroke-width:12.96570301"
       sodipodi:nodetypes="ssccccss" /><path
       style="fill:#fb0000;fill-opacity:1;stroke:none;stroke-width:0;stroke-miterlimit:4;stroke-dasharray:none"
       d="m 241.774,413.38652 c -19.70169,-6.99529 -30.24608,-31.73113 -21.71732,-50.94616 2.93752,-6.61815 12.49213,-16.36871 18.90127,-19.2889 l 3.60845,-1.64413 v -66.14092 -66.14092 h 12.53801 12.53801 v 66.14092 66.14092 l 3.60846,1.64413 c 6.7493,3.07518 15.20528,12.10787 18.49607,19.7575 3.87506,9.00784 3.66178,22.23943 -0.4974,30.85769 -8.37499,17.35383 -29.39364,26.04006 -47.47555,19.61987 z"
       id="path824"
       inkscape:connector-curvature="0" /><path
       style="fill:#fb0000;fill-opacity:1;stroke:none;stroke-width:0;stroke-miterlimit:4;stroke-dasharray:none"
       d="m 292.13316,383.73721 c 5e-4,-0.0317 0.0208,-0.19485 0.045,-0.36257 0.0755,-0.52163 0.22495,-2.14735 0.27289,-2.96784 0.22042,-3.7723 -0.0345,-7.61548 -0.73394,-11.06295 -0.91742,-4.52214 -2.30967,-7.86015 -4.90264,-11.75438 -1.75234,-2.63175 -3.73567,-5.02915 -6.17936,-7.46946 -2.26724,-2.26411 -4.01533,-3.72618 -6.18985,-5.17708 -1.44017,-0.96092 -2.30743,-1.41556 -5.16347,-2.70685 l -1.6234,-0.73399 -10e-4,-7.87082 c -0.001,-7.84059 -0.001,-7.87083 0.0907,-7.87083 0.0918,0 0.0922,0.0307 0.0922,7.6866 v 7.6866 l 0.31114,0.10812 c 0.17113,0.0595 0.66378,0.24932 1.09477,0.42191 3.21546,1.28756 6.21352,2.97443 8.98865,5.05747 8.59953,6.45492 14.11123,16.04684 15.27734,26.58693 0.1576,1.42448 0.19153,1.98031 0.2195,3.59546 0.0384,2.21618 -0.0749,4.149 -0.36262,6.18834 l -0.0992,0.70295 h -0.56861 c -0.42464,0 -0.56837,-0.0146 -0.56769,-0.0576 z"
       id="path826"
       inkscape:connector-curvature="0" /><path
       style="fill:#fb0000;fill-opacity:1;stroke:none;stroke-width:0;stroke-miterlimit:4;stroke-dasharray:none"
       d="m 216.87176,369.40327 c 0.11599,-0.52844 0.48275,-1.9615 0.64859,-2.53423 1.46205,-5.04913 4.01016,-9.83335 7.39541,-13.88526 0.84222,-1.00809 1.32762,-1.53552 2.40183,-2.6098 1.49502,-1.49512 2.61556,-2.47229 4.19056,-3.65441 3.0145,-2.26253 6.26959,-4.04577 9.81095,-5.37474 l 0.5867,-0.22018 0.008,-6.34227 0.008,-6.34228 h 0.30965 0.30964 l -0.008,6.53609 -0.008,6.53609 -2.03558,0.92853 c -1.11956,0.51069 -2.2563,1.0475 -2.52607,1.19291 -2.28057,1.22918 -4.72972,3.05169 -7.54722,5.61618 -0.64528,0.58734 -2.68239,2.61371 -3.30238,3.28497 -3.05471,3.30735 -5.4135,6.52799 -6.72653,9.18424 -1.03301,2.08978 -2.05771,5.12955 -2.55184,7.57008 l -0.0379,0.18742 h -0.47093 -0.47093 z"
       id="path828"
       inkscape:connector-curvature="0" /><path
       style="fill:#fb0000;fill-opacity:1;stroke:none;stroke-width:0;stroke-miterlimit:4;stroke-dasharray:none"
       d="m 251.64211,416.22285 c -15.52752,-1.2747 -28.8895,-11.93377 -33.66753,-26.85712 -1.34206,-4.19171 -1.7133,-6.67896 -1.73048,-11.59419 -0.0173,-4.93778 0.41302,-8.21382 1.07883,-8.21382 0.28078,0 0.35287,0.17124 0.24799,0.58911 -0.46798,1.86456 -0.68808,6.73129 -0.43582,9.63647 1.21841,14.03196 9.28642,26.33815 21.06767,32.13464 13.30893,6.54812 30.25779,4.04698 42.00576,-6.19879 3.87164,-3.37658 7.59637,-8.39369 9.4867,-12.77835 0.83422,-1.93499 1.8555,-5.47614 2.43841,-8.45479 0.13886,-0.70962 0.88714,-0.78868 0.88714,-0.0937 0,1.07013 -1.39195,5.77336 -2.43938,8.24237 -2.16778,5.10991 -4.86657,8.99958 -8.9907,12.95802 -6.50611,6.24473 -14.60529,9.8851 -23.66176,10.63536 -1.70992,0.14166 -3.28495,0.24269 -3.50008,0.22453 -0.21512,-0.0182 -1.46916,-0.12153 -2.78675,-0.2297 z"
       id="path830"
       inkscape:connector-curvature="0" /><path
       style="fill:#fb0000;fill-opacity:1;stroke:none;stroke-width:0;stroke-miterlimit:4;stroke-dasharray:none"
       d="M 241.91257,268.25394 V 208.14963 H 254.82 267.72743 l 6e-5,0.5867 7e-5,0.58671 -12.51636,-0.0701 -12.51637,-0.0701 v 59.58773 c 0,52.79303 -0.0446,59.58773 -0.39113,59.58773 -0.34654,0 -0.39113,-6.8521 -0.39113,-60.1043 z"
       id="path832"
       inkscape:connector-curvature="0" /><path
       style="fill:#fb0000;fill-opacity:1;stroke:none;stroke-width:0;stroke-miterlimit:4;stroke-dasharray:none"
       d="m 267.64716,229.51024 v -10.25912 h 0.0978 0.0978 v 10.25912 10.25913 h -0.0978 -0.0978 z"
       id="path834"
       inkscape:connector-curvature="0" /><path
       style="fill:#fb0000;fill-opacity:1;stroke:none;stroke-width:0;stroke-miterlimit:4;stroke-dasharray:none"
       d="m 267.64255,252.91341 v -13.13725 h 0.11524 0.11524 v 13.13725 13.13725 h -0.11524 -0.11524 z"
       id="path836"
       inkscape:connector-curvature="0" /><path
       style="fill:#fb0000;fill-opacity:1;stroke:none;stroke-width:0;stroke-miterlimit:4;stroke-dasharray:none"
       d="m 267.64685,213.15249 v -3.47753 h 0.0994 0.0994 v 3.47753 3.47753 h -0.0994 -0.0994 z"
       id="path838"
       inkscape:connector-curvature="0" /><path
       style="fill:#fb0000;fill-opacity:1;stroke:none;stroke-width:0;stroke-miterlimit:4;stroke-dasharray:none"
       d="m 267.64685,209.50095 v -0.17402 h 0.0414 0.0414 v -0.52756 -0.52757 h 0.058 0.058 v 0.70158 0.70158 h -0.0994 -0.0994 z"
       id="path840"
       inkscape:connector-curvature="0" /><path
       style="fill:#fb0000;fill-opacity:1;stroke:none;stroke-width:0;stroke-miterlimit:4;stroke-dasharray:none"
       d="m 267.64823,217.94097 v -1.30469 h 0.0977 0.0977 v 1.30469 1.30468 h -0.0977 -0.0977 z"
       id="path842"
       inkscape:connector-curvature="0" /><path
       style="fill:#fb0000;fill-opacity:1;stroke:none;stroke-width:0;stroke-miterlimit:4;stroke-dasharray:none"
       d="m 290.41178,393.03744 c 0.003,-0.008 0.0613,-0.14282 0.12912,-0.30048 0.99511,-2.31238 2.33023,-6.72469 2.47579,-8.18204 0.0293,-0.29371 -0.0307,-0.50065 -0.17239,-0.59453 -0.23114,-0.1531 -0.55874,0.0362 -0.67796,0.39169 -0.0125,0.0373 -0.053,0.21631 -0.0899,0.39775 -0.12413,0.60995 -0.24601,1.15939 -0.40282,1.81592 -0.0879,0.36784 -0.30303,1.21804 -0.31003,1.22504 -0.0103,0.0103 -0.004,-0.0252 0.0219,-0.12923 0.23133,-0.91832 0.50608,-2.35253 0.6851,-3.57621 0.0329,-0.22483 0.0602,-0.39063 0.0606,-0.36844 6.8e-4,0.0352 0.005,0.042 0.0367,0.0532 0.0845,0.0304 1.09427,0.0483 1.10583,0.0197 0.0142,-0.0352 0.004,0.0423 -0.0428,0.3187 -0.33547,1.99153 -0.80694,3.87974 -1.4522,5.81601 -0.35514,1.06566 -0.69828,1.96559 -1.17854,3.09083 l -0.0153,0.0359 h -0.0894 c -0.0672,0 -0.088,-0.003 -0.0837,-0.0138 z"
       id="path844"
       inkscape:connector-curvature="0" /><path
       style="fill:#fb0000;fill-opacity:1;stroke:none;stroke-width:0;stroke-miterlimit:4;stroke-dasharray:none"
       d="m 275.10902,410.64408 c 0,-0.002 0.0385,-0.0282 0.0856,-0.0573 0.58303,-0.36072 1.51412,-0.98573 2.1296,-1.42953 1.42491,-1.02745 2.73168,-2.1102 4.06587,-3.36885 0.34797,-0.32826 1.13404,-1.10725 1.5123,-1.49867 2.0338,-2.10455 3.69686,-4.24424 5.10066,-6.56249 0.15244,-0.25173 0.45324,-0.76561 0.52871,-0.90322 l 0.0469,-0.0856 h 0.0821 c 0.0452,0 0.0821,0.002 0.0821,0.005 0,0.0136 -0.3319,0.58197 -0.57241,0.98024 -1.24358,2.05929 -2.72311,4.05316 -4.3604,5.87621 -0.48124,0.53583 -0.83595,0.90846 -1.43615,1.50865 -0.80185,0.80185 -1.40381,1.36055 -2.2268,2.06673 -1.35572,1.16331 -2.96631,2.35409 -4.47037,3.30514 l -0.2664,0.16845 h -0.15069 c -0.0829,0 -0.15068,-0.002 -0.15068,-0.004 z"
       id="path846"
       inkscape:connector-curvature="0" /><path
       style="fill:#fb0000;fill-opacity:1;stroke:none;stroke-width:0;stroke-miterlimit:4;stroke-dasharray:none"
       d="m 273.03282,410.64417 c 0.003,-0.002 0.11398,-0.0651 0.24767,-0.13953 1.37574,-0.76543 2.60518,-1.54284 3.86699,-2.44521 3.1897,-2.2811 6.03356,-5.05165 8.34879,-8.13358 0.71506,-0.95185 1.45607,-2.04278 2.00922,-2.95799 0.11308,-0.18711 0.14261,-0.2286 0.16296,-0.22901 0.0137,-2.8e-4 0.0249,0.002 0.0249,0.006 0,0.009 -0.28384,0.46291 -0.47061,0.75258 -1.71203,2.65533 -3.84681,5.24855 -6.01505,7.30676 -2.0893,1.98328 -4.65812,3.88506 -7.28635,5.3943 -0.63357,0.36383 -0.79627,0.45038 -0.84664,0.45038 -0.0255,0 -0.0444,-0.002 -0.0418,-0.004 z"
       id="path848"
       inkscape:connector-curvature="0" /><path
       style="fill:#fb0000;fill-opacity:1;stroke:none;stroke-width:0;stroke-miterlimit:4;stroke-dasharray:none"
       d="m 288.66659,396.73188 -0.0789,-0.006 0.11033,-0.19888 c 0.56537,-1.01911 1.11537,-2.13179 1.63567,-3.30904 l 0.0708,-0.1602 0.0913,-0.003 c 0.0502,-0.002 0.0889,7.1e-4 0.086,0.006 -0.003,0.005 -0.0512,0.11316 -0.10744,0.24077 -0.39277,0.8918 -0.87838,1.88289 -1.3561,2.76766 -0.11516,0.21328 -0.36777,0.66843 -0.37098,0.66843 -9.2e-4,0 -0.0372,-0.002 -0.0806,-0.006 z"
       id="path850"
       inkscape:connector-curvature="0" /><path
       style="fill:#fb0000;fill-opacity:1;stroke:none;stroke-width:0;stroke-miterlimit:4;stroke-dasharray:none"
       d="m 287.67659,396.73427 c -0.0106,-0.002 -0.0193,-0.005 -0.0193,-0.007 0,-0.002 0.0627,-0.10945 0.13928,-0.2395 0.76021,-1.29058 1.4553,-2.64814 1.95112,-3.81066 0.21626,-0.50704 0.51053,-1.26325 0.66116,-1.69897 0.0258,-0.0746 0.0492,-0.13332 0.052,-0.13052 0.0137,0.0137 -0.32749,0.98319 -0.52558,1.49358 -0.467,1.20328 -1.20619,2.67777 -2.04632,4.08188 -0.19879,0.33225 -0.18791,0.3163 -0.2123,0.31124 z"
       id="path852"
       inkscape:connector-curvature="0" /><path
       style="fill:#fb0000;fill-opacity:1;stroke:none;stroke-width:0;stroke-miterlimit:4;stroke-dasharray:none"
       d="m 254.43161,416.50889 c -3.0641,-0.0398 -6.03513,-0.4187 -8.93551,-1.13961 l -0.23754,-0.0591 -0.002,-0.0804 -0.002,-0.0804 0.21421,0.0539 c 1.65949,0.41762 3.35974,0.72398 5.08662,0.91652 0.4671,0.0521 0.69495,0.0729 1.72357,0.15767 0.16711,0.0138 0.40824,0.0336 0.53585,0.0442 0.12762,0.0105 0.35259,0.0291 0.49995,0.0412 0.14736,0.0121 0.46556,0.0385 0.70711,0.0587 l 0.43918,0.0366 0.14363,-0.004 c 0.31618,-0.008 1.04968,-0.0515 1.86405,-0.11104 0.14411,-0.0105 0.26406,-0.0192 0.26655,-0.0192 0.002,0 0.005,0.0323 0.005,0.0718 v 0.0718 l -0.0207,7e-5 c -0.0114,4e-5 -0.0679,0.002 -0.12567,0.005 -0.14786,0.007 -0.56602,0.0213 -0.83693,0.0278 -0.23702,0.006 -1.09719,0.0107 -1.32583,0.008 z"
       id="path854"
       inkscape:connector-curvature="0" /><path
       style="fill:#fb0000;fill-opacity:1;stroke:none;stroke-width:0;stroke-miterlimit:4;stroke-dasharray:none"
       d="m 253.40962,415.53073 c -2.70367,-0.0463 -5.45689,-0.39764 -8.05024,-1.02726 l -0.10358,-0.0251 v -0.0244 c 0,-0.0134 6.9e-4,-0.0244 0.002,-0.0244 8.5e-4,0 0.0844,0.0199 0.1856,0.0443 2.36654,0.56933 4.8166,0.90541 7.26785,0.99693 0.4816,0.018 0.60562,0.0203 1.23468,0.0233 0.98589,0.005 1.66176,-0.0137 2.55912,-0.0693 l 0.23616,-0.0146 v 0.0174 0.0174 l -0.0373,0.003 c -0.12022,0.011 -0.69386,0.0423 -1.01785,0.0555 -0.59841,0.0244 -0.95116,0.0308 -1.63242,0.0294 -0.31295,-6.3e-4 -0.60256,-0.002 -0.64358,-0.002 z"
       id="path856"
       inkscape:connector-curvature="0" /><path
       style="fill:#fb0000;fill-opacity:1;stroke:none;stroke-width:0;stroke-miterlimit:4;stroke-dasharray:none"
       d="m 254.44325,416.51288 c -2.42298,-0.0242 -4.8787,-0.28184 -7.27441,-0.76305 l -0.10254,-0.0206 v -1.14591 -1.14591 h 4.0625 4.0625 v 1.53906 1.53906 l -0.33106,-8.9e-4 c -0.18208,-5e-4 -0.36972,-10e-4 -0.41699,-0.002 z"
       id="path858"
       inkscape:connector-curvature="0" /><path
       style="fill:#fb0000;fill-opacity:1;stroke:none;stroke-width:0;stroke-miterlimit:4;stroke-dasharray:none"
       d="m 254.44716,416.51289 c -2.39614,-0.025 -4.78637,-0.27142 -7.1416,-0.73621 l -0.23926,-0.0472 v -1.14603 -1.14602 h 4.0625 4.0625 v 1.53906 1.53906 l -0.33106,-8.9e-4 c -0.18208,-4.9e-4 -0.36797,-10e-4 -0.41308,-0.002 z"
       id="path860"
       inkscape:connector-curvature="0" /><path
       style="fill:#fb0000;fill-opacity:1;stroke:none;stroke-width:0;stroke-miterlimit:4;stroke-dasharray:none"
       d="m 256.75313,416.38617 c 0,-0.0503 0.0702,-0.0611 0.71354,-0.11036 6.32572,-0.48435 11.95849,-2.23425 17.13898,-5.32449 0.43739,-0.26091 0.50758,-0.29309 0.62076,-0.28461 0.12719,0.01 0.12582,0.0106 -0.43065,0.34313 -5.20235,3.10848 -10.99267,4.93457 -17.07388,5.38455 -0.86132,0.0637 -0.96875,0.0628 -0.96875,-0.008 z"
       id="path862"
       inkscape:connector-curvature="0" /><path
       style="fill:#fb0000;fill-opacity:1;stroke:none;stroke-width:0;stroke-miterlimit:4;stroke-dasharray:none"
       d="m 253.46301,416.50425 c -5.69717,-0.22221 -11.09669,-1.61074 -16.10051,-4.14039 -7.07354,-3.57598 -12.85092,-9.17895 -16.68346,-16.17984 -0.25065,-0.45786 -1.01966,-1.97188 -1.01966,-2.00749 0,-0.009 13.95,-0.0159 31,-0.0159 h 31 v 5.84106 5.84105 l -0.35157,0.32671 c -4.02479,3.7402 -8.87154,6.61376 -14.1074,8.36407 -3.28618,1.09855 -6.66664,1.73897 -10.23693,1.93935 -0.80391,0.0451 -2.70989,0.0622 -3.50047,0.0314 z"
       id="path864"
       inkscape:connector-curvature="0" /><path
       style="fill:#fb0000;fill-opacity:1;stroke:none;stroke-width:0;stroke-miterlimit:4;stroke-dasharray:none"
       d="m 253.46301,416.50425 c -5.69676,-0.22219 -11.10504,-1.6131 -16.10051,-4.14075 -7.48903,-3.78936 -13.55177,-9.87481 -17.29945,-17.36425 -0.19071,-0.38113 -0.35921,-0.72573 -0.37444,-0.76578 l -0.0277,-0.0728 h 30.99923 30.99923 v 5.84106 5.84105 l -0.35157,0.32719 c -6.32678,5.8881 -14.57424,9.52325 -23.19531,10.22355 -1.41719,0.11512 -3.35445,0.16126 -4.64949,0.11075 z"
       id="path866"
       inkscape:connector-curvature="0" /><path
       style="fill:#fb0000;fill-opacity:1;stroke:none;stroke-width:0;stroke-miterlimit:4;stroke-dasharray:none"
       d="m 250.80605,416.38504 c -16.7734,-1.7227 -30.74898,-14.39901 -34.08967,-30.92042 -2.2306,-11.03152 0.27454,-22.16432 7.01523,-31.17548 1.39991,-1.87144 4.75178,-5.30894 6.65673,-6.82679 3.00779,-2.39658 7.41141,-4.94851 10.38563,-6.01856 l 1.10486,-0.3975 V 292.368 243.68971 h 12.99308 12.99309 v 48.65868 48.65869 l 1.10485,0.42318 c 3.00838,1.15227 6.85133,3.29648 9.42078,5.25642 9.79608,7.47231 15.46054,18.79767 15.46054,30.91137 0,18.7866 -13.43002,34.90931 -31.95148,38.35769 -3.19477,0.59481 -7.76144,0.77153 -11.09364,0.4293 z"
       id="path868"
       inkscape:connector-curvature="0" /><path
       style="fill:#fb0000;fill-opacity:1;stroke:none;stroke-width:0;stroke-miterlimit:4;stroke-dasharray:none"
       d="m 225.0578,352.62835 c 0.54588,-0.75738 4.40623,-4.47012 5.68409,-5.46675 2.75951,-2.15222 7.25855,-4.71594 10.03208,-5.71666 l 1.10486,-0.39865 v -66.44435 -66.44435 h 12.99308 12.99309 v 66.46804 c 0,42.94762 0.0608,66.46804 0.17194,66.46804 0.41929,0 4.40572,1.84173 6.14022,2.83679 3.29405,1.88975 5.38294,3.49023 8.24524,6.31742 1.05482,1.04188 2.0745,2.11309 2.26594,2.38047 l 0.34807,0.48613 h -30.1645 -30.1645 z"
       id="path870"
       inkscape:connector-curvature="0" /></g><g
     inkscape:groupmode="layer"
     id="layer2"
     inkscape:label="Layer 2"
     style="display:inline"><path
       style="clip-rule:evenodd;fill:#000000;fill-opacity:1;fill-rule:evenodd;stroke-width:12.96570301"
       inkscape:connector-curvature="0"
       id="path821"
       d="m 254.88005,481.34206 c -57.28248,0 -103.72563,-46.44315 -103.72563,-103.72563 0,-26.25555 9.85394,-50.1643 25.93141,-68.44594 V 92.422825 c 0,-42.955375 34.82588,-77.794219 77.79422,-77.794219 42.94241,0 77.76828,34.838844 77.76828,77.794219 V 309.17049 c 16.10341,18.28164 25.93141,42.19039 25.93141,68.44594 0,57.28248 -46.41722,103.72563 -103.69969,103.72563 z m 25.9314,-148.39247 V 277.31375 144.27267 92.422825 c 0,-14.314136 -11.61727,-25.931406 -25.9314,-25.931406 -14.32711,0 -25.93141,11.61727 -25.93141,25.931406 v 51.849845 133.04108 55.63584 c -15.44215,8.98523 -25.9314,25.52947 -25.9314,44.66684 0,28.64124 23.22157,51.86282 51.86281,51.86282 28.64123,0 51.86281,-23.22158 51.86281,-51.86282 0,-19.13737 -10.51519,-35.68161 -25.93141,-44.66684 z"
       sodipodi:nodetypes="sscssscsscccssscccsssc" /></g></svg>