<?xml version="1.0" encoding="UTF-8" standalone="no"?>
<!--part of the rodentia icon theme by sixsixfive released under CC0 (https://creativecommons.org/publicdomain/zero/1.0/) on openclipart-->

<svg
   xmlns:dc="http://purl.org/dc/elements/1.1/"
   xmlns:cc="http://creativecommons.org/ns#"
   xmlns:rdf="http://www.w3.org/1999/02/22-rdf-syntax-ns#"
   xmlns:svg="http://www.w3.org/2000/svg"
   xmlns="http://www.w3.org/2000/svg"
   xmlns:xlink="http://www.w3.org/1999/xlink"
   xmlns:sodipodi="http://sodipodi.sourceforge.net/DTD/sodipodi-0.dtd"
   xmlns:inkscape="http://www.inkscape.org/namespaces/inkscape"
   viewBox="0 0 512 512"
   version="1.1"
   id="svg33"
   sodipodi:docname="update.svg"
   width="512"
   height="512"
   inkscape:version="0.92.2 2405546, 2018-03-11">
  <metadata
     id="metadata37">
    <rdf:RDF>
      <cc:Work
         rdf:about="">
        <dc:format>image/svg+xml</dc:format>
        <dc:type
           rdf:resource="http://purl.org/dc/dcmitype/StillImage" />
        <dc:title></dc:title>
      </cc:Work>
    </rdf:RDF>
  </metadata>
  <sodipodi:namedview
     pagecolor="#ffffff"
     bordercolor="#666666"
     borderopacity="1"
     objecttolerance="10"
     gridtolerance="10"
     guidetolerance="10"
     inkscape:pageopacity="0"
     inkscape:pageshadow="2"
     inkscape:window-width="1920"
     inkscape:window-height="1032"
     id="namedview35"
     showgrid="false"
     inkscape:zoom="0.86915209"
     inkscape:cx="32.064804"
     inkscape:cy="212.5446"
     inkscape:window-x="0"
     inkscape:window-y="24"
     inkscape:window-maximized="1"
     inkscape:current-layer="svg33" />
  <defs
     id="0">
    <linearGradient
       id="2">
      <stop
         id="E"
         stop-color="#d3d7cf" />
      <stop
         id="F"
         offset="1"
         stop-color="#eeeeec" />
    </linearGradient>
    <linearGradient
       id="3">
      <stop
         id="G"
         stop-color="#eeeeec" />
      <stop
         id="H"
         offset="1"
         stop-color="#eeeeec"
         stop-opacity="0" />
    </linearGradient>
    <linearGradient
       id="4">
      <stop
         id="I"
         stop-color="#2e3436" />
      <stop
         id="J"
         offset="1"
         stop-color="#2e3436"
         stop-opacity="0" />
    </linearGradient>
    <linearGradient
       id="5">
      <stop
         id="K"
         stop-color="#fff"
         stop-opacity="0.8" />
      <stop
         id="L"
         offset="1"
         stop-color="#fff"
         stop-opacity="0" />
    </linearGradient>
    <linearGradient
       id="6">
      <stop
         id="M"
         stop-color="#eee" />
      <stop
         id="N"
         offset="1"
         stop-color="#dcdcdc" />
    </linearGradient>
    <radialGradient
       cx="24.377001"
       cy="45.941002"
       r="23.08"
       id="7"
       xlink:href="#4"
       gradientUnits="userSpaceOnUse"
       gradientTransform="matrix(11.661733,0,0,1.6972475,-28.238435,420.6169)" />
    <radialGradient
       cx="60.049999"
       cy="51.389999"
       r="15.03"
       id="8"
       xlink:href="#6"
       gradientUnits="userSpaceOnUse"
       gradientTransform="matrix(-1.404511,1.1888571,-1,-1.1813958,199.73811,11.750541)" />
    <linearGradient
       y1="4.2189999"
       x2="0"
       y2="43.780998"
       id="9"
       xlink:href="#5"
       gradientUnits="userSpaceOnUse" />
    <linearGradient
       x1="4.0939999"
       y1="-58.009998"
       x2="15.298"
       y2="33.905998"
       id="A"
       xlink:href="#3"
       gradientUnits="userSpaceOnUse"
       gradientTransform="translate(0.7063923,-1.4999995)" />
    <radialGradient
       cx="21.437"
       cy="39.98"
       r="15.693"
       id="B"
       xlink:href="#2"
       gradientUnits="userSpaceOnUse"
       gradientTransform="matrix(1.7582279,-1.6841783,1.404839,1.4666066,-72.420478,16.465589)" />
  </defs>
  <g
     id="D"
     transform="matrix(11.661733,0,0,11.661733,-32.079354,-4.5123413)">
    <rect
       style="fill:#445800"
       rx="6"
       id="O"
       y="1.5"
       x="3.7060001"
       height="42"
       width="42" />
    <path
       style="fill:#8bb300"
       inkscape:connector-curvature="0"
       id="P"
       transform="translate(0.7063923,-1.4999995)"
       d="M 9,4.09375 C 6.2608771,4.09375 4.09375,6.2608771 4.09375,9 v 30 c 0,2.739123 2.1671271,4.90625 4.90625,4.90625 h 30 c 2.739123,0 4.90625,-2.167127 4.90625,-4.90625 V 9 C 43.90625,6.2608771 41.739123,4.09375 39,4.09375 Z" />
    <g
       id="Q"
       transform="matrix(1.0455796,0,0,1.0455796,1.5108071,1.7679727)">
      <path
         style="fill:#638000"
         inkscape:connector-curvature="0"
         id="T"
         transform="matrix(0.791778,0,0,0.791778,3.1817558,0.8101045)"
         d="m 23.8125,3.875 a 1.2837507,1.2837507 0 0 0 -1,0.78125 l -5.3125,12.375 -13.4375,1.25 a 1.2837507,1.2837507 0 0 0 -0.71875,2.25 L 13.46875,29.4375 10.5,42.59375 a 1.2837507,1.2837507 0 0 0 1.90625,1.375 L 24,37.0625 35.59375,43.9375 A 1.2837507,1.2837507 0 0 0 37.5,42.5625 l -2.96875,-13.125 10.125,-8.90625 a 1.2837507,1.2837507 0 0 0 -0.71875,-2.25 L 30.5,17.03125 25.1875,4.65625 A 1.2837507,1.2837507 0 0 0 23.8125,3.875 Z" />
      <path
         style="fill:url(#B)"
         inkscape:connector-curvature="0"
         id="U"
         d="M 12.493449,34.75168 14.968761,23.74672 6.4912097,16.305787 17.722464,15.259228 22.179501,4.897224 l 4.465985,10.358151 11.232158,1.036861 -8.471126,7.44825 2.484814,11.00282 -9.701427,-5.754881 z" />
    </g>
    <path
       style="opacity:0.8;fill:none;stroke:url(#9);stroke-linecap:round;stroke-dashoffset:30"
       inkscape:connector-curvature="0"
       id="R"
       transform="translate(0.7063923,-1.4999995)"
       d="M 9,4.71875 C 6.5943852,4.71875 4.71875,6.5943852 4.71875,9 v 30 c 0,2.405615 1.8756352,4.28125 4.28125,4.28125 h 30 c 2.405615,0 4.28125,-1.875635 4.28125,-4.28125 V 9 C 43.28125,6.5943852 41.405615,4.71875 39,4.71875 Z" />
    <path
       style="opacity:0.6;fill:url(#A)"
       inkscape:connector-curvature="0"
       id="S"
       d="m 9.7063923,2.5937505 c -2.7391229,0 -4.90625,2.1671271 -4.90625,4.90625 V 24.656251 C 16.88535,19.523108 30.480987,15.086728 44.612642,12.125001 V 7.5000005 c 0,-2.7391229 -2.167127,-4.90625 -4.90625,-4.90625 z" />
  </g>
</svg>
