<?xml version="1.0" encoding="UTF-8" standalone="no"?>
<!-- Created with Inkscape (http://www.inkscape.org/) -->

<svg
   xmlns:dc="http://purl.org/dc/elements/1.1/"
   xmlns:cc="http://creativecommons.org/ns#"
   xmlns:rdf="http://www.w3.org/1999/02/22-rdf-syntax-ns#"
   xmlns:svg="http://www.w3.org/2000/svg"
   xmlns="http://www.w3.org/2000/svg"
   xmlns:sodipodi="http://sodipodi.sourceforge.net/DTD/sodipodi-0.dtd"
   xmlns:inkscape="http://www.inkscape.org/namespaces/inkscape"
   id="svg4776"
   sodipodi:docname="www.svg"
   viewBox="0 0 146897.92 146897.92"
   version="1.1"
   inkscape:version="0.92.2 2405546, 2018-03-11"
   width="512"
   height="512">
  <defs
     id="defs16" />
  <sodipodi:namedview
     id="base"
     bordercolor="#666666"
     inkscape:pageshadow="2"
     inkscape:window-y="24"
     pagecolor="#ffffff"
     inkscape:window-height="1032"
     inkscape:window-maximized="1"
     inkscape:zoom="0.7"
     inkscape:window-x="0"
     showgrid="false"
     borderopacity="1.0"
     inkscape:current-layer="layer1"
     inkscape:cx="480.41727"
     inkscape:cy="185.917"
     inkscape:window-width="1920"
     inkscape:pageopacity="0.0"
     inkscape:document-units="px"
     units="px" />
  <g
     id="layer1"
     inkscape:label="Layer 1"
     inkscape:groupmode="layer"
     transform="translate(-231.54,146222.1)">
    <path
       style="color:#000000;font-style:normal;font-variant:normal;font-weight:normal;font-stretch:normal;font-size:medium;line-height:normal;font-family:Sans;-inkscape-font-specification:Sans;text-indent:0;text-align:start;text-decoration:none;text-decoration-line:none;letter-spacing:normal;word-spacing:normal;text-transform:none;writing-mode:lr-tb;direction:ltr;baseline-shift:baseline;text-anchor:start;display:inline;overflow:visible;visibility:visible;fill:#000000;fill-opacity:1;stroke:none;stroke-width:7421.94824219;marker:none;enable-background:accumulate"
       d="m 73328.768,-143880.3 c -32922.783,0 -60959.18,21200.62 -70288.6698,50418.771 H 13456.474 c 1082.125,-2887.848 2375.993,-5670.549 3873.318,-8337.481 h 20044.965 c -874.21,2727.236 -1592.926,5516.817 -2188.313,8337.481 h 10153.78 c 709.384,-2842.526 1554.948,-5633.932 2560.329,-8337.481 h 19344.703 v 8337.481 h 9803.651 v -8337.481 h 20898.404 c 1124.5,2705.925 2069.419,5492.549 2866.699,8337.481 h 10153.77 c -682.13,-2823.636 -1476.21,-5607.807 -2450.91,-8337.481 h 20810.88 c 1497.6,2667.431 2791.07,5449.062 3873.32,8337.481 h 10394.49 C 134266.04,-122679.65 106251.53,-143880.3 73328.768,-143880.3 Z m 14793.01,11532.42 c 13722.182,3155.29 25706.742,10554.87 34378.432,20745.22 h -18184.9 c -4061.31,-7857.29 -9442.471,-14948.73 -16193.532,-20745.22 z m -32452.708,722.14 c -6077.383,5641.22 -10870.927,12471.67 -14442.879,20023.08 H 24157.334 c 8063.029,-9475.1 18987.648,-16536.37 31511.736,-20023.08 z m 21379.837,3151.18 c 6463.554,4424.46 11679.027,10259.19 15821.518,16871.9 H 77048.907 Z m -9803.651,65.63 v 16806.27 H 52474.127 c 3794.874,-6627.89 8639.462,-12447.93 14771.129,-16806.27 z M 5972.4356,-83986.123 c -975.5196,0.02 -1790.4441,220.183 -2450.9127,678.375 -660.4686,458.238 -984.7388,1029.139 -984.7388,1685.008 0,490.8 141.3245,1170.912 459.5459,2057.012 l 5208.1878,14968.072 c 158.6546,447.579 341.2718,952.136 547.0826,1488.058 205.7944,535.926 493.379,1012.555 831.5549,1422.4 338.1597,409.851 798.3947,724.562 1378.6427,962.858 580.221,238.3 1308.882,350.133 2188.314,350.133 1090.65,0 1947.238,-197.768 2604.091,-590.846 656.832,-393.076 1125.681,-815.792 1378.643,-1291.106 252.929,-475.301 567.556,-1207.34 962.855,-2210.197 l 4661.11,-13129.889 4639.231,13195.539 c 386.191,977.705 693.896,1699.187 940.977,2166.431 247.023,467.249 699.879,903.512 1356.754,1291.105 656.814,387.595 1530.755,568.963 2625.974,568.963 1151.371,0 2053.793,-189.052 2691.628,-590.846 637.774,-401.787 1084.161,-854.038 1334.874,-1356.754 250.645,-502.713 544.502,-1269.125 897.207,-2275.849 l 5208.188,-14968.072 c 322.719,-939.629 481.389,-1619.741 481.432,-2057.012 -0.05,-667.48 -338.033,-1232.576 -1006.622,-1685.008 -668.672,-452.389 -1470.777,-678.355 -2429.029,-678.375 -961.054,0.02 -1702.534,170.19 -2210.199,525.193 -507.741,355.053 -856.413,740.953 -1050.392,1159.806 -194.051,418.899 -394.143,972.477 -590.844,1641.236 l -3676.373,12735.997 -4114.029,-11926.321 c -384.435,-1001.538 -696.665,-1721.049 -940.975,-2188.313 -244.357,-467.221 -716.383,-920.486 -1378.638,-1334.868 -662.308,-414.342 -1586.076,-612.71 -2779.164,-612.73 -1173.182,0.02 -2089.692,191.659 -2779.159,590.846 -689.498,399.225 -1181.961,867.239 -1466.169,1378.637 -284.244,511.44 -594.663,1222.935 -940.976,2166.428 L 13478.359,-67923.891 9780.1072,-80747.42 c -289.2229,-972.522 -664.5559,-1746.212 -1116.0436,-2341.497 -451.4981,-595.237 -1344.3957,-897.186 -2691.628,-897.206 z m 50396.8944,0 c -975.525,0.02 -1790.438,220.183 -2450.913,678.375 -660.473,458.238 -984.742,1029.139 -984.742,1685.008 0,490.8 163.202,1170.912 481.428,2057.012 l 5208.194,14968.072 c 158.649,447.579 341.272,952.136 547.077,1488.058 205.795,535.926 471.498,1012.555 809.676,1422.4 338.166,409.851 798.395,724.562 1378.637,962.858 580.233,238.3 1308.888,350.133 2188.313,350.133 1090.652,0 1969.122,-197.768 2625.983,-590.846 656.83,-393.076 1103.792,-815.792 1356.753,-1291.106 252.934,-475.301 567.557,-1207.34 962.858,-2210.197 l 4661.111,-13129.889 4639.227,13195.539 c 386.197,977.705 693.893,1699.187 940.974,2166.431 247.026,467.249 699.888,903.512 1356.757,1291.105 656.819,387.595 1530.754,568.963 2625.979,568.963 1151.376,0 2053.787,-189.052 2691.626,-590.846 637.77,-401.787 1084.157,-854.038 1334.873,-1356.754 250.641,-502.713 544.504,-1269.125 897.213,-2275.849 l 5208.186,-14968.072 c 322.717,-939.629 481.387,-1619.741 481.43,-2057.012 -0.04,-667.48 -338.038,-1232.576 -1006.628,-1685.008 -668.671,-452.389 -1470.771,-678.355 -2429.029,-678.375 -961.053,0.02 -1702.527,170.19 -2210.198,525.193 -507.736,355.053 -856.407,740.953 -1050.39,1159.806 -194.048,418.899 -394.145,972.477 -590.848,1641.236 l -3676.366,12735.997 -4114.033,-11926.321 c -384.429,-1001.538 -696.667,-1721.049 -940.975,-2188.313 -244.357,-467.221 -694.5,-920.486 -1356.755,-1334.868 -662.308,-414.342 -1586.075,-612.71 -2779.16,-612.73 -1173.179,0.02 -2111.579,191.659 -2801.043,590.846 -689.499,399.225 -1181.966,867.239 -1466.172,1378.637 -284.241,511.44 -594.656,1222.935 -940.975,2166.428 l -4092.145,11926.321 -3698.255,-12823.529 c -289.224,-972.522 -642.672,-1746.212 -1094.155,-2341.497 -451.504,-595.237 -1366.281,-897.186 -2713.513,-897.206 z m 50396.9,0 c -975.54,0.02 -1790.45,220.183 -2450.92,678.375 -660.47,458.238 -984.74,1029.139 -984.74,1685.008 0,490.8 163.2,1170.912 481.43,2057.012 l 5208.19,14968.072 c 158.64,447.579 341.27,952.136 547.07,1488.058 205.8,535.926 471.51,1012.555 809.69,1422.4 338.15,409.851 798.38,724.562 1378.63,962.858 580.23,238.3 1308.88,350.133 2188.32,350.133 1090.65,0 1969.12,-197.768 2625.98,-590.846 656.82,-393.076 1103.78,-815.792 1356.75,-1291.106 252.93,-475.301 589.44,-1207.34 984.74,-2210.197 l 4639.22,-13129.889 4639.25,13195.539 c 386.18,977.705 693.88,1699.187 940.97,2166.431 247.02,467.249 699.87,903.512 1356.76,1291.105 656.8,387.595 1530.74,568.963 2625.96,568.963 1151.38,0 2053.79,-189.052 2691.63,-590.846 637.78,-401.787 1084.16,-854.038 1334.87,-1356.754 250.65,-502.713 544.5,-1269.125 897.21,-2275.849 l 5208.2,-14968.072 c 322.7,-939.629 481.37,-1619.741 481.42,-2057.012 0,-667.48 -316.16,-1232.576 -984.74,-1685.008 -668.67,-452.389 -1492.65,-678.355 -2450.92,-678.375 -961.04,0.02 -1702.52,170.19 -2210.19,525.193 -507.74,355.053 -856.41,740.953 -1050.39,1159.806 -194.06,418.899 -394.14,972.477 -590.84,1641.236 l -3654.51,12735.997 -4135.91,-11926.321 c -384.42,-1001.538 -696.66,-1721.049 -940.97,-2188.313 -244.35,-467.221 -694.49,-920.486 -1356.76,-1334.868 -662.3,-414.342 -1586.06,-612.71 -2779.15,-612.73 -1173.18,0.02 -2111.59,191.659 -2801.05,590.846 -689.49,399.225 -1181.95,867.239 -1466.17,1378.637 -284.24,511.44 -594.65,1222.935 -940.96,2166.428 l -4092.15,11926.321 -3676.38,-12823.529 c -289.22,-972.522 -664.55,-1746.212 -1116.04,-2341.497 -451.5,-595.237 -1366.28,-897.186 -2713.5,-897.206 z M 2668.0837,-52189.909 C 11574.538,-22311.833 39922.303,-480.02911 73328.768,-480.02911 c 33406.932,0 61754.652,-21831.16189 70660.692,-51709.87989 h -10350.73 c -987.01,2817.834 -2166.63,5542.208 -3545.08,8162.416 h -21007.81 c 894.37,-2671.467 1632.63,-5402.293 2253.97,-8162.416 H 101339.2 c -698.17,2790.96 -1534.662,5517.796 -2560.326,8162.416 H 77048.907 v -8162.416 h -9803.651 v 8162.416 H 47397.24 c -899.982,-2634.829 -1674.293,-5364.52 -2319.614,-8162.416 H 35011.375 c 563.995,2763.318 1252.291,5491.075 2035.137,8162.416 H 16563.885 c -1378.441,-2620.208 -2579.944,-5344.582 -3566.957,-8162.416 z m 20329.4433,17966.066 h 17572.171 c 3586.434,8295.883 8341.492,15704.854 14464.757,21336.071 -12891.917,-3728.987 -24002.924,-11296.035 -32036.928,-21336.071 z m 28491.864,0 h 15755.865 v 18316.197 C 60878.422,-19943.664 55553.224,-26377.9 51489.391,-34223.843 Z m 25559.516,0 h 16850.025 c -4277.98,7151.09 -9841.25,13337.703 -16850.025,17856.651 z m 28119.843,0 h 18491.26 c -8848.5,11057.908 -21448.7,19109.126 -36019.656,22342.695 7476.847,-6045.729 13286.266,-13743.228 17528.396,-22342.695 z"
       id="path3592-4-4-3-8"
       inkscape:connector-curvature="0" />
  </g>
  <metadata
     id="metadata14">
    <rdf:RDF>
      <cc:Work>
        <dc:format>image/svg+xml</dc:format>
        <dc:type
           rdf:resource="http://purl.org/dc/dcmitype/StillImage" />
        <cc:license
           rdf:resource="http://creativecommons.org/publicdomain/zero/1.0/" />
        <dc:publisher>
          <cc:Agent
             rdf:about="http://openclipart.org/">
            <dc:title>Openclipart</dc:title>
          </cc:Agent>
        </dc:publisher>
        <dc:title>Internet Icon</dc:title>
        <dc:date>2010-09-23T04:19:58</dc:date>
        <dc:description />
        <dc:source>https://openclipart.org/detail/86401/internet-icon-by-ben</dc:source>
        <dc:creator>
          <cc:Agent>
            <dc:title>ben</dc:title>
          </cc:Agent>
        </dc:creator>
        <dc:subject>
          <rdf:Bag>
            <rdf:li>Icon</rdf:li>
            <rdf:li>internet</rdf:li>
            <rdf:li>world</rdf:li>
          </rdf:Bag>
        </dc:subject>
      </cc:Work>
      <cc:License
         rdf:about="http://creativecommons.org/publicdomain/zero/1.0/">
        <cc:permits
           rdf:resource="http://creativecommons.org/ns#Reproduction" />
        <cc:permits
           rdf:resource="http://creativecommons.org/ns#Distribution" />
        <cc:permits
           rdf:resource="http://creativecommons.org/ns#DerivativeWorks" />
      </cc:License>
    </rdf:RDF>
  </metadata>
</svg>
